<?xml version="1.0" encoding="UTF-8"?>
<svg version="1.1" xmlns="http://www.w3.org/2000/svg" width="512" height="512">
<path d="M0 0 C0.68064514 -0.00671722 1.36129028 -0.01343445 2.06256104 -0.02035522 C4.30024651 -0.03926045 6.53763036 -0.04325677 8.77539062 -0.04541016 C10.34753538 -0.05184748 11.91967896 -0.05857652 13.49182129 -0.06558228 C16.7868934 -0.07753946 20.08186086 -0.08126514 23.37695312 -0.08007812 C27.56150897 -0.07987599 31.74537757 -0.10707455 35.92977142 -0.14162254 C39.17983969 -0.16407642 42.42974805 -0.16790994 45.67988586 -0.16685867 C47.22018277 -0.16919094 48.76048575 -0.17787745 50.30070496 -0.19352341 C69.54185685 -0.37054888 86.56602349 5.03358673 100.93164062 18.29052734 C115.77546087 32.9659412 122.07493364 49.69849481 122.24414062 70.35302734 C122.27314453 71.53703125 122.30214844 72.72103516 122.33203125 73.94091797 C122.34041016 75.07851562 122.34878906 76.21611328 122.35742188 77.38818359 C122.37929565 78.94291382 122.37929565 78.94291382 122.40161133 80.52905273 C121.81039708 84.00293555 120.71462379 85.18984827 117.93164062 87.29052734 C116.94164062 87.29052734 115.95164062 87.29052734 114.93164062 87.29052734 C114.93164062 92.90052734 114.93164062 98.51052734 114.93164062 104.29052734 C116.58164062 104.62052734 118.23164063 104.95052734 119.93164062 105.29052734 C122.18275244 108.66719506 122.17154448 109.82059326 122.16992188 113.77099609 C122.18603516 114.85316406 122.20214844 115.93533203 122.21875 117.05029297 C122.23553199 119.3158618 122.24094202 121.5815465 122.234375 123.84716797 C122.34907732 130.09659427 122.7597022 134.39575476 126.66674805 139.4050293 C130.9508849 145.79113022 130.29868458 153.18118425 130.30664062 160.54052734 C130.33113281 161.71744141 130.355625 162.89435547 130.38085938 164.10693359 C130.41166878 173.33948601 129.07122415 181.04084423 122.80664062 188.10302734 C116.10944477 194.22163177 108.17697806 197.46011469 99.18164062 197.35302734 C98.19679688 197.34400391 97.21195312 197.33498047 96.19726562 197.32568359 C95.44960938 197.31408203 94.70195312 197.30248047 93.93164062 197.29052734 C93.96644531 198.13873047 94.00125 198.98693359 94.03710938 199.86083984 C94.56566673 222.76499208 86.22168276 243.28208558 70.48242188 259.79443359 C67.93164063 262.29052734 67.93164063 262.29052734 65.81030273 263.51806641 C63.62549547 265.22599808 63.62549547 265.22599808 63.38574219 268.38500977 C63.35432129 270.246698 63.35432129 270.246698 63.32226562 272.14599609 C63.30572937 272.8076326 63.28919312 273.4692691 63.27215576 274.1509552 C63.22364774 276.26007335 63.20230136 278.36847058 63.18164062 280.47802734 C63.15348286 281.9097043 63.12355568 283.34134762 63.09179688 284.77294922 C63.0178917 288.27865127 62.96833274 291.78421609 62.93164062 295.29052734 C63.63419983 295.45619705 64.33675903 295.62186676 65.06060791 295.79255676 C73.16976358 297.75609836 81.0961575 300.13596835 89.04101562 302.67724609 C90.37875819 303.10247215 91.71658994 303.52741774 93.05450439 303.95210266 C95.84875202 304.83990078 98.64221105 305.73012193 101.43505859 306.62231445 C104.93630512 307.74074726 108.43900184 308.85454856 111.94223022 309.96675587 C120.61233399 312.71981989 129.27500742 315.49540095 137.93164062 318.29052734 C139.13385254 318.6784848 140.33606445 319.06644226 141.57470703 319.46615601 C144.8993811 320.54316105 148.22080776 321.62952936 151.54101562 322.72021484 C152.50706726 323.03323044 153.4731189 323.34624603 154.46844482 323.66874695 C168.08716284 328.18101803 177.65487823 335.5271261 184.30664062 348.47802734 C189.36121181 359.02485606 190.15876382 368.78294041 190.22680664 380.36132812 C190.23839373 381.73447926 190.25895052 383.10758305 190.28833008 384.48046875 C190.33103123 386.48193613 190.34457663 388.48395821 190.35742188 390.48583984 C190.37929565 392.26498779 190.37929565 392.26498779 190.40161133 394.08007812 C189.83850981 397.92671968 188.64687574 399.56055426 185.93164062 402.29052734 C183.68164062 403.10302734 183.68164062 403.10302734 181.93164062 403.29052734 C181.96464833 405.89813581 182.03175542 408.4971558 182.11914062 411.10302734 C182.12494141 411.84101563 182.13074219 412.57900391 182.13671875 413.33935547 C182.18480578 415.78617397 182.18480578 415.78617397 182.93164062 419.29052734 C185.27426009 421.18806676 185.27426009 421.18806676 187.93164062 422.29052734 C190.38228586 425.96649519 190.22055561 428.73591411 190.20629883 432.98730469 C190.21396523 434.16097343 190.21396523 434.16097343 190.2217865 435.35835266 C190.23569898 437.94780097 190.23472431 440.53698357 190.23242188 443.12646484 C190.23630831 444.92624002 190.24064287 446.72601428 190.2454071 448.52578735 C190.25287317 452.30026216 190.25257555 456.07464344 190.24731445 459.84912109 C190.24152371 464.68357682 190.25843931 469.51764894 190.28165913 474.35204124 C190.29640036 478.07012161 190.29726756 481.78810973 190.2941494 485.50621414 C190.29466256 487.28838485 190.29989936 489.07056072 190.30996132 490.85270309 C190.32231406 493.34704139 190.31554099 495.84063434 190.30395508 498.33496094 C190.31159882 499.06968124 190.31924255 499.80440155 190.32711792 500.56138611 C190.27761147 505.38959738 189.40612206 508.81604591 185.93164062 512.29052734 C184.31337005 512.39122048 182.69068926 512.42160131 181.06929207 512.42474842 C180.01019886 512.42920626 178.95110565 512.43366411 177.85991871 512.43825704 C176.09308509 512.43798049 176.09308509 512.43798049 174.29055786 512.43769836 C172.43035139 512.4432134 172.43035139 512.4432134 170.532565 512.44883984 C167.07452444 512.45798888 163.61653143 512.46258121 160.15848327 512.46522915 C156.43515642 512.46912372 152.71184343 512.47870258 148.98852539 512.48744202 C139.98922496 512.50722992 130.98992336 512.51727533 121.99060661 512.52616981 C117.75715327 512.53054868 113.5237012 512.5359165 109.29024887 512.54115868 C95.22513908 512.55817287 81.16003008 512.5726685 67.09491158 512.57990742 C63.4426689 512.58181744 59.79042624 512.58373776 56.13818359 512.58569336 C55.23038914 512.5861771 54.32259468 512.58666084 53.3872913 512.58715924 C38.67152849 512.59546497 23.95584682 512.62081017 9.24011947 512.65327404 C-5.85350396 512.68630129 -20.94708609 512.70435222 -36.04074585 512.70755166 C-44.52127303 512.70972073 -53.00168186 512.71852717 -61.48217392 512.74401283 C-68.7024837 512.76566072 -75.92264642 512.77379956 -83.14298497 512.76404605 C-86.82946363 512.75948412 -90.51563847 512.76149634 -94.20207596 512.7808075 C-98.19261522 512.80153189 -102.18273005 512.7915093 -106.17330933 512.77827454 C-107.93345078 512.79472841 -107.93345078 512.79472841 -109.72915065 512.81151468 C-110.79345935 512.80293378 -111.85776806 512.79435289 -112.95432854 512.78551197 C-113.87612715 512.78648878 -114.79792576 512.78746559 -115.74765766 512.788472 C-118.06835938 512.29052734 -118.06835938 512.29052734 -119.86306584 510.42490071 C-121.41189927 507.68217562 -121.46595789 505.74762191 -121.50073242 502.60400391 C-121.52052658 501.46312317 -121.54032074 500.32224243 -121.56071472 499.14678955 C-121.56710464 497.92062927 -121.57349457 496.69446899 -121.58007812 495.43115234 C-121.59802933 494.17163757 -121.61598053 492.9121228 -121.63447571 491.61444092 C-121.67946537 488.2738385 -121.7117646 484.93360343 -121.73791504 481.59283447 C-121.76774873 478.18073236 -121.81426929 474.76886195 -121.859375 471.35693359 C-121.94440958 464.66823845 -122.012718 457.97952807 -122.06835938 451.29052734 C-123.35298371 452.73113917 -124.63695705 454.17233153 -125.9206543 455.61376953 C-126.63573654 456.41627136 -127.35081879 457.21877319 -128.08757019 458.04559326 C-130.24921821 460.49550432 -132.33239608 462.99534249 -134.38085938 465.54052734 C-137.74690884 469.69005384 -141.16733193 473.78512598 -144.63085938 477.85302734 C-147.88670586 481.67779134 -151.08299755 485.53287657 -154.19335938 489.47802734 C-162.39249231 499.72694351 -169.92714125 508.74143924 -183.06835938 512.29052734 C-195.82653193 513.38444842 -207.03707848 512.30320599 -217.29101562 503.91552734 C-223.81452034 497.95118018 -228.34756002 491.0860295 -230.06835938 482.29052734 C-230.15134613 479.74417256 -230.18475196 477.22658851 -230.16601562 474.68115234 C-230.16460068 473.95434265 -230.16318573 473.22753296 -230.16172791 472.47869873 C-230.1561473 470.16593241 -230.14359842 467.85326422 -230.13085938 465.54052734 C-230.12584187 463.96891416 -230.1212794 462.39729946 -230.1171875 460.82568359 C-230.10618422 456.98059391 -230.08893299 453.13557725 -230.06835938 449.29052734 C-231.01686768 448.99412354 -231.96537598 448.69771973 -232.94262695 448.39233398 C-236.20902673 447.24094273 -237.52209548 446.30544722 -239.75585938 443.72802734 C-240.31660156 443.10798828 -240.87734375 442.48794922 -241.45507812 441.84912109 C-246.8583867 433.27970919 -246.51241218 424.17210752 -246.46679688 414.41552734 C-246.46882214 412.88053245 -246.47173734 411.3455385 -246.47549438 409.81054688 C-246.47989647 406.60651412 -246.47355551 403.4027337 -246.45947266 400.19873047 C-246.44238183 396.11361601 -246.45223446 392.02909306 -246.47019005 387.94400024 C-246.4810855 384.77819446 -246.47755531 381.61252648 -246.46980667 378.44671631 C-246.46782054 376.94138517 -246.47020747 375.43604109 -246.47724533 373.9307251 C-246.5442391 355.57886546 -246.5442391 355.57886546 -240.75585938 347.91552734 C-236.40565087 343.66648648 -232.83270937 342.24677359 -226.86132812 341.71630859 C-225.96309326 341.63421143 -225.0648584 341.55211426 -224.1394043 341.4675293 C-223.45595947 341.40911865 -222.77251465 341.35070801 -222.06835938 341.29052734 C-222.11549072 339.91501709 -222.11549072 339.91501709 -222.16357422 338.51171875 C-222.26669248 335.06356602 -222.34145575 331.61708314 -222.39794922 328.16796875 C-222.42786706 326.68397954 -222.46861873 325.20016321 -222.52099609 323.71679688 C-222.84127078 314.4037113 -222.64579139 306.61434796 -216.06835938 299.29052734 C-208.54576459 293.32689691 -201.53465301 292.5054082 -192.06835938 293.29052734 C-185.78143494 294.97380066 -181.60355832 298.96464819 -178.06835938 304.29052734 C-173.87551768 313.56469385 -174.62550443 323.47781304 -174.63256836 333.45410156 C-174.62899566 335.79064974 -174.60167506 338.12605782 -174.57226562 340.46240234 C-174.58044815 341.1739447 -174.58863068 341.88548706 -174.59706116 342.61859131 C-174.52337208 347.54781029 -173.31375063 349.68899461 -170.06835938 353.29052734 C-168.07589484 357.19558299 -167.77369072 360.54593315 -167.65429688 364.90380859 C-167.615625 366.15097656 -167.57695312 367.39814453 -167.53710938 368.68310547 C-167.50617188 369.97667969 -167.47523438 371.27025391 -167.44335938 372.60302734 C-167.4046875 373.9159375 -167.36601562 375.22884766 -167.32617188 376.58154297 C-167.2320282 379.81773172 -167.14639586 383.05391669 -167.06835938 386.29052734 C-160.46316382 378.13943496 -153.98475141 369.91931927 -147.72290039 361.5012207 C-142.17394142 354.05661542 -136.4828768 346.720525 -130.72607422 339.43554688 C-129.60175323 337.98071857 -128.50891683 336.50111233 -127.44580078 335.00097656 C-118.36657805 322.45567231 -105.67078735 318.49382715 -91.63085938 313.47802734 C-89.70610339 312.7782868 -87.78187074 312.07710511 -85.8581543 311.37451172 C-82.04336623 309.98317855 -78.22606956 308.59913737 -74.40625 307.22167969 C-68.48598752 305.08439461 -62.58365216 302.90075181 -56.68457031 300.70581055 C-51.81501305 298.89394768 -46.94131213 297.09323819 -42.06835938 295.29052734 C-41.73835937 285.39052734 -41.40835938 275.49052734 -41.06835938 265.29052734 C-42.38835937 264.63052734 -43.70835937 263.97052734 -45.06835938 263.29052734 C-60.45309939 250.17527538 -70.62845237 231.27559517 -72.50585938 211.04833984 C-73.36339172 199.88059203 -73.36339172 199.88059203 -72.06835938 197.29052734 C-72.73480469 197.33693359 -73.40125 197.38333984 -74.08789062 197.43115234 C-84.06190403 197.82174308 -92.51795546 195.3222188 -100.34570312 189.00537109 C-107.91340303 181.47199183 -108.33222135 173.52023415 -108.41845703 163.36889648 C-108.43491478 161.95401443 -108.46206893 160.53921195 -108.50048828 159.12475586 C-108.74116372 150.19988268 -108.34406732 142.82653189 -103.06835938 135.29052734 C-102.40835938 134.63052734 -101.74835938 133.97052734 -101.06835938 133.29052734 C-100.79012438 131.16637575 -100.79012438 131.16637575 -100.87304688 128.69580078 C-100.87965332 127.74010193 -100.88625977 126.78440308 -100.89306641 125.79974365 C-100.91796143 124.2405722 -100.91796143 124.2405722 -100.94335938 122.64990234 C-100.95093262 121.57613342 -100.95850586 120.5023645 -100.96630859 119.39605713 C-100.99894985 114.79688758 -101.05456344 110.19807202 -101.109375 105.59912109 C-101.35095621 83.44993903 -101.55215484 63.81153784 -85.63085938 46.66552734 C-84.78523437 45.88177734 -83.93960938 45.09802734 -83.06835938 44.29052734 C-82.57980469 43.80841797 -82.09125 43.32630859 -81.58789062 42.82958984 C-71.47763114 33.3677318 -58.94136645 30.93737893 -45.56835938 31.16552734 C-44.55515625 31.17455078 -43.54195312 31.18357422 -42.49804688 31.19287109 C-40.02123137 31.21623728 -37.54492558 31.24899566 -35.06835938 31.29052734 C-34.936875 30.21673828 -34.80539063 29.14294922 -34.66992188 28.03662109 C-33.38386558 20.02799779 -28.99491361 13.73351074 -23.06835938 8.29052734 C-15.76662111 3.06012212 -9.08092897 0.05658202 0 0 Z " fill="#000101" transform="translate(284.068359375,-0.29052734375)"/>
<path d="M0 0 C1.85253906 1.20825195 1.85253906 1.20825195 3.765625 2.73828125 C4.48331055 3.30562988 5.20099609 3.87297852 5.94042969 4.45751953 C6.70258789 5.06966309 7.46474609 5.68180664 8.25 6.3125 C9.86368167 7.5883808 11.47828423 8.86309765 13.09375 10.13671875 C13.90972656 10.7817334 14.72570312 11.42674805 15.56640625 12.09130859 C19.25698744 14.98586756 22.99660227 17.81261621 26.75 20.625 C27.39227539 21.10880127 28.03455078 21.59260254 28.69628906 22.09106445 C29.89955311 22.99192507 31.1092395 23.88429219 32.32617188 24.76660156 C33.90461776 25.92971542 35.43115579 27.16234082 36.953125 28.3984375 C40.2741087 30.14408278 42.36125932 30.34622157 46.04931641 29.64111328 C49.28373503 28.57808658 51.6693744 26.64037098 54.1875 24.4375 C55.38475455 23.4442422 56.58412053 22.45352607 57.78515625 21.46484375 C58.44273926 20.91812012 59.10032227 20.37139648 59.77783203 19.80810547 C64.13914837 16.25944487 68.64309254 12.89405463 73.125 9.5 C74.91930749 8.13546486 76.71358042 6.77088429 78.5078125 5.40625 C80.00433493 4.26968241 81.50166071 3.13417136 83 2 C83.66539795 1.4212915 84.3307959 0.84258301 85.01635742 0.24633789 C87 -1 87 -1 89.06713867 -0.94555664 C89.7810376 -0.74824951 90.49493652 -0.55094238 91.23046875 -0.34765625 C92.02114746 -0.13641113 92.81182617 0.07483398 93.62646484 0.29248047 C94.40973145 0.52596191 95.19299805 0.75944336 96 1 C96.67885254 1.19609863 97.35770508 1.39219727 98.05712891 1.59423828 C100.15229704 2.22181375 102.23228836 2.88704632 104.3125 3.5625 C105.49610107 3.94124268 105.49610107 3.94124268 106.70361328 4.32763672 C109.47044422 5.21421943 112.23522852 6.1070163 115 7 C118.56512659 8.14774439 122.13053026 9.29462387 125.69604492 10.44116211 C128.08595112 11.21020154 130.47546024 11.98047645 132.86450195 12.75219727 C141.30196316 15.47323772 149.76614959 18.0982622 158.24560547 20.68505859 C162.8418062 22.08896782 167.42428191 23.53103092 172 25 C172.73927734 25.23477051 173.47855469 25.46954102 174.24023438 25.71142578 C185.9341817 29.46302476 194.63833475 32.77686459 201.67578125 43.36328125 C206.6145415 53.1970959 206.45650685 62.76042294 206.51123047 73.52075195 C206.52692619 75.65608317 206.55988862 77.79067333 206.59375 79.92578125 C206.60083984 81.18817627 206.60792969 82.45057129 206.61523438 83.7512207 C207.02589733 87.21866487 207.47411378 88.62679688 210 91 C211.32 91.33 212.64 91.66 214 92 C214 97.94 214 103.88 214 110 C212.02 110.99 210.04 111.98 208 113 C206.53349044 115.93301912 206.83461526 118.56154861 206.79467773 121.83642578 C206.78477814 122.53897491 206.77487854 123.24152405 206.76467896 123.96536255 C206.7330432 126.29197803 206.70829841 128.61861394 206.68359375 130.9453125 C206.66302601 132.55671729 206.64202958 134.16811666 206.62062073 135.7795105 C206.56538146 140.02422706 206.51598039 144.26899247 206.46777344 148.51379395 C206.4087482 153.60495862 206.34251004 158.69603389 206.27747345 163.78712463 C206.17944058 171.52469523 206.09060061 179.26232272 206 187 C190.49 187 174.98 187 159 187 C158.97421875 179.59949219 158.9484375 172.19898438 158.921875 164.57421875 C158.89671703 159.89384522 158.87039222 155.21353698 158.83984375 150.53320312 C158.7914371 143.09968796 158.74741975 135.66632385 158.72900391 128.23266602 C158.71389162 122.24138032 158.67954276 116.250489 158.63169098 110.25937843 C158.61682106 107.97041051 158.60895579 105.6813863 158.60811615 103.39237022 C158.60576163 100.19303406 158.57880382 96.99480131 158.54589844 93.7956543 C158.5509288 92.84331406 158.55595917 91.89097382 158.56114197 90.90977478 C158.60464547 85.97180541 158.60464547 85.97180541 156.19244385 81.87995911 C152.8460745 80.53686054 150.43061642 81.11058093 147 82 C144.22919044 85.65850618 144.22919044 85.65850618 144 94 C72.06 94 0.12 94 -74 94 C-74.33 90.37 -74.66 86.74 -75 83 C-76.52520122 80.21801554 -76.52520122 80.21801554 -79 79 C-81.5 78.33333333 -81.5 78.33333333 -84 79 C-86.27698725 80.54964433 -86.27698725 80.54964433 -88 83 C-88.44872812 86.25667569 -88.44872812 86.25667569 -88.1875 89.8984375 C-88.1532426 91.27245598 -88.12277916 92.6465732 -88.09570312 94.02075195 C-88.07773682 94.73317047 -88.05977051 95.44558899 -88.04125977 96.17959595 C-87.68345067 115.21837457 -87.68345067 115.21837457 -92.89599609 121.68920898 C-94.99672702 123.81519984 -97.15956444 125.80359919 -99.47363281 127.6953125 C-101.76320257 129.65235997 -103.52788946 131.94262233 -105.375 134.3125 C-109.19486592 139.01121189 -113.02806012 143.69843941 -116.875 148.375 C-117.77400024 149.46808472 -117.77400024 149.46808472 -118.69116211 150.58325195 C-122.8483609 155.62778466 -127.04723501 160.63429803 -131.3059082 165.59350586 C-133.88376852 168.61196863 -136.25391863 171.71085488 -138.5625 174.9375 C-142.77230791 180.45905965 -149.07035452 184.79256177 -156 186 C-162.94293538 186.50921388 -168.96557952 186.69454315 -175 183 C-179.74520244 178.25479756 -182.69286873 173.20010971 -183.34057617 166.45141602 C-183.32486572 165.23123779 -183.30915527 164.01105957 -183.29296875 162.75390625 C-183.28872391 162.09792953 -183.28447906 161.44195282 -183.28010559 160.76609802 C-183.26348779 158.69779089 -183.22587238 156.63050599 -183.1875 154.5625 C-183.17243111 153.14910275 -183.15874659 151.73569002 -183.14648438 150.32226562 C-183.11620766 146.88081237 -183.05746529 143.44153238 -183 140 C-175.08 140 -167.16 140 -159 140 C-158.67 143.3 -158.34 146.6 -158 150 C-156.515 151.98 -156.515 151.98 -155 154 C-150.47148735 154.57463935 -150.47148735 154.57463935 -146.30859375 152.99609375 C-143.90391058 149.32805465 -144.56419214 144.60818303 -144.56054688 140.3359375 C-144.42966443 135.17285072 -143.60304695 132.91038489 -140 129 C-137.09910446 124.49325158 -136.80013695 121.25172471 -136.94262695 116.07373047 C-137.1980339 104.61628349 -134.38411521 98.97118918 -126.66943359 90.82958984 C-123.59737433 87.46281416 -120.89144207 83.80568769 -118.125 80.1875 C-116.93575487 78.65558273 -115.74564758 77.12433439 -114.5546875 75.59375 C-109.49968697 69.07116867 -104.49496302 62.51025309 -99.48876953 55.95019531 C-95.67501638 50.95441634 -91.846787 45.97041894 -88 41 C-87.29101562 40.071875 -86.58203125 39.14375 -85.8515625 38.1875 C-85.17867188 37.32125 -84.50578125 36.455 -83.8125 35.5625 C-83.24144531 34.82128906 -82.67039062 34.08007812 -82.08203125 33.31640625 C-75.76986916 26.29368183 -69.38942512 23.18328389 -60.5234375 19.99609375 C-59.32119537 19.55032486 -58.11895325 19.10455597 -56.88027954 18.64527893 C-53.69745267 17.46522313 -50.5084236 16.30295621 -47.31762695 15.14465332 C-44.11031484 13.97713044 -40.90883892 12.79384493 -37.70703125 11.61132812 C-31.90066782 9.46799616 -26.08907182 7.33936142 -20.27215576 5.224823 C-17.97688779 4.36566555 -15.69483057 3.470771 -13.42364502 2.54983521 C-12.26757751 2.08229828 -11.11151001 1.61476135 -9.92041016 1.13305664 C-8.88002594 0.70134659 -7.83964172 0.26963654 -6.76773071 -0.17515564 C-3.90320063 -1.02884833 -2.72436392 -1.10617605 0 0 Z " fill="#41A4F3" transform="translate(252,310)"/>
<path d="M0 0 C0.68999084 -0.0049649 1.37998169 -0.00992981 2.09088135 -0.01504517 C4.36821501 -0.02962076 6.64547896 -0.0364618 8.92285156 -0.04199219 C10.51222738 -0.04774833 12.1016032 -0.053506 13.690979 -0.05926514 C17.02315595 -0.06976266 20.35530886 -0.07561319 23.6875 -0.07910156 C27.94206445 -0.08457745 32.19630746 -0.1085912 36.45077133 -0.13707352 C39.73489283 -0.15576706 43.01893802 -0.1609091 46.30310822 -0.16243744 C47.87068688 -0.16545039 49.43826464 -0.17343273 51.00579071 -0.18662262 C70.35033852 -0.33775139 70.35033852 -0.33775139 78.06347656 7.16113281 C83.70038277 13.92542026 84.45612024 21.92779521 83.72776794 30.43963623 C83.65034866 31.28358948 83.57292938 32.12754272 83.49316406 32.99707031 C81.53577736 56.61600405 81.53577736 56.61600405 91.28613281 77.23925781 C97.01543313 83.45980035 103.51904369 88.90433081 110.28198242 93.96435547 C112.97393165 96.09041174 114.77145164 97.6364553 115.43457031 101.09863281 C115.46744141 102.11957031 115.46744141 102.11957031 115.50097656 103.16113281 C115.5409375 103.84175781 115.58089844 104.52238281 115.62207031 105.22363281 C115.06347656 107.16113281 115.06347656 107.16113281 112.91455078 108.76391602 C109.62525378 110.37589125 107.53250528 110.50796575 103.88769531 110.45410156 C102.73076172 110.44443359 101.57382813 110.43476563 100.38183594 110.42480469 C99.18365234 110.39966797 97.98546875 110.37453125 96.75097656 110.34863281 C94.92469727 110.32833008 94.92469727 110.32833008 93.06152344 110.30761719 C90.06172311 110.27232542 87.06282682 110.22301762 84.06347656 110.16113281 C84.0828125 111.98644531 84.0828125 111.98644531 84.10253906 113.84863281 C84.09245768 121.48360247 83.16404913 128.34894127 77.98754883 134.27896118 C69.87948921 142.21045111 59.84264287 141.9034706 49.25097656 141.82519531 C47.63012327 141.82857136 46.00927245 141.83343052 44.38842773 141.83969116 C41.00610031 141.84702549 37.62443713 141.83646958 34.2421875 141.81298828 C29.93154514 141.78450162 25.62245978 141.80092432 21.31187439 141.8308506 C17.96924348 141.84901772 14.62697478 141.84312287 11.28433228 141.83021164 C9.69609385 141.82690352 8.1078213 141.83087219 6.5196228 141.84260941 C-2.41740391 141.89418059 -10.45956637 141.75013232 -17.93652344 136.16113281 C-25.12192928 128.74045524 -26.23846775 121.20670703 -26.21118164 111.23779297 C-26.21629257 110.26611679 -26.2214035 109.29444061 -26.22666931 108.2933197 C-26.24051828 105.09554813 -26.239612 101.89799323 -26.23730469 98.70019531 C-26.24119429 96.46731487 -26.24552951 94.23443516 -26.25028992 92.0015564 C-26.25774212 87.32620849 -26.25746815 82.65093611 -26.25219727 77.97558594 C-26.24640517 71.99824495 -26.26333246 66.02121407 -26.28654194 60.04392433 C-26.30130781 55.43354499 -26.30214706 50.82323983 -26.29903221 46.21284103 C-26.29954402 44.00973268 -26.30475535 41.80662001 -26.31484413 39.6035347 C-26.32724588 36.51657486 -26.32039413 33.43021272 -26.30883789 30.34326172 C-26.31648163 29.44219193 -26.32412537 28.54112213 -26.33200073 27.61274719 C-26.27334452 20.48730117 -25.09934808 13.64167735 -20.68652344 7.84863281 C-14.44528054 1.74923634 -8.57845998 0.04700716 0 0 Z " fill="#73CA75" transform="translate(63.9365234375,122.8388671875)"/>
<path d="M0 0 C2.85760908 1.30456066 4.96323951 2.73254963 7.25 4.875 C14.87805683 11.57001125 22.29651884 13.13046576 32.27856445 13.20532227 C33.09859451 13.21522186 33.91862457 13.22512146 34.76350403 13.23532104 C37.46340079 13.26680953 40.16331513 13.29164327 42.86328125 13.31640625 C44.73944038 13.33698671 46.61559499 13.35798347 48.491745 13.37937927 C53.4219699 13.43448715 58.35223587 13.48394607 63.28253174 13.53222656 C68.31664673 13.58252411 73.35070234 13.63816704 78.38476562 13.69335938 C88.25645964 13.80080289 98.1282053 13.90227836 108 14 C108.06991927 23.03269178 108.12302197 32.0652885 108.15543652 41.09819317 C108.17100427 45.29383176 108.1920771 49.48928341 108.22631836 53.68481445 C108.25923278 57.74378576 108.27691961 61.80257875 108.28463173 65.86167336 C108.29011832 67.40001032 108.30082978 68.93833899 108.31719017 70.47659874 C108.51813358 90.17734309 104.30626705 106.69265722 90.75 121.44921875 C75.53761535 136.18621638 55.15882474 140.56304893 34.72265625 140.26953125 C16.62351872 139.66273936 -0.49145195 132.08475756 -13 119 C-13.55816406 118.47277344 -14.11632812 117.94554687 -14.69140625 117.40234375 C-18.33302992 113.68465483 -20.52456837 109.28534272 -22.75 104.625 C-23.04414795 104.01253418 -23.3382959 103.40006836 -23.64135742 102.76904297 C-28.36805845 92.3683843 -28.27017428 82.10813292 -28.1953125 70.93359375 C-28.1915763 69.28736036 -28.1887322 67.64112473 -28.18673706 65.99488831 C-28.17914833 61.68933838 -28.15954146 57.38392618 -28.1373291 53.07843018 C-28.11676739 48.67405052 -28.10771339 44.26964833 -28.09765625 39.86523438 C-28.07629048 31.24342681 -28.04221294 22.6217306 -28 14 C-26.68805664 13.72518799 -26.68805664 13.72518799 -25.34960938 13.44482422 C-24.19267578 13.1923291 -23.03574219 12.93983398 -21.84375 12.6796875 C-20.70099609 12.43460449 -19.55824219 12.18952148 -18.38085938 11.93701172 C-11.02970408 9.8996248 -5.01031203 5.67835363 0 0 Z " fill="#FCF0DC" transform="translate(255,125)"/>
<path d="M0 0 C1.41188047 0.00104063 2.82376384 -0.00000799 4.23564148 -0.00302124 C7.18187257 -0.00284286 10.12699706 0.01778187 13.07299805 0.05419922 C16.81156934 0.0994476 20.54852012 0.10067426 24.28728962 0.08716393 C27.2002908 0.08041279 30.11293623 0.09387864 33.02586937 0.11342239 C34.40227574 0.12101387 35.7787221 0.12347069 37.15514565 0.1202507 C54.17101123 0.11359555 68.83530004 4.97340177 81.26171875 16.7265625 C93.06909936 29.82713241 95.78495162 41.75106035 96.54272461 58.87744141 C96.5969458 59.97491699 96.65116699 61.07239258 96.70703125 62.203125 C96.74328613 63.19393066 96.77954102 64.18473633 96.81689453 65.20556641 C97.33471685 68.14027183 97.90216179 68.96613016 100.26171875 70.7265625 C101.58171875 71.3865625 102.90171875 72.0465625 104.26171875 72.7265625 C104.26171875 78.3365625 104.26171875 83.9465625 104.26171875 89.7265625 C101.29171875 91.2115625 101.29171875 91.2115625 98.26171875 92.7265625 C96.74065241 95.76869517 96.88742537 99.00703822 96.69921875 102.3515625 C96.63444336 103.41117188 96.63444336 103.41117188 96.56835938 104.4921875 C96.46227124 106.23674787 96.36148986 107.98162947 96.26171875 109.7265625 C82.04043171 109.79673234 67.81917164 109.84939003 53.59774685 109.88199902 C46.99405853 109.89765022 40.39048658 109.91887894 33.78686523 109.95288086 C27.41319193 109.98549315 21.03963051 110.00341962 14.6658802 110.01119423 C12.23502911 110.01673433 9.80418409 110.02755275 7.37338066 110.04375267 C3.96680373 110.06555125 0.56068827 110.06852833 -2.84594727 110.06713867 C-3.84936157 110.0779245 -4.85277588 110.08871033 -5.88659668 110.099823 C-13.18383096 110.06764336 -18.76721353 108.82584847 -24.48828125 103.9765625 C-25.31585938 103.30367187 -25.31585938 103.30367187 -26.16015625 102.6171875 C-30.331328 97.62004114 -31.18653702 92.24110397 -31.17407227 85.91455078 C-31.18918602 84.7935347 -31.18918602 84.7935347 -31.2046051 83.64987183 C-31.23291742 81.19871743 -31.23895282 78.74818236 -31.2421875 76.296875 C-31.2518396 74.57965856 -31.26193288 72.86244454 -31.27244568 71.14523315 C-31.29036471 67.55265589 -31.29597102 63.96029455 -31.29418945 60.36767578 C-31.29388469 55.78216591 -31.33485011 51.19805073 -31.38650608 46.61287117 C-31.41999163 43.06787861 -31.42594335 39.52321903 -31.42436028 35.97808456 C-31.42788144 34.2884935 -31.44104418 32.59889205 -31.46435738 30.90945816 C-31.66955834 14.50540856 -31.66955834 14.50540856 -26.65640259 8.50396729 C-18.38077662 0.83545492 -11.04614291 -0.16282302 0 0 Z " fill="#536D79" transform="translate(294.73828125,14.2734375)"/>
<path d="M0 0 C71.94 0 143.88 0 218 0 C218 15.84 218 31.68 218 48 C212.02555786 48.02187378 212.02555786 48.02187378 205.93041992 48.04418945 C192.79468167 48.09444731 179.6590674 48.16087508 166.52344799 48.23571491 C158.55657968 48.28070867 150.58975642 48.32011497 142.62280273 48.34643555 C135.67998872 48.36938676 128.73731688 48.40275228 121.79461557 48.44870156 C118.11740613 48.47267288 114.44033783 48.49137591 110.76305199 48.49761391 C106.66108439 48.50476723 102.55960904 48.5351677 98.45776367 48.56762695 C97.23425201 48.56619186 96.01074036 48.56475677 94.75015259 48.5632782 C93.63536026 48.57581635 92.52056793 48.58835449 91.37199402 48.60127258 C90.40134601 48.60588155 89.43069799 48.61049051 88.43063641 48.61523914 C85.56473845 49.06890031 84.70402053 49.69058994 83 52 C82.67 52.99 82.34 53.98 82 55 C79.06097651 55.13481759 76.12810441 55.23399416 73.1875 55.3125 C71.93743164 55.3753418 71.93743164 55.3753418 70.66210938 55.43945312 C68.34058232 55.48607013 66.27282729 55.48197528 64 55 C62.05078125 52.54296875 62.05078125 52.54296875 61 50 C58.35579883 48.67789941 56.31800385 48.83877878 53.35693359 48.79467773 C52.17586029 48.77473251 50.99478699 48.75478729 49.77792358 48.73423767 C47.85757797 48.70916893 47.85757797 48.70916893 45.8984375 48.68359375 C43.93833237 48.6524221 43.93833237 48.6524221 41.93862915 48.62062073 C38.463311 48.56540706 34.98793347 48.51599475 31.51251221 48.46777344 C27.9666211 48.41755323 24.42081521 48.36192277 20.875 48.30664062 C13.91673179 48.19855498 6.95841703 48.09952696 0 48 C0 32.16 0 16.32 0 0 Z " fill="#FEC927" transform="translate(178,418)"/>
<path d="M0 0 C0.68999084 -0.0049649 1.37998169 -0.00992981 2.09088135 -0.01504517 C4.36821501 -0.02962076 6.64547896 -0.0364618 8.92285156 -0.04199219 C10.51222738 -0.04774833 12.1016032 -0.053506 13.690979 -0.05926514 C17.02315595 -0.06976266 20.35530886 -0.07561319 23.6875 -0.07910156 C27.94206445 -0.08457745 32.19630746 -0.1085912 36.45077133 -0.13707352 C39.73489283 -0.15576706 43.01893802 -0.1609091 46.30310822 -0.16243744 C47.87068688 -0.16545039 49.43826464 -0.17343273 51.00579071 -0.18662262 C70.35033852 -0.33775139 70.35033852 -0.33775139 78.06347656 7.16113281 C83.70038277 13.92542026 84.45612024 21.92779521 83.72776794 30.43963623 C83.65034866 31.28358948 83.57292938 32.12754272 83.49316406 32.99707031 C81.53577736 56.61600405 81.53577736 56.61600405 91.28613281 77.23925781 C97.01543313 83.45980035 103.51904369 88.90433081 110.28198242 93.96435547 C112.97393165 96.09041174 114.77145164 97.6364553 115.43457031 101.09863281 C115.46744141 102.11957031 115.46744141 102.11957031 115.50097656 103.16113281 C115.5409375 103.84175781 115.58089844 104.52238281 115.62207031 105.22363281 C115.06347656 107.16113281 115.06347656 107.16113281 112.91455078 108.76391602 C109.62525378 110.37589125 107.53250528 110.50796575 103.88769531 110.45410156 C102.73076172 110.44443359 101.57382813 110.43476563 100.38183594 110.42480469 C99.18365234 110.39966797 97.98546875 110.37453125 96.75097656 110.34863281 C94.92469727 110.32833008 94.92469727 110.32833008 93.06152344 110.30761719 C90.06172311 110.27232542 87.06282682 110.22301762 84.06347656 110.16113281 C84.0828125 111.98644531 84.0828125 111.98644531 84.10253906 113.84863281 C84.09245768 121.48360247 83.16404913 128.34894127 77.98754883 134.27896118 C69.87948921 142.21045111 59.84264287 141.9034706 49.25097656 141.82519531 C47.63012327 141.82857136 46.00927245 141.83343052 44.38842773 141.83969116 C41.00610031 141.84702549 37.62443713 141.83646958 34.2421875 141.81298828 C29.93154514 141.78450162 25.62245978 141.80092432 21.31187439 141.8308506 C17.96924348 141.84901772 14.62697478 141.84312287 11.28433228 141.83021164 C9.69609385 141.82690352 8.1078213 141.83087219 6.5196228 141.84260941 C-2.41740391 141.89418059 -10.45956637 141.75013232 -17.93652344 136.16113281 C-25.12192928 128.74045524 -26.23846775 121.20670703 -26.21118164 111.23779297 C-26.21629257 110.26611679 -26.2214035 109.29444061 -26.22666931 108.2933197 C-26.24051828 105.09554813 -26.239612 101.89799323 -26.23730469 98.70019531 C-26.24119429 96.46731487 -26.24552951 94.23443516 -26.25028992 92.0015564 C-26.25774212 87.32620849 -26.25746815 82.65093611 -26.25219727 77.97558594 C-26.24640517 71.99824495 -26.26333246 66.02121407 -26.28654194 60.04392433 C-26.30130781 55.43354499 -26.30214706 50.82323983 -26.29903221 46.21284103 C-26.29954402 44.00973268 -26.30475535 41.80662001 -26.31484413 39.6035347 C-26.32724588 36.51657486 -26.32039413 33.43021272 -26.30883789 30.34326172 C-26.31648163 29.44219193 -26.32412537 28.54112213 -26.33200073 27.61274719 C-26.27334452 20.48730117 -25.09934808 13.64167735 -20.68652344 7.84863281 C-14.44528054 1.74923634 -8.57845998 0.04700716 0 0 Z M-8.32920837 17.59059143 C-10.79951828 21.54130028 -10.50233086 25.23447892 -10.4699707 29.80737305 C-10.47858627 30.78503632 -10.48720184 31.76269958 -10.49607849 32.76998901 C-10.51879116 36.00350377 -10.5119894 39.23615555 -10.50292969 42.46972656 C-10.50816311 44.71647907 -10.51443855 46.96322937 -10.52171326 49.2099762 C-10.53212744 53.92011855 -10.52754148 58.62995898 -10.51293945 63.34008789 C-10.49575521 69.37755478 -10.51923798 75.41406969 -10.55442905 81.45143032 C-10.57638544 86.09172376 -10.57496568 90.73178885 -10.56666374 95.372118 C-10.56584317 97.5980744 -10.57272668 99.8240474 -10.58743477 102.04995537 C-10.60484637 105.16239867 -10.59036498 108.27312402 -10.56762695 111.38549805 C-10.57931915 112.30566208 -10.59101135 113.22582611 -10.60305786 114.1738739 C-10.53869731 118.50183303 -10.32830795 120.59408013 -7.81298828 124.23464966 C-4.33663552 126.56290166 -2.4441718 126.77858164 1.71801758 126.76049805 C2.36581177 126.76444077 3.01360596 126.76838348 3.68103027 126.77244568 C5.81061535 126.77912896 7.93802916 126.75005842 10.06738281 126.71972656 C11.55280645 126.71547337 13.03823674 126.71314754 14.52366638 126.71266174 C17.63156413 126.70650558 20.73873853 126.68385075 23.84643555 126.64819336 C27.82671895 126.60288187 31.80634867 126.58816472 35.78686619 126.58445644 C38.85213139 126.58002455 41.91725993 126.56471557 44.98246574 126.54557991 C46.45005103 126.53671208 47.91765081 126.52997512 49.38525581 126.52541924 C51.43652892 126.51635933 53.48721633 126.49395557 55.53833008 126.4675293 C56.70461441 126.4568895 57.87089874 126.44624969 59.07252502 126.43528748 C61.97841872 126.16892933 63.6444647 125.74753541 66.06347656 124.16113281 C68.04877365 121.22513007 68.32074652 118.77861808 68.37207031 115.28222656 C68.39720703 114.36119141 68.42234375 113.44015625 68.44824219 112.49121094 C68.48346841 110.55898767 68.51470276 108.6266876 68.54199219 106.69433594 C68.56841797 105.77458984 68.59484375 104.85484375 68.62207031 103.90722656 C68.6355249 103.06861084 68.64897949 102.22999512 68.6628418 101.3659668 C69.15596313 98.65214673 69.84212296 97.76639549 72.06347656 96.16113281 C74.8559924 95.78438763 77.45126858 95.55921341 80.25097656 95.47363281 C81.00056641 95.43947266 81.75015625 95.4053125 82.52246094 95.37011719 C84.36894494 95.28778988 86.2161865 95.22278001 88.06347656 95.16113281 C86.64426904 91.92018216 84.93039408 89.80277776 82.40332031 87.34082031 C81.69240234 86.64085937 80.98148437 85.94089844 80.24902344 85.21972656 C79.50716797 84.49914062 78.7653125 83.77855469 78.00097656 83.03613281 C76.52874463 81.5982572 75.05858501 80.15825573 73.59082031 78.71582031 C72.93847412 78.08144043 72.28612793 77.44706055 71.61401367 76.79345703 C68.9077645 73.94445972 68.93600781 71.95451289 68.92163086 68.13232422 C68.91107918 66.56026718 68.91107918 66.56026718 68.90031433 64.95645142 C68.89406792 63.25179214 68.89406792 63.25179214 68.88769531 61.51269531 C68.86450023 59.12206148 68.84038303 56.73143644 68.81542969 54.34082031 C68.78027186 50.55951018 68.7509496 46.77852421 68.73754883 42.99707031 C68.72210867 39.35604339 68.68192398 35.71597123 68.63769531 32.07519531 C68.63960373 30.94280426 68.64151215 29.81041321 68.64347839 28.64370728 C68.62698746 27.58936493 68.61049652 26.53502258 68.59350586 25.44873047 C68.58763962 24.52210602 68.58177338 23.59548157 68.57572937 22.64077759 C67.88180331 19.28171328 66.85042083 18.1432592 64.06347656 16.16113281 C60.86795387 15.5550859 60.86795387 15.5550859 57.24707031 15.64355469 C56.231707 15.63304077 56.231707 15.63304077 55.1958313 15.62231445 C52.96379269 15.60474457 50.7330275 15.61635209 48.50097656 15.62988281 C46.94685625 15.62718757 45.39273759 15.62330488 43.83862305 15.61828613 C40.58365807 15.61239251 37.32913258 15.62094915 34.07421875 15.63964844 C29.90424112 15.66243854 25.73529325 15.64931464 21.56535339 15.62535858 C18.35681413 15.61089657 15.14851857 15.6155083 11.93997192 15.62586975 C10.40259682 15.62853595 8.86519951 15.62527097 7.32785034 15.61595154 C5.17793271 15.60577852 3.02967681 15.62129393 0.87988281 15.64355469 C-0.3427124 15.64673706 -1.56530762 15.64991943 -2.82495117 15.65319824 C-5.94389406 15.96647857 -5.94389406 15.96647857 -8.32920837 17.59059143 Z " fill="#000100" transform="translate(63.9365234375,122.8388671875)"/>
<path d="M0 0 C5.94 0 11.88 0 18 0 C18.99 2.475 18.99 2.475 20 5 C22.59258816 7.59258816 23.64207256 7.25792451 27.2517395 7.2784729 C28.36515717 7.28963638 29.47857483 7.30079987 30.62573242 7.31230164 C31.85283936 7.31446182 33.07994629 7.31662201 34.34423828 7.31884766 C35.63200165 7.32889328 36.91976501 7.3389389 38.24655151 7.34928894 C41.78349763 7.37665482 45.32040377 7.39175772 48.85742807 7.40471697 C52.55171719 7.42031882 56.24592432 7.44711835 59.94015503 7.4727478 C66.9382528 7.51958794 73.93636591 7.55630662 80.93454063 7.58942068 C88.90062867 7.62760517 96.86663449 7.67702489 104.83265328 7.72740483 C121.22171087 7.83080251 137.61081309 7.91963877 154 8 C154 13.28 154 18.56 154 24 C82.06 24 10.12 24 -64 24 C-64 18.72 -64 13.44 -64 8 C-62.23366211 7.9906543 -60.46732422 7.98130859 -58.64746094 7.97167969 C-52.8078784 7.93614184 -46.96861738 7.88233725 -41.12931442 7.81609726 C-37.58928335 7.77660745 -34.04950156 7.74442683 -30.50927734 7.72900391 C-26.43807057 7.71094629 -22.36779546 7.66100275 -18.296875 7.609375 C-17.02696716 7.60814636 -15.75705933 7.60691772 -14.44866943 7.60565186 C-13.26774719 7.58593323 -12.08682495 7.5662146 -10.87011719 7.54589844 C-9.83087097 7.53701599 -8.79162476 7.52813354 -7.72088623 7.51898193 C-4.29855632 6.86620661 -3.13095138 5.70624151 -1 3 C-0.67 2.01 -0.34 1.02 0 0 Z " fill="#42A4F4" transform="translate(242,473)"/>
<path d="M0 0 C0.75410156 0.00322266 1.50820312 0.00644531 2.28515625 0.00976562 C3.06246094 0.01814453 3.83976562 0.02652344 4.640625 0.03515625 C5.43339844 0.03966797 6.22617188 0.04417969 7.04296875 0.04882812 C8.99222008 0.0605706 10.94143238 0.07850479 12.890625 0.09765625 C12.9836136 8.0432264 13.05453499 15.98856634 13.09787369 23.93454742 C13.1186821 27.6248558 13.14687419 31.31478983 13.19238281 35.00488281 C13.23608443 38.57107686 13.25981276 42.13691256 13.27013397 45.70335388 C13.28103994 47.71515737 13.31222691 49.72681821 13.34381104 51.73840332 C13.34582413 60.00524674 12.66035176 65.63939493 7.1796875 72.12109375 C6.63054687 72.56710938 6.08140625 73.013125 5.515625 73.47265625 C4.69964844 74.16488281 4.69964844 74.16488281 3.8671875 74.87109375 C-1.12173993 77.96698943 -5.92830782 78.33910479 -11.6953125 78.29296875 C-12.39709625 78.29013885 -13.09888 78.28730896 -13.82192993 78.28439331 C-16.04292528 78.27328137 -18.26350345 78.24819459 -20.484375 78.22265625 C-21.99869205 78.21261479 -23.51301549 78.20349098 -25.02734375 78.1953125 C-28.72148758 78.17337179 -32.41539051 78.138905 -36.109375 78.09765625 C-36.23719434 71.48165759 -36.32414905 64.86598261 -36.3840332 58.24902344 C-36.40902339 56.00280865 -36.44302735 53.75667389 -36.48657227 51.51074219 C-37.01898787 23.32403351 -37.01898787 23.32403351 -25.9921875 11.84375 C-18.6496864 5.03441807 -10.34015459 -0.0783345 0 0 Z " fill="#536D79" transform="translate(235.109375,45.90234375)"/>
<path d="M0 0 C1.15139465 -0.01891296 1.15139465 -0.01891296 2.3260498 -0.03820801 C3.14593384 -0.03011108 3.96581787 -0.02201416 4.81054688 -0.01367188 C6.08629578 -0.01941223 6.08629578 -0.01941223 7.38781738 -0.02526855 C9.18319891 -0.02798646 10.97862012 -0.0206337 12.77392578 -0.00390625 C15.5201048 0.01750645 18.26366785 -0.00371059 21.00976562 -0.02929688 C22.75586514 -0.02665358 24.50196303 -0.02152855 26.24804688 -0.01367188 C27.06793091 -0.0217688 27.88781494 -0.02986572 28.73254395 -0.03820801 C32.38343536 0.02176203 34.44902883 0.14132105 37.5625 2.16015625 C39.46520417 5.21816415 39.43472579 7.19271301 39.27929688 10.76757812 C39.24320313 11.84523438 39.20710938 12.92289062 39.16992188 14.03320312 C39.12351563 14.85304688 39.07710937 15.67289062 39.02929688 16.51757812 C38.22709717 16.53216064 37.42489746 16.54674316 36.59838867 16.56176758 C32.97069988 16.63614532 29.34394184 16.73284055 25.71679688 16.83007812 C23.8228418 16.86391602 23.8228418 16.86391602 21.890625 16.8984375 C20.68212891 16.93388672 19.47363281 16.96933594 18.22851562 17.00585938 C17.11307373 17.03204346 15.99763184 17.05822754 14.84838867 17.08520508 C12.03567976 17.29664142 12.03567976 17.29664142 10.16918945 18.8659668 C8.35317053 21.49723002 8.58601043 23.41457303 9.02929688 26.51757812 C11.16998646 29.31557488 12.37575494 30.39199203 15.87011719 31.06347656 C17.47258301 31.09489746 17.47258301 31.09489746 19.10742188 31.12695312 C20.84765625 31.17529297 20.84765625 31.17529297 22.62304688 31.22460938 C24.43289062 31.24587891 24.43289062 31.24587891 26.27929688 31.26757812 C27.50132813 31.29722656 28.72335938 31.326875 29.98242188 31.35742188 C32.99769132 31.42809225 36.01349848 31.47510209 39.02929688 31.51757812 C39.02929688 36.79757812 39.02929688 42.07757813 39.02929688 47.51757812 C37.11503906 47.55496094 35.20078125 47.59234375 33.22851562 47.63085938 C30.72458933 47.69650538 28.22068396 47.76295318 25.71679688 47.83007812 C23.8228418 47.86391602 23.8228418 47.86391602 21.890625 47.8984375 C20.68212891 47.93388672 19.47363281 47.96933594 18.22851562 48.00585938 C17.11307373 48.03204346 15.99763184 48.05822754 14.84838867 48.08520508 C12.03567976 48.29664142 12.03567976 48.29664142 10.16918945 49.8659668 C8.35317053 52.49723002 8.58601043 54.41457303 9.02929688 57.51757812 C11.16998646 60.31557488 12.37575494 61.39199203 15.87011719 62.06347656 C17.47258301 62.09489746 17.47258301 62.09489746 19.10742188 62.12695312 C20.84765625 62.17529297 20.84765625 62.17529297 22.62304688 62.22460938 C23.82960938 62.23878906 25.03617188 62.25296875 26.27929688 62.26757812 C27.50132813 62.29722656 28.72335938 62.326875 29.98242188 62.35742188 C32.99811331 62.42810214 36.01303237 62.48080987 39.02929688 62.51757812 C39.11072615 64.26679953 39.16868229 66.01712355 39.21679688 67.76757812 C39.26900391 69.229375 39.26900391 69.229375 39.32226562 70.72070312 C38.98448865 73.9453473 38.28458926 75.22548609 36.02929688 77.51757812 C30.13982275 79.48073617 23.39485937 78.82463209 17.21459961 78.86767578 C15.46771955 78.88426163 13.72090807 78.91158642 11.97436523 78.94970703 C9.45195437 79.00444375 6.93112761 79.02633933 4.40820312 79.04101562 C3.6289296 79.063685 2.84965607 79.08635437 2.04676819 79.10971069 C-1.60339837 79.09547512 -3.48974952 78.97754041 -6.17604065 76.40849304 C-8.36182897 72.88753679 -8.47736497 70.80467393 -8.48828125 66.67944336 C-8.49529053 66.01214203 -8.5022998 65.3448407 -8.50952148 64.65731812 C-8.52705157 62.46317283 -8.51549951 60.27032905 -8.50195312 58.07617188 C-8.5046492 56.54590102 -8.50853258 55.01563183 -8.5135498 53.48536682 C-8.51943776 50.28345374 -8.51090395 47.08198793 -8.4921875 43.88012695 C-8.46937835 39.77855373 -8.48253685 35.67802638 -8.50647736 31.57649136 C-8.52093828 28.41856518 -8.51632848 25.26088663 -8.50596619 22.10295296 C-8.50330068 20.59069761 -8.50656252 19.07841968 -8.5158844 17.56619072 C-8.52605786 15.45229475 -8.51054257 13.34008859 -8.48828125 11.22631836 C-8.48509888 10.02450424 -8.4819165 8.82269012 -8.4786377 7.5844574 C-7.65986319 2.64074476 -5.0650803 0.02399073 0 0 Z " fill="#FCF0DB" transform="translate(61.970703125,356.482421875)"/>
<path d="M0 0 C1.33611328 0.44859375 1.33611328 0.44859375 2.69921875 0.90625 C5.3965697 1.80004677 8.09483435 2.67072889 10.8125 3.5 C11.58207031 3.7371875 12.35164063 3.974375 13.14453125 4.21875 C20.55100195 6.24514417 27.36280025 7.36135049 35.0625 7.3125 C35.97499512 7.30831055 36.88749023 7.30412109 37.82763672 7.29980469 C50.18534037 7.09675904 61.52513829 4.67025511 73 0 C74.88605088 19.33927557 74.88605088 19.33927557 71.99951172 24.94189453 C68.99523172 28.52168084 65.00883613 30.71323667 61 33 C59.15207535 34.33418626 57.31795374 35.68775542 55.5 37.0625 C54.61054688 37.69027344 53.72109375 38.31804687 52.8046875 38.96484375 C50.75076866 40.45522219 48.78391197 41.96571038 46.8203125 43.56640625 C46.28728516 43.99236084 45.75425781 44.41831543 45.20507812 44.85717773 C43.70289359 46.06249978 42.21431807 47.28472503 40.7265625 48.5078125 C38 50 38 50 35.671875 49.64453125 C30.89149772 46.70222301 26.60038453 43.16671355 22.24853516 39.63256836 C18.45071639 36.58059922 14.77475377 33.76255963 10.484375 31.4375 C2.34530464 26.8555607 2.34530464 26.8555607 0 23 C-1.75054069 15.4671242 -0.93481591 7.60604573 0 0 Z " fill="#FCD0A3" transform="translate(258,274)"/>
<path d="M0 0 C-0.33 0.33 -0.66 0.66 -1 1 C-1.12156876 3.34903968 -1.17857925 5.66922391 -1.19287109 8.01977539 C-1.20104858 8.75499924 -1.20922607 9.49022308 -1.21765137 10.24772644 C-1.24258962 12.69769478 -1.25905894 15.14760406 -1.2734375 17.59765625 C-1.27876118 18.43730864 -1.28408485 19.27696102 -1.28956985 20.14205742 C-1.31636095 24.6019385 -1.33570087 29.06179127 -1.35009766 33.52172852 C-1.36333945 37.18898001 -1.39099919 40.85566211 -1.43212891 44.52270508 C-1.4819567 48.96545276 -1.50628195 53.40769102 -1.51332474 57.8507061 C-1.5199667 59.531728 -1.53500004 61.21274177 -1.55921555 62.89360237 C-1.84249706 83.77992623 4.31354052 100.44294944 18.8125 115.8984375 C21.68860921 118.66155671 24.64110114 120.85602201 28 123 C27.01 123.495 27.01 123.495 26 124 C23.41124926 122.9657094 20.98454492 121.87293588 18.5 120.625 C17.77893066 120.262854 17.05786133 119.90070801 16.31494141 119.52758789 C9.97902593 116.21501987 4.94528197 112.17308766 0 107 C-0.55816406 106.47277344 -1.11632812 105.94554687 -1.69140625 105.40234375 C-5.33302992 101.68465483 -7.52456837 97.28534272 -9.75 92.625 C-10.04414795 92.01253418 -10.3382959 91.40006836 -10.64135742 90.76904297 C-15.36805845 80.3683843 -15.27017428 70.10813292 -15.1953125 58.93359375 C-15.1915763 57.28736036 -15.1887322 55.64112473 -15.18673706 53.99488831 C-15.17914833 49.68933838 -15.15954146 45.38392618 -15.1373291 41.07843018 C-15.11676739 36.67405052 -15.10771339 32.26964833 -15.09765625 27.86523438 C-15.07629048 19.24342681 -15.04221294 10.6217306 -15 2 C-12.87707704 1.47076428 -10.75157949 0.95184623 -8.625 0.4375 C-7.44164062 0.14746094 -6.25828125 -0.14257812 -5.0390625 -0.44140625 C-2 -1 -2 -1 0 0 Z " fill="#FBE2C0" transform="translate(242,137)"/>
<path d="M0 0 C-0.39832031 0.4846875 -0.79664063 0.969375 -1.20703125 1.46875 C-2.00173828 2.47421875 -2.00173828 2.47421875 -2.8125 3.5 C-3.33457031 4.1496875 -3.85664063 4.799375 -4.39453125 5.46875 C-8.16650669 11.41580616 -9.37549227 16.84044136 -9.40405273 23.81787109 C-9.41091599 24.55400131 -9.41777924 25.29013153 -9.42485046 26.04856873 C-9.44299684 28.45706036 -9.43929817 30.86489287 -9.43359375 33.2734375 C-9.43816186 34.96440845 -9.4434693 36.65537755 -9.44947815 38.34634399 C-9.45838574 41.8816891 -9.45601362 45.41680804 -9.44604492 48.95214844 C-9.43456654 53.45990271 -9.45476107 57.96687227 -9.48396206 62.47452354 C-9.50240008 65.96463904 -9.50201641 69.45456919 -9.49632454 72.94472122 C-9.49617221 74.60553716 -9.50214289 76.26636637 -9.51461601 77.92713547 C-9.59177658 89.8851173 -8.24432055 99.16842211 -1 109 C-7.96404906 108.75128396 -11.96359007 106.82423301 -17 102 C-21.29452931 96.8515153 -22.1545976 92.18296879 -22.20874023 85.64208984 C-22.21852402 84.8953299 -22.2283078 84.14856995 -22.23838806 83.37918091 C-22.26831213 80.90645111 -22.28972326 78.43377549 -22.30859375 75.9609375 C-22.31516558 75.11438221 -22.3217374 74.26782692 -22.32850838 73.39561844 C-22.36109451 68.91138632 -22.38554295 64.42717783 -22.4050293 59.94287109 C-22.42281338 56.24134484 -22.45758712 52.54058457 -22.50756836 48.83935547 C-22.56795521 44.36188901 -22.59853053 39.88513042 -22.60820198 35.40727615 C-22.61672913 33.70648587 -22.63547938 32.0057131 -22.6649456 30.30515671 C-22.92793678 14.25871736 -22.92793678 14.25871736 -17.54090881 7.55570984 C-12.8011424 2.77041613 -6.96382267 -1.09955095 0 0 Z " fill="#42575F" transform="translate(286,15)"/>
<path d="M0 0 C0 0.66 0 1.32 0 2 C-0.69738281 2.53753906 -1.39476562 3.07507813 -2.11328125 3.62890625 C-5.79386743 6.65206703 -8.36128153 10.12883617 -11.1875 13.9375 C-12.3487896 15.47929377 -13.51024936 17.0209594 -14.671875 18.5625 C-15.23970703 19.32046875 -15.80753906 20.0784375 -16.39257812 20.859375 C-18.5525551 23.73584495 -20.7421547 26.58791272 -22.9375 29.4375 C-23.73285156 30.47132813 -24.52820313 31.50515625 -25.34765625 32.5703125 C-27.32639465 35.13407582 -29.31578598 37.68934673 -31.30859375 40.2421875 C-40.71557 52.28738887 -40.71557 52.28738887 -49.8581543 64.53369141 C-51.95190383 67.38592193 -53.97527194 69.97534958 -56.48828125 72.48046875 C-62.1681558 78.18052048 -62.6365858 83.0465797 -62.8125 90.8125 C-62.80500732 91.73313232 -62.79751465 92.65376465 -62.78979492 93.60229492 C-62.74060673 100.07676515 -63.62064155 103.32322174 -68 108.25 C-71.71879734 111.50394768 -75.26507496 111.08933821 -80 111 C-79.7119751 110.46270264 -79.4239502 109.92540527 -79.12719727 109.37182617 C-76.15707324 103.37928948 -75.71918849 98.9004845 -75.9375 92.3125 C-75.8118162 82.04044774 -72.55575389 77.09698771 -65.66943359 69.82958984 C-62.59737433 66.46281416 -59.89144207 62.80568769 -57.125 59.1875 C-55.93575487 57.65558273 -54.74564758 56.12433439 -53.5546875 54.59375 C-48.49968697 48.07116867 -43.49496302 41.51025309 -38.48876953 34.95019531 C-34.67501638 29.95441634 -30.846787 24.97041894 -27 20 C-26.29101562 19.071875 -25.58203125 18.14375 -24.8515625 17.1875 C-18.77141581 9.36018473 -10.94076677 0 0 0 Z " fill="#0591F8" transform="translate(191,331)"/>
<path d="M0 0 C2.5625 2.125 2.5625 2.125 4 5 C4.08861013 10.4918258 1.51203186 13.11961166 -2.0919342 16.86361694 C-2.80538498 17.57635773 -3.51883575 18.28909851 -4.25390625 19.0234375 C-4.98818344 19.76961334 -5.72246063 20.51578918 -6.47898865 21.28457642 C-8.03367131 22.85578304 -9.5949702 24.42046678 -11.16235352 25.97900391 C-13.55279255 28.36530934 -15.90650158 30.78412654 -18.25976562 33.20703125 C-19.77652964 34.7312754 -21.29534466 36.25348193 -22.81640625 37.7734375 C-23.51568741 38.49832367 -24.21496857 39.22320984 -24.93544006 39.97006226 C-28.17143559 43.13179188 -30.56279783 45.43917925 -35.21875 45.68237305 C-39.31551769 44.94306095 -40.7890151 44.21837051 -43.68359375 41.30859375 C-44.46541016 40.52806641 -45.24722656 39.74753906 -46.05273438 38.94335938 C-46.83970703 38.11642578 -47.62667969 37.28949219 -48.4375 36.4375 C-49.25154297 35.63763672 -50.06558594 34.83777344 -50.90429688 34.01367188 C-57.3836625 27.39380291 -57.3836625 27.39380291 -58.16015625 23.09765625 C-58 20 -58 20 -56 17 C-53 15 -53 15 -49.65234375 15.05859375 C-45.26801692 16.18867157 -43.60950223 17.76505924 -40.5625 21.0625 C-39.69753906 21.98160156 -38.83257812 22.90070313 -37.94140625 23.84765625 C-37.30074219 24.55792969 -36.66007812 25.26820313 -36 26 C-32.01443366 24.42096771 -29.49981991 21.62520063 -26.640625 18.5546875 C-25.59727541 17.46656384 -24.55297442 16.37935176 -23.5078125 15.29296875 C-21.87449665 13.58550055 -20.24819699 11.8730643 -18.63769531 10.14404297 C-17.07367375 8.47062588 -15.48502461 6.82411794 -13.890625 5.1796875 C-13.1839267 4.40164261 -13.1839267 4.40164261 -12.46295166 3.60787964 C-8.34389435 -0.57344765 -5.55871642 -0.66925056 0 0 Z " fill="#010201" transform="translate(120,171)"/>
<path d="M0 0 C4.22928954 1.28389147 5.3134152 2.25622275 7.5 6.0625 C7.84710814 7.40821154 8.15811154 8.76361625 8.4375 10.125 C9.11134957 13.19798642 9.51237734 14.07664553 11.6875 16.5625 C15.27917314 18.47805901 17.47635804 18.56545525 21.5 18.0625 C24.2776911 16.82797062 25.93687431 15.86273125 27.6875 13.375 C28.43660004 11.24294603 28.90241386 9.20540199 29.375 7 C30.02190662 4.35311489 30.42861103 3.14975318 32.1875 1 C35.64329209 -0.40099679 37.94846988 0.09390088 41.5 1.0625 C44.40238387 3.40313215 44.48910793 4.97225143 44.9375 8.6875 C44.63002701 15.56720813 41.9890273 21.84352659 37.375 26.9375 C31.0828999 32.60039009 23.63420202 34.84845277 15.2421875 34.515625 C6.47809565 33.06742749 0.38332936 27.98703162 -4.75 21 C-7.91940709 15.67992381 -8.20786006 10.16020879 -7.5 4.0625 C-5.32567696 0.32266438 -4.31835902 0.07711355 0 0 Z " fill="#050504" transform="translate(276.5,201.9375)"/>
<path d="M0 0 C0.89203125 0.03609375 1.7840625 0.0721875 2.703125 0.109375 C3.71632813 0.17898438 3.71632813 0.17898438 4.75 0.25 C4.58766876 0.76875702 4.42533752 1.28751404 4.25808716 1.82199097 C3.60276505 4.95359539 3.62267811 7.89739029 3.62060547 11.09814453 C3.61885315 11.77826599 3.61710083 12.45838745 3.61529541 13.15911865 C3.61090481 15.40037611 3.61380438 17.64155428 3.6171875 19.8828125 C3.61651382 21.44172175 3.61554325 23.0006309 3.61428833 24.55953979 C3.61281528 27.82274376 3.61495391 31.08592032 3.61962891 34.34912109 C3.62533544 38.53689814 3.62203888 42.72461122 3.61605644 46.91238594 C3.61244832 50.1293486 3.61359041 53.34629601 3.61618423 56.56325912 C3.61685232 58.10786827 3.61602921 59.65247879 3.61370468 61.19708633 C3.61117303 63.35164325 3.61502556 65.50609544 3.62060547 67.66064453 C3.62140106 68.88768097 3.62219666 70.11471741 3.62301636 71.37893677 C3.55226137 74.19390277 3.55226137 74.19390277 4.75 76.25 C18.115 76.745 18.115 76.745 31.75 77.25 C31.75 77.58 31.75 77.91 31.75 78.25 C26.55396196 78.37369707 21.35878256 78.46438309 16.16162109 78.5246582 C14.39421662 78.54978641 12.6269159 78.58389516 10.85986328 78.62719727 C8.31777351 78.68792735 5.77705835 78.71622515 3.234375 78.73828125 C2.05134796 78.77699089 2.05134796 78.77699089 0.84442139 78.81648254 C-2.83017908 78.81835668 -4.74938416 78.72789642 -7.45831299 76.14190674 C-9.63993577 72.6206167 -9.75666647 70.53534911 -9.76757812 66.41186523 C-9.7745874 65.7445639 -9.78159668 65.07726257 -9.78881836 64.38973999 C-9.80634844 62.1955947 -9.79479639 60.00275092 -9.78125 57.80859375 C-9.78394607 56.27832289 -9.78782945 54.7480537 -9.79284668 53.2177887 C-9.79873463 50.01587561 -9.79020083 46.8144098 -9.77148438 43.61254883 C-9.74867523 39.51097561 -9.76183373 35.41044825 -9.78577423 31.30891323 C-9.80023515 28.15098705 -9.79562536 24.99330851 -9.78526306 21.83537483 C-9.78259756 20.32311949 -9.78585939 18.81084156 -9.79518127 17.29861259 C-9.80535473 15.18471662 -9.78983945 13.07251047 -9.76757812 10.95874023 C-9.76439575 9.75692612 -9.76121338 8.555112 -9.75793457 7.31687927 C-8.79628834 1.51051552 -5.60671257 -0.29509014 0 0 Z " fill="#FDE4C1" transform="translate(63.25,356.75)"/>
<path d="M0 0 C-0.43570313 0.38929687 -0.87140625 0.77859375 -1.3203125 1.1796875 C-11.2375232 10.49585512 -16.76756291 22.19294075 -17.20532227 35.81201172 C-17.24679649 37.68447711 -17.28357848 39.55705056 -17.31640625 41.4296875 C-17.33718735 42.42001984 -17.35796844 43.41035217 -17.37937927 44.43069458 C-17.4445032 47.57872918 -17.50358629 50.72684367 -17.5625 53.875 C-17.60572059 56.0156331 -17.64933599 58.15625826 -17.69335938 60.296875 C-17.80014632 65.53116915 -17.90151748 70.76554328 -18 76 C-21.96 76 -25.92 76 -30 76 C-30.12452203 69.38385718 -30.21477328 62.76841137 -30.2746582 56.15136719 C-30.29964839 53.9051524 -30.33365235 51.65901764 -30.37719727 49.41308594 C-30.90961287 21.22637726 -30.90961287 21.22637726 -19.8828125 9.74609375 C-6.09011628 -3.04505814 -6.09011628 -3.04505814 0 0 Z " fill="#42575F" transform="translate(229,48)"/>
<path d="M0 0 C12.75862069 0 12.75862069 0 17 3 C22.33419453 8.76669679 22.26219412 13.70641915 22.375 21.1875 C22.41238281 22.10853516 22.44976562 23.02957031 22.48828125 23.97851562 C22.57236097 30.56008935 21.31651241 34.94646438 17 40 C11.31937368 44.32809625 7.94038417 43 0 43 C0 28.81 0 14.62 0 0 Z " fill="#F0C69B" transform="translate(377,139)"/>
<path d="M0 0 C0 14.19 0 28.38 0 43 C-12.68421053 43 -12.68421053 43 -17 39 C-21.78272488 33.54155069 -21.60709978 28.55966068 -21.5 21.5 C-21.51546875 20.48035156 -21.5309375 19.46070313 -21.546875 18.41015625 C-21.51501725 12.28550404 -21.07754002 8.65363283 -17 4 C-11.20825727 -1.36795668 -9.03722341 0 0 0 Z " fill="#F9CEA1" transform="translate(212,139)"/>
<path d="M0 0 C71.94 0 143.88 0 218 0 C218 0.33 218 0.66 218 1 C150.02 1 82.04 1 12 1 C12 16.51 12 32.02 12 48 C8.04 48 4.08 48 0 48 C0 32.16 0 16.32 0 0 Z " fill="#D39E14" transform="translate(178,418)"/>
<path d="M0 0 C4.29 0 8.58 0 13 0 C13.00410889 0.91700684 13.00821777 1.83401367 13.01245117 2.77880859 C13.03964889 6.2274794 13.08895695 9.67443914 13.15258789 13.12255859 C13.17558344 14.60617348 13.19011973 16.08994734 13.19555664 17.57373047 C13.23593448 26.78608896 13.95115128 34.01454607 19 42 C19.68036741 43.32639451 20.3515081 44.65773308 21 46 C15.80877372 45.97910975 11.31821434 45.80706664 7.125 42.5 C0.35387363 35.43872856 -0.49511336 28.07442414 -0.3515625 18.54492188 C-0.31815658 17.17577024 -0.284297 15.8066296 -0.25 14.4375 C-0.22989497 13.03322873 -0.2116513 11.62892952 -0.1953125 10.22460938 C-0.14846023 6.81610648 -0.07672708 3.40796127 0 0 Z " fill="#058FF6" transform="translate(69,450)"/>
<path d="M0 0 C4.05963304 0.84575688 5.40679371 2.42868478 8 5.625 C8.56762695 8.85473633 8.56762695 8.85473633 8.48828125 12.45703125 C8.47216797 13.74931641 8.45605469 15.04160156 8.43945312 16.37304688 C8.39768274 17.72788157 8.35535809 19.08269928 8.3125 20.4375 C8.28740069 21.81180866 8.26459036 23.18616116 8.24414062 24.56054688 C8.18527592 27.91583517 8.09559843 31.27055734 8 34.625 C2.72 34.625 -2.56 34.625 -8 34.625 C-8.11512589 30.58536041 -8.21454033 26.54992333 -8.2746582 22.50952148 C-8.29972617 21.13692898 -8.33379082 19.76446898 -8.37719727 18.39233398 C-8.43817531 16.41449304 -8.46361009 14.43565816 -8.48828125 12.45703125 C-8.51446533 11.26827393 -8.54064941 10.0795166 -8.56762695 8.85473633 C-7.6836632 3.82507765 -4.99734079 1.04111267 0 0 Z " fill="#F4B682" transform="translate(85,307.375)"/>
<path d="M0 0 C1.31871094 0.44472656 1.31871094 0.44472656 2.6640625 0.8984375 C5.5568262 1.85365924 8.45520285 2.7569522 11.375 3.625 C12.68597656 4.01558594 12.68597656 4.01558594 14.0234375 4.4140625 C15.00183594 4.70410156 15.00183594 4.70410156 16 5 C15.01 5.33 14.02 5.66 13 6 C11.98503761 13.03597793 11.43205013 20.2544284 14 27 C19.55866067 33.90919935 27.51342662 38.43756599 35 43 C37.01299225 44.31515493 39.00601169 45.65615242 41 47 C40.01 47.99 39.02 48.98 38 50 C31.82033277 48.13144449 27.17170207 43.63068162 22.24853516 39.63256836 C18.45071639 36.58059922 14.77475377 33.76255963 10.484375 31.4375 C2.34530464 26.8555607 2.34530464 26.8555607 0 23 C-1.75054069 15.4671242 -0.93481591 7.60604573 0 0 Z " fill="#F4B580" transform="translate(258,274)"/>
<path d="M0 0 C2.86616903 2.74845137 3.90966148 4.42608467 4.53125 8.375 C4.5209375 9.57125 4.510625 10.7675 4.5 12 C4.5103125 13.19625 4.520625 14.3925 4.53125 15.625 C3.90966148 19.57391533 2.86616903 21.25154863 0 24 C-3.84571127 24.61806074 -5.95568982 24.73288196 -9.1875 22.46484375 C-11.6788481 19.0768251 -11.58789618 16.04322406 -11.5 12 C-11.51546875 11.2884375 -11.5309375 10.576875 -11.546875 9.84375 C-11.52100226 6.37680299 -11.26149078 4.35560492 -9.1875 1.53515625 C-5.95568982 -0.73288196 -3.84571127 -0.61806074 0 0 Z " fill="#060505" transform="translate(331,152)"/>
<path d="M0 0 C2.1875 1.53125 2.1875 1.53125 4 4 C4.40100915 6.83065284 4.56122899 9.18346659 4.5 12 C4.51546875 12.7115625 4.5309375 13.423125 4.546875 14.15625 C4.52100226 17.62319701 4.26149078 19.64439508 2.1875 22.46484375 C-1.04431018 24.73288196 -3.15428873 24.61806074 -7 24 C-10.00408864 21.16757356 -10.92876359 19.48660756 -11.53125 15.37109375 C-11.5209375 14.07300781 -11.510625 12.77492187 -11.5 11.4375 C-11.5103125 10.13683594 -11.520625 8.83617187 -11.53125 7.49609375 C-11 4 -11 4 -9.1875 1.56640625 C-5.98770646 -0.72487448 -3.83579451 -0.54797064 0 0 Z " fill="#040404" transform="translate(266,152)"/>
<path d="M0 0 C2.375 0.3125 2.375 0.3125 5 1 C7.39112209 4.58668313 7.23381027 6.16396569 7.1953125 10.41796875 C7.18564453 12.29838867 7.18564453 12.29838867 7.17578125 14.21679688 C7.15902344 15.52712891 7.14226562 16.83746094 7.125 18.1875 C7.11496639 19.52277987 7.1058412 20.85806689 7.09765625 22.19335938 C7.07405292 25.46242015 7.04112594 28.73112028 7 32 C4.36 32 1.72 32 -1 32 C-1.02469321 27.7641643 -1.04285671 23.52836658 -1.05493164 19.29248047 C-1.05996474 17.8510668 -1.06679173 16.40965824 -1.07543945 14.96826172 C-1.08754983 12.89809915 -1.09323847 10.82800399 -1.09765625 8.7578125 C-1.10289307 7.5114502 -1.10812988 6.26508789 -1.11352539 4.98095703 C-1 2 -1 2 0 0 Z " fill="#FCD0A2" transform="translate(86,309)"/>
<path d="M0 0 C4.29 0 8.58 0 13 0 C13 5.28 13 10.56 13 16 C8.71 16 4.42 16 0 16 C0 10.72 0 5.44 0 0 Z " fill="#0792FA" transform="translate(178,481)"/>
<path d="M0 0 C1.36125 0.3403125 1.36125 0.3403125 2.75 0.6875 C-1.52121039 5.21652993 -6.26061592 8.95730474 -11.1875 12.75 C-12.36602539 13.66749023 -12.36602539 13.66749023 -13.56835938 14.60351562 C-25.41714406 23.77516905 -25.41714406 23.77516905 -28.625 23.4375 C-29.16125 23.19 -29.6975 22.9425 -30.25 22.6875 C-28.76424095 18.99457585 -26.76401046 17.26436689 -23.6015625 14.90234375 C-22.21710938 13.85916992 -22.21710938 13.85916992 -20.8046875 12.79492188 C-19.83789062 12.07884766 -18.87109375 11.36277344 -17.875 10.625 C-16.43640625 9.54508789 -16.43640625 9.54508789 -14.96875 8.44335938 C-12.40106127 6.51759283 -9.82645651 4.60150795 -7.25 2.6875 C-6.20851807 1.82233765 -6.20851807 1.82233765 -5.14599609 0.93969727 C-3.25 -0.3125 -3.25 -0.3125 0 0 Z " fill="#068DF2" transform="translate(342.25,309.3125)"/>
</svg>
