<?xml version="1.0" encoding="UTF-8"?>
<svg version="1.1" xmlns="http://www.w3.org/2000/svg" width="512" height="512">
<path d="M0 0 C0.825 0.66 1.65 1.32 2.5 2 C3.29792969 2.5878125 4.09585938 3.175625 4.91796875 3.78125 C15.44176495 12.82439106 21.59528995 28.80252606 28.38671875 40.7734375 C32.03989448 47.21256404 35.75588826 53.61327073 39.5 60 C45.01727848 69.41775172 50.44502208 78.88391623 55.84130859 88.37127686 C60.46518717 96.49840575 65.1727425 104.55708023 70.09375 112.5078125 C71.5 115 71.5 115 71.5 117 C73.20144165 116.9685791 73.20144165 116.9685791 74.93725586 116.93652344 C79.18077773 116.86364497 83.42424526 116.8180278 87.66821289 116.78027344 C89.49838593 116.76026626 91.32849592 116.73305149 93.15844727 116.69824219 C95.80240512 116.64923997 98.44551165 116.62692239 101.08984375 116.609375 C102.29978249 116.57840729 102.29978249 116.57840729 103.53416443 116.54681396 C112.28532929 116.54342486 119.34841522 120.03969676 125.70703125 125.94140625 C133.80708815 135.24147158 133.68662006 145.93627044 133.68530273 157.63012695 C133.68748332 159.79593744 133.70565717 161.96123287 133.72460938 164.12695312 C133.75855654 172.51963342 133.17869875 179.96390375 130.5 188 C131.18964844 188.01417969 131.87929688 188.02835938 132.58984375 188.04296875 C140.48006425 188.44343262 146.80521935 190.30521935 152.5 196 C154.49661107 195.99619677 154.49661107 195.99619677 156.77734375 195.5390625 C158.11587402 195.32564209 158.11587402 195.32564209 159.48144531 195.10791016 C160.45694336 194.9485498 161.43244141 194.78918945 162.4375 194.625 C201.3680435 188.96024145 241.15756016 195.80199999 273.5 219 C275.92115191 221.42115191 276.10948898 222.64160525 276.5 226 C276.0625 228.8125 276.0625 228.8125 275.5 231 C276.3353125 231.37125 276.3353125 231.37125 277.1875 231.75 C279.5 233 279.5 233 281.6875 235.125 C284.80071332 237.20047555 285.2979142 237.12047917 288.8125 236.8125 C292.64245113 236.67345887 294.47895584 237.23202813 297.4375 239.6875 C314.16144969 256.24553749 325.38383196 278.42595535 331.875 300.8125 C332.11371826 301.63508301 332.35243652 302.45766602 332.59838867 303.30517578 C336.01466901 315.77676122 336.90938785 328.13425506 336.875 341 C336.87418427 342.15252762 336.87418427 342.15252762 336.87335205 343.32833862 C336.83251558 355.91266831 335.92582609 367.8297137 332.5 380 C332.28569336 380.77537109 332.07138672 381.55074219 331.85058594 382.34960938 C325.22263994 405.60048252 312.81523259 426.28731708 296.5 444 C295.78585937 444.79664063 295.07171875 445.59328125 294.3359375 446.4140625 C282.51111356 458.9693775 267.81899568 468.32229993 252.5 476 C251.365625 476.57363281 250.23125 477.14726562 249.0625 477.73828125 C213.87519343 494.1054539 172.61446762 493.75561184 136.5 481 C131.44384061 479.13178836 126.45701972 477.11799933 121.5 475 C121.21640625 475.6084375 120.9328125 476.216875 120.640625 476.84375 C117.51823715 482.7463462 111.61547113 486.88343266 105.43916035 489.09698772 C100.77142569 490.35698527 96.15459469 490.28014704 91.34843445 490.26069641 C90.3408717 490.26452196 89.33330895 490.26834751 88.295214 490.27228898 C84.92681776 490.28258867 81.55859294 490.27863253 78.19018555 490.2746582 C75.77191002 490.27900638 73.35363587 490.28418988 70.93536377 490.29014587 C65.05278019 490.30214621 59.17023897 490.30468849 53.28764781 490.30234561 C48.50385632 490.3005603 43.72007867 490.30231666 38.93628883 490.30657005 C38.25461027 490.30716524 37.5729317 490.30776043 36.8705962 490.30837366 C35.48560525 490.30958545 34.1006143 490.31079959 32.71562336 490.31201603 C19.73473057 490.32288577 6.75386377 490.32073193 -6.22703048 490.31463119 C-18.08917192 490.30946416 -29.95123119 490.3207128 -41.81335638 490.33972941 C-54.00646785 490.35912606 -66.19954048 490.3673605 -78.39266747 490.36360615 C-85.2328936 490.36169667 -92.07304982 490.36415683 -98.91326332 490.37832069 C-105.34748961 490.39150948 -111.78159279 490.38894962 -118.21582031 490.37590981 C-120.57402286 490.37354557 -122.93223699 490.37627319 -125.29042625 490.38453293 C-128.51630174 490.39501487 -131.74162747 490.3868876 -134.96748352 490.3742218 C-135.8946445 490.38159609 -136.82180547 490.38897037 -137.77706224 490.39656812 C-146.59200395 490.32405007 -154.7041662 488.51101288 -161.67578125 482.8828125 C-166.6903593 477.70716663 -170.56709822 471.06339005 -170.69287109 463.77905273 C-170.70893402 462.93064316 -170.72499695 462.08223358 -170.74154663 461.20811462 C-170.78631234 457.31347652 -170.82710094 453.41900591 -170.85009766 449.52416992 C-170.86659905 447.47880631 -170.89381145 445.43349897 -170.93212891 443.38842773 C-170.98733212 440.42401515 -171.00884206 437.46095347 -171.0234375 434.49609375 C-171.05744156 433.14396034 -171.05744156 433.14396034 -171.09213257 431.76451111 C-171.06590077 423.75264285 -168.41265302 417.38417864 -163.18359375 411.30859375 C-162.44238281 410.69113281 -161.70117188 410.07367188 -160.9375 409.4375 C-160.19371094 408.79683594 -159.44992188 408.15617187 -158.68359375 407.49609375 C-156.52308151 406.01581434 -155.01683823 405.54900244 -152.5 405 C-152.71194 404.46678131 -152.92388 403.93356262 -153.14224243 403.38418579 C-155.33403826 397.4451909 -155.94229811 392.26020865 -155.8984375 385.9609375 C-155.90130768 385.03584381 -155.90417786 384.11075012 -155.90713501 383.15762329 C-155.90916298 381.21640403 -155.90372254 379.27516374 -155.89111328 377.33398438 C-155.87500455 374.37583555 -155.89102421 371.41904517 -155.91015625 368.4609375 C-155.90817431 366.56510118 -155.90433165 364.6692657 -155.8984375 362.7734375 C-155.90754654 361.45912247 -155.90754654 361.45912247 -155.9168396 360.11825562 C-155.85480495 354.66482163 -154.98537392 350.86791045 -152.5 346 C-153.304375 345.95875 -154.10875 345.9175 -154.9375 345.875 C-162.94382395 343.90853447 -168.01723018 339.1049398 -172.30859375 332.24609375 C-175.38625111 326.44395282 -175.80742467 321.87168518 -175.80078125 315.38671875 C-175.80506638 314.45833694 -175.8093515 313.52995514 -175.81376648 312.57344055 C-175.81949873 310.61252659 -175.82001819 308.65159136 -175.81567383 306.69067383 C-175.81252179 303.70812169 -175.83595937 300.72656969 -175.86132812 297.74414062 C-175.86360219 295.83333458 -175.86430412 293.92252588 -175.86328125 292.01171875 C-175.872491 291.1281218 -175.88170074 290.24452484 -175.89118958 289.33415222 C-175.82296192 280.08767844 -173.03242024 273.76578181 -166.6953125 266.984375 C-161.57733393 262.35815949 -155.50811322 259.86055689 -148.61328125 259.90234375 C-147.67548828 259.90556641 -146.73769531 259.90878906 -145.77148438 259.91210938 C-144.79501953 259.92048828 -143.81855469 259.92886719 -142.8125 259.9375 C-141.82443359 259.94201172 -140.83636719 259.94652344 -139.81835938 259.95117188 C-137.37884526 259.96295697 -134.93945311 259.97940989 -132.5 260 C-132.71221191 259.493479 -132.92442383 258.98695801 -133.14306641 258.46508789 C-136.07036313 250.37000636 -135.95642495 242.42491378 -135.89111328 233.93188477 C-135.87501008 231.43906116 -135.89103574 228.94785298 -135.91015625 226.45507812 C-135.91919244 218.41859235 -135.79942173 211.48043498 -132.5 204 C-133.61375 204.0825 -134.7275 204.165 -135.875 204.25 C-143.15922849 204.22421512 -150.60372058 201.1242825 -155.7878418 195.97143555 C-164.38633654 186.0708445 -164.39010267 175.6952646 -164.17236328 163.2175293 C-164.12491542 160.30731216 -164.131305 157.40074407 -164.14453125 154.49023438 C-164.1333816 152.61456179 -164.11916427 150.73890439 -164.1015625 148.86328125 C-164.10429672 147.57856682 -164.10429672 147.57856682 -164.10708618 146.26789856 C-163.89850897 137.28018202 -160.49688265 130.28218769 -154.4375 123.7265625 C-150.62270723 120.32708991 -146.29205664 118.59735221 -141.5 117 C-139.67771373 117.15173804 -137.85980967 117.35886856 -136.046875 117.59765625 C-128.9795898 118.20894604 -122.2224903 118.57612159 -115.5 116 C-108.93344978 110.11768223 -105.67735273 101.46885901 -102.14599609 93.54931641 C-99.65584135 88.17971247 -96.62113585 83.18492849 -93.5625 78.125 C-92.40362043 76.1507401 -91.24872523 74.17413645 -90.09765625 72.1953125 C-89.51387207 71.19274414 -88.93008789 70.19017578 -88.32861328 69.15722656 C-85.36819175 64.04585523 -82.44185728 58.91513582 -79.51675415 53.7835083 C-73.99215447 44.09270017 -68.45978403 34.40627174 -62.875 24.75 C-62.31941406 23.780625 -61.76382813 22.81125 -61.19140625 21.8125 C-53.89475955 9.24309401 -46.14822203 -1.00031842 -31.6875 -5.25 C-21.00823961 -7.53544483 -9.29030264 -6.01839657 0 0 Z " fill="#020201" transform="translate(175.5,20)"/>
<path d="M0 0 C3.59288103 2.53233181 4.96606783 2.93587011 9.2421875 2.28515625 C10.91828586 1.64257044 12.58670175 0.9791225 14.2421875 0.28515625 C17.96227743 2.62574007 21.31985411 4.98141537 24.2421875 8.28515625 C24.3671875 10.65625 24.3671875 10.65625 23.8046875 13.09765625 C23.05082817 16.60497342 22.93699828 17.77876821 24.82421875 20.91015625 C26.40275665 22.76029948 28.01019393 24.58604572 29.640625 26.390625 C52.49525156 51.81897076 62.17424244 86.77685642 60.44287109 120.40478516 C57.87681333 157.23489407 40.55988031 189.62346038 13.05859375 213.93359375 C-15.64413722 237.89898077 -49.93158849 246.62554136 -86.7578125 244.28515625 C-120.84073343 241.07351053 -153.10454264 223.86908008 -175.08203125 197.49609375 C-198.86164722 167.93747808 -209.25982837 131.21643134 -205.46923828 93.40673828 C-201.50659512 64.55124951 -187.5127527 39.2546859 -167.7578125 18.28515625 C-167.15839844 17.62128906 -166.55898438 16.95742188 -165.94140625 16.2734375 C-125.60946513 -26.67180434 -47.83689168 -35.34761141 0 0 Z " fill="#FDC04F" transform="translate(436.7578125,249.71484375)"/>
<path d="M0 0 C8.04792561 4.63123768 12.10597623 13.06473403 16.421875 20.91845703 C17.11971292 22.16706828 17.81887543 23.41494006 18.51928711 24.66210938 C19.95703714 27.22357214 21.38997649 29.78763425 22.81982422 32.35351562 C25.98161063 38.01365602 29.23439906 43.62114507 32.484375 49.23095703 C33.72547192 51.37927236 34.96635728 53.52770992 36.20703125 55.67626953 C36.81949707 56.73620117 37.43196289 57.79613281 38.06298828 58.88818359 C39.93241576 62.12420332 41.80046755 65.3610128 43.66796875 68.59814453 C44.28800781 69.67290039 44.90804687 70.74765625 45.546875 71.85498047 C46.79074175 74.01166402 48.03423511 76.16856297 49.27734375 78.32568359 C52.1648725 83.33487869 55.05627625 88.34167569 57.96463013 93.33880615 C58.98276211 95.08865884 59.99940833 96.83936646 61.015625 98.59033203 C62.28223606 100.77171774 63.5515503 102.95153728 64.82421875 105.12939453 C77.81538116 127.53193238 77.81538116 127.53193238 75.2890625 137.63720703 C73.1334848 144.08452052 69.72993648 148.52811524 63.921875 152.10595703 C55.6960951 156.11968431 47.38499248 155.56714534 38.39257812 155.63330078 C37.22017578 155.65521484 36.04777344 155.67712891 34.83984375 155.69970703 C33.77531982 155.70679688 32.7107959 155.71388672 31.61401367 155.72119141 C28.47918016 156.16922783 27.80244956 156.62793167 25.921875 159.10595703 C25.47472793 161.42528152 25.47472793 161.42528152 25.55006409 164.05793762 C25.54330658 165.07991745 25.53654907 166.10189728 25.52958679 167.15484619 C25.53730606 168.27542419 25.54502533 169.3960022 25.55297852 170.55053711 C25.54921204 171.73127304 25.54544556 172.91200897 25.54156494 174.12852478 C25.53343545 177.36842091 25.53825698 180.60801582 25.54749036 183.84789872 C25.5529966 187.24041417 25.53852043 190.63282972 25.52513123 194.02531433 C25.4889317 204.12161535 25.48270457 214.21791001 25.48522949 224.31427002 C25.48694171 232.1567515 25.47978391 239.99900012 25.44525093 247.84141654 C25.43122343 251.21752771 25.42533403 254.59324596 25.43829536 257.96936989 C25.45006242 261.73758308 25.43770052 265.5050191 25.42016602 269.27319336 C25.42990952 270.38769867 25.43965302 271.50220398 25.44969177 272.65048218 C25.39439792 278.59962966 25.16971463 282.54792007 20.921875 287.10595703 C17.40926318 289.80269842 14.88136034 290.48287801 10.49243164 290.49414062 C9.43105484 290.50359711 8.36967804 290.51305359 7.27613831 290.52279663 C6.13958298 290.51672394 5.00302765 290.51065125 3.83203125 290.50439453 C2.6547496 290.50726471 1.47746796 290.51013489 0.26451111 290.51309204 C-2.22267132 290.51513153 -4.70986983 290.50960976 -7.19702148 290.49707031 C-10.99825041 290.48103035 -14.7984137 290.49691657 -18.59960938 290.51611328 C-21.01823151 290.51413055 -23.43685298 290.51028626 -25.85546875 290.50439453 C-27.5572654 290.51350357 -27.5572654 290.51350357 -29.29344177 290.52279663 C-39.56941293 290.43151256 -39.56941293 290.43151256 -44.078125 287.10595703 C-46.57636669 283.59795002 -47.45276199 281.1892585 -47.44993591 276.90000916 C-47.45669342 275.87238968 -47.46345093 274.8447702 -47.47041321 273.78601074 C-47.46269394 272.6694812 -47.45497467 271.55295166 -47.44702148 270.40258789 C-47.4526712 268.62622704 -47.4526712 268.62622704 -47.45843506 266.8139801 C-47.46654563 263.57433601 -47.46176039 260.33499499 -47.45250964 257.09536433 C-47.44699367 253.70192503 -47.46148831 250.30858491 -47.47486877 246.91517639 C-47.51102428 236.8247141 -47.51729096 226.73425899 -47.51477051 216.64373779 C-47.51305966 208.79605253 -47.52016121 200.94859992 -47.55474907 193.10097986 C-47.56879377 189.72384426 -47.57464452 186.34710204 -47.56170464 182.96995354 C-47.54996776 179.20633891 -47.56226898 175.44350676 -47.57983398 171.67993164 C-47.57009048 170.56137787 -47.56034698 169.4428241 -47.55030823 168.29037476 C-47.55988556 167.2655751 -47.56946289 166.24077545 -47.57933044 165.18492126 C-47.57901652 163.85068823 -47.57901652 163.85068823 -47.57869625 162.489501 C-48.24477225 159.31062627 -49.57144293 158.10635705 -52.078125 156.10595703 C-55.03182776 155.48234381 -55.03182776 155.48234381 -58.3125 155.53173828 C-60.13394531 155.49016602 -60.13394531 155.49016602 -61.9921875 155.44775391 C-63.25804688 155.43808594 -64.52390625 155.42841797 -65.828125 155.41845703 C-68.32297196 155.37601891 -70.81776912 155.3305253 -73.3125 155.28173828 C-74.48562744 155.26256348 -75.65875488 155.24338867 -76.86743164 155.22363281 C-79.56781399 155.12466054 -82.14007953 154.89023675 -84.80859375 154.49267578 C-88.09601952 153.77062663 -88.09601952 153.77062663 -90.640625 155.60595703 C-92.32731262 158.13493215 -92.32731262 158.13493215 -92.390625 161.60595703 C-91.46825453 165.07933347 -91.46825453 165.07933347 -89.35253906 166.29638672 C-83.33517761 168.98533659 -78.07151018 169.75013937 -71.515625 169.85595703 C-70.60232422 169.88560547 -69.68902344 169.91525391 -68.74804688 169.94580078 C-66.52465577 170.01564553 -64.30226032 170.06875448 -62.078125 170.10595703 C-62.078125 172.41595703 -62.078125 174.72595703 -62.078125 177.10595703 C-70.43212021 177.19885351 -78.78589771 177.26982085 -87.14028263 177.31320572 C-91.02005896 177.33403393 -94.89948054 177.3622631 -98.77905273 177.40771484 C-102.52678831 177.45134462 -106.2741838 177.47512996 -110.02215385 177.485466 C-111.44825019 177.49282685 -112.87432903 177.5072009 -114.30027962 177.52887726 C-128.6671069 177.73848218 -128.6671069 177.73848218 -134.078125 173.10595703 C-137.93172036 168.47823347 -138.66825581 163.92557986 -138.57421875 157.97705078 C-138.5764016 156.84796043 -138.5764016 156.84796043 -138.57862854 155.69606018 C-138.57697867 154.11528628 -138.56552024 152.53449477 -138.54467773 150.95385742 C-138.51565777 148.5461759 -138.52409964 146.14069257 -138.53710938 143.73291016 C-138.53087242 142.18927976 -138.52248181 140.64565625 -138.51171875 139.10205078 C-138.51465439 138.3893956 -138.51759003 137.67674042 -138.52061462 136.94248962 C-138.43325404 132.2750623 -137.52349643 129.07579199 -135.078125 125.10595703 C-130.00842655 120.41648597 -126.07119347 119.96236703 -119.390625 120.04345703 C-118.68873047 120.04796875 -117.98683594 120.05248047 -117.26367188 120.05712891 C-115.53511962 120.06888777 -113.80661135 120.0868225 -112.078125 120.10595703 C-112.09383545 120.69086914 -112.1095459 121.27578125 -112.12573242 121.87841797 C-112.18822767 124.53749868 -112.22716069 127.19642467 -112.265625 129.85595703 C-112.29076172 130.77634766 -112.31589844 131.69673828 -112.34179688 132.64501953 C-112.35146484 133.53447266 -112.36113281 134.42392578 -112.37109375 135.34033203 C-112.3868042 136.15727539 -112.40251465 136.97421875 -112.41870117 137.81591797 C-111.99044102 140.69554536 -111.10946271 142.03991304 -109.078125 144.10595703 C-104.51864759 144.69004901 -104.51864759 144.69004901 -100.359375 143.04345703 C-98.73557075 140.58794816 -98.92250201 138.69427428 -99.02075195 135.81665039 C-99.32869811 124.2863599 -94.64054843 116.39370274 -88.734375 106.80859375 C-86.46226792 103.10101335 -84.29078706 99.33791905 -82.11206055 95.57495117 C-80.3570115 92.54798316 -78.58767737 89.52970672 -76.81640625 86.51220703 C-72.85198356 79.73943304 -68.96202243 72.92504302 -65.078125 66.10595703 C-59.45291572 56.2336555 -53.78018154 46.39071997 -48.03320312 36.58862305 C-45.31677221 31.95431985 -42.61842892 27.31227804 -39.97265625 22.63720703 C-39.23752808 21.34472046 -39.23752808 21.34472046 -38.48754883 20.02612305 C-37.58654693 18.43902998 -36.69127211 16.84866302 -35.8034668 15.25415039 C-28.12939764 1.7759835 -16.09689844 -7.58103375 0 0 Z " fill="#94D5A3" transform="translate(165.078125,31.89404296875)"/>
<path d="M0 0 C3.59288103 2.53233181 4.96606783 2.93587011 9.2421875 2.28515625 C10.91828586 1.64257044 12.58670175 0.9791225 14.2421875 0.28515625 C17.96227743 2.62574007 21.31985411 4.98141537 24.2421875 8.28515625 C24.3671875 10.65625 24.3671875 10.65625 23.8046875 13.09765625 C23.05082817 16.60497342 22.93699828 17.77876821 24.82421875 20.91015625 C26.40275665 22.76029948 28.01019393 24.58604572 29.640625 26.390625 C52.49525156 51.81897076 62.17424244 86.77685642 60.44287109 120.40478516 C57.87681333 157.23489407 40.55988031 189.62346038 13.05859375 213.93359375 C-15.64413722 237.89898077 -49.93158849 246.62554136 -86.7578125 244.28515625 C-120.84073343 241.07351053 -153.10454264 223.86908008 -175.08203125 197.49609375 C-198.86164722 167.93747808 -209.25982837 131.21643134 -205.46923828 93.40673828 C-201.50659512 64.55124951 -187.5127527 39.2546859 -167.7578125 18.28515625 C-167.15839844 17.62128906 -166.55898438 16.95742188 -165.94140625 16.2734375 C-125.60946513 -26.67180434 -47.83689168 -35.34761141 0 0 Z M-137.7578125 32.28515625 C-138.62664062 33.00445312 -139.49546875 33.72375 -140.390625 34.46484375 C-158.22798815 49.79297539 -172.31365043 72.99356903 -174.58789062 96.77246094 C-176.63327722 127.01832138 -171.03781556 154.86096667 -150.7578125 178.28515625 C-150.15453125 179.0328125 -149.55125 179.78046875 -148.9296875 180.55078125 C-133.07263046 199.60590021 -108.08311083 211.45138438 -83.7578125 214.28515625 C-53.2402759 216.16067962 -26.70677309 207.54950132 -3.45141602 187.71704102 C15.42457516 170.83256678 27.88455696 145.81535832 29.40625 120.5625 C30.62713533 90.65080952 23.18452036 64.73608033 2.984375 42.21484375 C-15.55624937 22.16917219 -40.41285206 10.47653448 -67.62109375 8.875 C-93.50817195 7.93604709 -117.90606014 15.37876774 -137.7578125 32.28515625 Z " fill="#EFE44B" transform="translate(436.7578125,249.71484375)"/>
<path d="M0 0 C1.27329137 -0.01782673 1.27329137 -0.01782673 2.5723058 -0.0360136 C5.40962191 -0.07063156 8.24626044 -0.07678265 11.08377075 -0.08276367 C13.12092521 -0.10128544 15.15806585 -0.12138531 17.19519043 -0.14294434 C22.72411643 -0.19535321 28.25284836 -0.22120134 33.78198385 -0.23898697 C37.23716044 -0.25072105 40.69228426 -0.26714208 44.14743423 -0.28500366 C54.96069902 -0.33967389 65.77384288 -0.37835765 76.58723629 -0.39381123 C89.06558917 -0.41174324 101.54219132 -0.48198471 114.02001178 -0.59781361 C123.66947131 -0.68427621 133.31843813 -0.7246277 142.96828091 -0.7299757 C148.73041264 -0.73416764 154.49089712 -0.75778156 160.2526207 -0.82925415 C165.67236283 -0.89518027 171.08921989 -0.90380875 176.50922012 -0.86869812 C178.49583925 -0.86561645 180.4826135 -0.8829942 182.46884155 -0.92253113 C197.49384542 -1.20402984 197.49384542 -1.20402984 202.33586502 3.19871521 C204.38263927 6.24423236 205.92432155 9.22629812 207.43582153 12.56176758 C210.72175264 17.1726165 214.65610807 21.3483862 218.43582153 25.56176758 C219.13062622 26.34165039 219.82543091 27.1215332 220.54129028 27.92504883 C226.04328453 33.74630774 232.338896 38.41522477 238.84841919 43.04614258 C239.56948853 43.57336914 240.29055786 44.1005957 241.03347778 44.64379883 C241.6884021 45.11019775 242.34332642 45.57659668 243.01809692 46.05712891 C244.43582153 47.56176758 244.43582153 47.56176758 244.43582153 51.56176758 C242.16995648 54.29643229 240.83436223 55.42892068 237.43582153 56.56176758 C236.03585307 56.65597188 234.63186468 56.6961677 233.22874069 56.70157528 C231.93565825 56.71011214 231.93565825 56.71011214 230.61645293 56.71882147 C229.66890207 56.72000134 228.7213512 56.72118122 227.74508667 56.72239685 C226.73882492 56.72748467 225.73256318 56.73257249 224.69580865 56.73781449 C221.30804091 56.75356986 217.92029455 56.76207214 214.53250122 56.77050781 C212.10994836 56.78004366 209.68739687 56.7899347 207.2648468 56.80015564 C199.98384698 56.82885556 192.70284097 56.8486246 185.42180669 56.86554798 C183.36528416 56.87034363 181.30876216 56.87532687 179.25224018 56.88035321 C166.48074058 56.91132249 153.70923643 56.93800677 140.93770981 56.954772 C137.97988629 56.95872147 135.02206285 56.96272447 132.0642395 56.96679688 C130.96151575 56.96830942 130.96151575 56.96830942 129.83651474 56.96985251 C117.92675637 56.98686056 106.01720574 57.02797202 94.1075488 57.07881986 C81.87955646 57.13059736 69.65167097 57.15971429 57.42356992 57.16696888 C50.55810668 57.17163073 43.69298377 57.18637729 36.82762909 57.22671318 C30.36959698 57.26461007 23.91198558 57.27201005 17.4538517 57.25870705 C15.08308146 57.2587611 12.71228589 57.26909992 10.34161186 57.29045868 C7.10519977 57.31805957 3.87091942 57.30866597 0.63449097 57.2900238 C-0.773451 57.3152162 -0.773451 57.3152162 -2.20983624 57.34091753 C-7.92199165 57.25866778 -11.01642819 56.18002988 -15.19616294 52.23928982 C-18.72400618 47.91328958 -18.88397548 43.93152354 -18.90011597 38.50708008 C-18.90677277 37.72791229 -18.91342957 36.94874451 -18.92028809 36.14596558 C-18.93039588 34.50024774 -18.93510569 32.85448908 -18.93478394 31.20874023 C-18.93915188 28.70202434 -18.97547364 26.1970778 -19.01339722 23.69067383 C-19.01926703 22.08781523 -19.02323532 20.48494832 -19.02511597 18.88208008 C-19.039487 18.13813995 -19.05385803 17.39419983 -19.06866455 16.62771606 C-19.02343017 11.42753884 -17.94463708 8.49520027 -14.56417847 4.56176758 C-9.8101214 0.67402683 -5.96877643 -0.02630696 0 0 Z " fill="#F0E54B" transform="translate(38.564178466796875,437.438232421875)"/>
<path d="M0 0 C1.05027731 -0.00512655 1.05027731 -0.00512655 2.12177235 -0.01035666 C4.44977764 -0.01690464 6.7766098 0.00498737 9.10450745 0.0269165 C10.78039523 0.02804566 12.45628499 0.02740979 14.13217163 0.02514648 C18.66897699 0.02400106 23.20535743 0.04748254 27.74206424 0.07544231 C32.48794306 0.10048456 37.23383214 0.10280019 41.97976685 0.10754395 C50.96111675 0.11996542 59.9422714 0.15277584 68.92353541 0.1929419 C79.15080325 0.23768536 89.37808052 0.25965313 99.6054219 0.27972364 C120.63851048 0.32150919 141.67142341 0.39184517 162.70436096 0.48101807 C162.8124408 1.27881683 162.92052063 2.0766156 163.03187561 2.89859009 C163.53131527 6.55972155 164.03964729 10.21956691 164.54811096 13.87945557 C164.71794495 15.13427734 164.88777893 16.38909912 165.0627594 17.6819458 C166.82993898 30.31232506 169.92011924 41.97820018 175.00514221 53.69586182 C175.70436096 55.48101807 175.70436096 55.48101807 175.70436096 57.48101807 C151.81740388 57.57444131 127.93047415 57.64498748 104.0433712 57.68826675 C92.95227834 57.70889581 81.86129896 57.73702308 70.77027893 57.78277588 C61.10383708 57.822633 51.43747742 57.84844838 41.77095568 57.85737205 C36.65213067 57.86258867 31.53354079 57.87485696 26.41479111 57.90393829 C21.59673071 57.93108952 16.77900229 57.93946361 11.96087265 57.93344879 C10.19278662 57.93454916 8.42468948 57.94250479 6.65666962 57.95783997 C4.24111916 57.97776374 1.82681947 57.97294918 -0.58876038 57.96203613 C-1.63644653 57.97951318 -1.63644653 57.97951318 -2.70529807 57.9973433 C-7.67038836 57.93677739 -10.4498028 56.54827788 -14.29563904 53.48101807 C-18.30847618 48.91468614 -18.47445655 44.63930673 -18.53392029 38.77789307 C-18.54199203 38.02187805 -18.55006378 37.26586304 -18.55838013 36.48693848 C-18.57220244 34.88651815 -18.58293288 33.28606857 -18.59080505 31.68560791 C-18.60231109 30.0562877 -18.62274133 28.42700478 -18.65232849 26.7979126 C-18.69520095 24.43681366 -18.71120146 22.07683393 -18.72142029 19.71539307 C-18.73892838 18.99535095 -18.75643646 18.27530884 -18.7744751 17.53344727 C-18.75293081 12.44840238 -17.82030124 8.20835279 -14.29563904 4.48101807 C-9.28840491 1.17746958 -6.12698347 -0.01811377 0 0 Z " fill="#F0E54B" transform="translate(53.29563903808594,365.51898193359375)"/>
<path d="M0 0 C19.94821947 15.45465927 34.08516814 35.23164157 40 60 C40.3403125 61.35931641 40.3403125 61.35931641 40.6875 62.74609375 C46.13049136 88.78929545 40.86319533 116.49871163 26.5625 138.8046875 C23.55822631 143.02569203 20.31529675 147.0216439 17 151 C16.55398438 151.59296875 16.10796875 152.1859375 15.6484375 152.796875 C1.24874504 171.34862602 -23.72535028 182.23193903 -46.40087891 185.69091797 C-59.73093847 187.27610071 -73.053205 186.53930135 -86 183 C-86.99644531 182.73316406 -87.99289062 182.46632813 -89.01953125 182.19140625 C-102.7620138 178.05210428 -114.9759726 171.1004801 -126 162 C-126.77601563 161.38769531 -127.55203125 160.77539062 -128.3515625 160.14453125 C-146.95794549 144.72687467 -159.71081315 120.01102655 -162 96 C-162.13383669 91.8738591 -162.13960375 87.75299218 -162.125 83.625 C-162.12886719 82.53960937 -162.13273437 81.45421875 -162.13671875 80.3359375 C-162.12445243 70.17942484 -161.19963719 61.45537396 -157.9375 51.8125 C-157.47114136 50.43384766 -157.47114136 50.43384766 -156.99536133 49.02734375 C-147.90123282 23.13865099 -128.44331348 2.11685837 -103.875 -9.875 C-70.28638484 -25.35497046 -29.91230764 -22.27981616 0 0 Z M-126 25 C-133.40607683 33.7060075 -138.87371752 43.37024567 -143 54 C-143.43441406 55.11117187 -143.86882812 56.22234375 -144.31640625 57.3671875 C-151.40446893 79.15001428 -147.53332401 103.67719635 -138 124 C-133.72869539 131.96900476 -128.2210201 138.48754472 -122 145 C-121.45988281 145.61488281 -120.91976562 146.22976563 -120.36328125 146.86328125 C-108.59389061 159.75921306 -91.54439176 166.10270679 -75 170 C-74.20851563 170.19464844 -73.41703125 170.38929688 -72.6015625 170.58984375 C-49.96007432 174.15944774 -26.46451897 167.03101084 -8 154 C-4.45972245 151.18606347 -1.19677681 148.19677681 2 145 C2.77085937 144.22914063 3.54171875 143.45828125 4.3359375 142.6640625 C13.26309628 133.24941382 19.76660427 122.25119067 24 110 C24.3196875 109.07703125 24.639375 108.1540625 24.96875 107.203125 C31.11068689 85.70634587 27.60433636 60.44882553 17 41 C14.30493312 36.43175736 11.24797418 32.19459144 8 28 C7.37480469 27.19046875 6.74960937 26.3809375 6.10546875 25.546875 C-7.77580787 8.83089558 -27.94452336 -0.25363815 -49 -4 C-78.72103576 -6.27009597 -105.21281708 3.00821064 -126 25 Z " fill="#040301" transform="translate(424,278)"/>
<path d="M0 0 C0.76165466 -0.00058411 1.52330933 -0.00116821 2.30804443 -0.00177002 C4.80821414 0.00100133 7.30716929 0.0320465 9.80712891 0.06347656 C11.54732614 0.07094237 13.28753181 0.0766337 15.02774048 0.08062744 C19.59490408 0.09585709 24.16155411 0.13511556 28.72851562 0.17944336 C33.39397231 0.2204539 38.05951245 0.23865078 42.72509766 0.25878906 C51.86985382 0.30161267 61.01422981 0.36983138 70.15869141 0.45410156 C70.16803711 1.04312256 70.17738281 1.63214355 70.18701172 2.23901367 C70.24133015 4.95733172 70.3248498 7.67404004 70.40869141 10.39160156 C70.42287109 11.31779297 70.43705078 12.24398438 70.45166016 13.19824219 C70.77197562 22.32723281 73.43548898 30.02321229 80.15869141 36.45410156 C87.88079271 41.68357607 94.99843713 42.19200311 104.12744141 42.11816406 C105.44353394 42.12294769 106.75962646 42.12773132 108.11560059 42.13265991 C110.88596344 42.13998215 113.65551379 42.12947955 116.42578125 42.10595703 C119.94959967 42.0774694 123.47151335 42.09389897 126.99526215 42.12381935 C130.39363493 42.14639041 133.7915148 42.1305164 137.18994141 42.11816406 C138.44125854 42.12828522 139.69257568 42.13840637 140.98181152 42.14883423 C150.23002043 42.02616542 156.66667552 39.9478917 163.97119141 34.26660156 C172.35112853 23.49239668 171.90474246 13.82874626 172.15869141 0.45410156 C180.73869141 0.45410156 189.31869141 0.45410156 198.15869141 0.45410156 C196.43304412 5.63104342 194.77346854 10.5171199 192.72119141 15.51660156 C188.64005256 26.11281147 186.19148126 36.70115147 185.04541016 47.97363281 C184.91459045 49.20515076 184.91459045 49.20515076 184.78112793 50.46154785 C184.56956872 52.45863772 184.3635414 54.45631235 184.15869141 56.45410156 C159.11559607 56.59426024 134.07255951 56.70006719 109.02915096 56.76497459 C97.40105516 56.79591325 85.77320306 56.83809429 74.14526367 56.90673828 C64.01039787 56.96653959 53.87570855 57.00525063 43.74067122 57.01863253 C38.37409688 57.02645499 33.00802744 57.04484017 27.64161491 57.0884819 C22.58952997 57.12923419 17.53815747 57.14176519 12.48592377 57.13274765 C10.6327712 57.13439711 8.77959459 57.1463165 6.92658424 57.16933441 C4.39268504 57.19926397 1.86146266 57.19198728 -0.67250061 57.17562866 C-1.76834531 57.20184424 -1.76834531 57.20184424 -2.88632828 57.22858942 C-8.08493539 57.1380894 -10.71519058 55.49302378 -14.40193075 52.13186038 C-18.05566765 47.87301388 -18.161091 43.82876901 -18.17724609 38.39941406 C-18.18390289 37.62024628 -18.19055969 36.84107849 -18.19741821 36.03829956 C-18.20752601 34.39258173 -18.21223581 32.74682306 -18.21191406 31.10107422 C-18.21628201 28.59435833 -18.25260376 26.08941179 -18.29052734 23.58300781 C-18.29639715 21.98014922 -18.30036545 20.3772823 -18.30224609 18.77441406 C-18.31661713 18.03047394 -18.33098816 17.28653381 -18.34579468 16.52005005 C-18.30056029 11.31987282 -17.2217672 8.38753426 -13.84130859 4.45410156 C-9.25997823 0.75972307 -5.74522815 -0.11673405 0 0 Z " fill="#EFE34B" transform="translate(32.84130859375,294.5458984375)"/>
<path d="M0 0 C2.875 1.9375 2.875 1.9375 5 5 C5.40276286 8.04876188 5.29949079 10.94519396 5 14 C6.19625 14.020625 7.3925 14.04125 8.625 14.0625 C13.32992745 14.56525939 17.24693265 16.27971633 21.4375 18.375 C22.05254395 18.67929932 22.66758789 18.98359863 23.30126953 19.29711914 C26.46278475 20.94112463 27.98316713 21.97475069 30 25 C29.81989972 28.36187193 29.58112046 30.99918142 27.875 33.9375 C24.77366716 35.69492194 22.50966687 35.40274866 19 35 C16.93427364 34.1505797 15.02888895 33.17716706 13.08984375 32.0703125 C10.43304299 30.643248 10.43304299 30.643248 5 29 C5 40.22 5 51.44 5 63 C7.31 63.33 9.62 63.66 12 64 C21.82943546 66.90857799 30.09021309 71.95439271 35.73046875 80.67578125 C39.90406638 88.94114126 40.22797138 95.88551805 37.375 104.625 C33.42945722 114.38575043 26.77647604 121.88722848 17.1171875 126.32421875 C12.83528328 127.95134235 9.61987153 129 5 129 C5.02320313 129.67546875 5.04640625 130.3509375 5.0703125 131.046875 C5.08835937 131.93890625 5.10640625 132.8309375 5.125 133.75 C5.14820313 134.63171875 5.17140625 135.5134375 5.1953125 136.421875 C4.98637114 139.17990095 4.51063339 140.69903523 3 143 C-0.49124017 145.32749345 -1.89222251 145.50299316 -6 145 C-8.375 143.6875 -8.375 143.6875 -10 141 C-10.32924499 137.30926983 -10.22932778 133.69472534 -10 130 C-11.216875 130.0825 -12.43375 130.165 -13.6875 130.25 C-23.1359826 130.2351205 -33.36567613 126.57288173 -41 121 C-43 118 -43 118 -42.875 114.5 C-42 111 -42 111 -40.4375 109 C-36.79680849 107.50638297 -33.69532319 108.01370377 -30 109 C-28.54768148 109.61178253 -27.11004824 110.25936768 -25.6875 110.9375 C-20.13417487 113.59777478 -20.13417487 113.59777478 -10 115 C-10 101.14 -10 87.28 -10 73 C-12.97 72.01 -15.94 71.02 -19 70 C-27.30329269 66.24731066 -34.94017593 61.38711086 -38.3359375 52.6171875 C-40.4083843 44.44930892 -39.91092528 36.6220959 -35.67578125 29.28515625 C-29.89025523 21.39580258 -22.37899119 16.56220192 -12.9375 14.25 C-12.298125 14.1675 -11.65875 14.085 -11 14 C-10.96132813 12.98679687 -10.96132813 12.98679687 -10.921875 11.953125 C-10.46186743 4.71846044 -10.46186743 4.71846044 -8.3125 1.375 C-5.20171731 -0.47465457 -3.56396121 -0.65460512 0 0 Z " fill="#040301" transform="translate(366,289)"/>
<path d="M0 0 C0.7239798 0.00565979 1.44795959 0.01131958 2.19387817 0.01715088 C4.48672038 0.03938833 6.77794966 0.08955513 9.0703125 0.140625 C10.63278979 0.16070659 12.19529179 0.17895445 13.7578125 0.1953125 C17.5709258 0.23921084 21.38284652 0.30814529 25.1953125 0.390625 C23.8753125 3.360625 22.5553125 6.330625 21.1953125 9.390625 C20.8653125 21.600625 20.5353125 33.810625 20.1953125 46.390625 C92.7953125 46.390625 165.3953125 46.390625 240.1953125 46.390625 C240.5253125 45.730625 240.8553125 45.070625 241.1953125 44.390625 C242.8453125 45.710625 244.4953125 47.030625 246.1953125 48.390625 C244.90520258 51.26856251 243.62169444 53.35246417 241.1953125 55.390625 C238.44612221 56.30702176 236.82021536 56.51951836 233.98823166 56.5304327 C232.69514922 56.53896956 232.69514922 56.53896956 231.3759439 56.54767889 C230.42839303 56.54885876 229.48084217 56.55003864 228.50457764 56.55125427 C227.49831589 56.55634209 226.49205414 56.56142991 225.45529962 56.56667191 C222.06753188 56.58242728 218.67978551 56.59092956 215.29199219 56.59936523 C212.86943932 56.60890109 210.44688784 56.61879213 208.02433777 56.62901306 C200.74333794 56.65771298 193.46233194 56.67748202 186.18129766 56.69440541 C184.12477513 56.69920106 182.06825313 56.70418429 180.01173115 56.70921063 C167.24023155 56.74017991 154.4687274 56.76686419 141.69720078 56.78362942 C138.73937726 56.78757889 135.78155382 56.79158189 132.82373047 56.7956543 C131.72100671 56.79716684 131.72100671 56.79716684 130.59600571 56.79870994 C118.68624734 56.81571798 106.77669671 56.85682944 94.86703977 56.90767729 C82.63904743 56.95945479 70.41116193 56.98857171 58.18306088 56.9958263 C51.31759765 57.00048815 44.45247473 57.01523471 37.58712006 57.0555706 C31.12908795 57.09346749 24.67147654 57.10086747 18.21334267 57.08756447 C15.84257243 57.08761852 13.47177685 57.09795734 11.10110283 57.1193161 C7.86469073 57.14691699 4.63041039 57.13752339 1.39398193 57.11888123 C-0.01396004 57.14407362 -0.01396004 57.14407362 -1.45034528 57.16977495 C-7.16250068 57.0875252 -10.25693723 56.00888731 -14.43667197 52.06814724 C-17.96451521 47.742147 -18.12448452 43.76038096 -18.140625 38.3359375 C-18.1472818 37.55676971 -18.1539386 36.77760193 -18.16079712 35.974823 C-18.17090491 34.32910516 -18.17561472 32.6833465 -18.17529297 31.03759766 C-18.17966092 28.53088177 -18.21598267 26.02593522 -18.25390625 23.51953125 C-18.25977606 21.91667265 -18.26374435 20.31380574 -18.265625 18.7109375 C-18.27999603 17.96699738 -18.29436707 17.22305725 -18.30917358 16.45657349 C-18.2639392 11.25639626 -17.18514611 8.32405769 -13.8046875 4.390625 C-9.31950597 0.57382036 -5.72950292 -0.17121443 0 0 Z " fill="#FEC24F" transform="translate(37.8046875,437.609375)"/>
<path d="M0 0 C1.05027731 -0.00512655 1.05027731 -0.00512655 2.12177235 -0.01035666 C4.44977764 -0.01690464 6.7766098 0.00498737 9.10450745 0.0269165 C10.78039523 0.02804566 12.45628499 0.02740979 14.13217163 0.02514648 C18.66897699 0.02400106 23.20535743 0.04748254 27.74206424 0.07544231 C32.48794306 0.10048456 37.23383214 0.10280019 41.97976685 0.10754395 C50.96111675 0.11996542 59.9422714 0.15277584 68.92353541 0.1929419 C79.15080325 0.23768536 89.37808052 0.25965313 99.6054219 0.27972364 C120.63851048 0.32150919 141.67142341 0.39184517 162.70436096 0.48101807 C162.70436096 0.81101807 162.70436096 1.14101807 162.70436096 1.48101807 C117.16436096 1.81101807 71.62436096 2.14101807 24.70436096 2.48101807 C17.98581154 14.50849869 17.98581154 14.50849869 19.70436096 47.48101807 C70.19436096 47.48101807 120.68436096 47.48101807 172.70436096 47.48101807 C173.69436096 50.78101807 174.68436096 54.08101807 175.70436096 57.48101807 C151.81740388 57.57444131 127.93047415 57.64498748 104.0433712 57.68826675 C92.95227834 57.70889581 81.86129896 57.73702308 70.77027893 57.78277588 C61.10383708 57.822633 51.43747742 57.84844838 41.77095568 57.85737205 C36.65213067 57.86258867 31.53354079 57.87485696 26.41479111 57.90393829 C21.59673071 57.93108952 16.77900229 57.93946361 11.96087265 57.93344879 C10.19278662 57.93454916 8.42468948 57.94250479 6.65666962 57.95783997 C4.24111916 57.97776374 1.82681947 57.97294918 -0.58876038 57.96203613 C-1.63644653 57.97951318 -1.63644653 57.97951318 -2.70529807 57.9973433 C-7.67038836 57.93677739 -10.4498028 56.54827788 -14.29563904 53.48101807 C-18.30847618 48.91468614 -18.47445655 44.63930673 -18.53392029 38.77789307 C-18.54199203 38.02187805 -18.55006378 37.26586304 -18.55838013 36.48693848 C-18.57220244 34.88651815 -18.58293288 33.28606857 -18.59080505 31.68560791 C-18.60231109 30.0562877 -18.62274133 28.42700478 -18.65232849 26.7979126 C-18.69520095 24.43681366 -18.71120146 22.07683393 -18.72142029 19.71539307 C-18.73892838 18.99535095 -18.75643646 18.27530884 -18.7744751 17.53344727 C-18.75293081 12.44840238 -17.82030124 8.20835279 -14.29563904 4.48101807 C-9.28840491 1.17746958 -6.12698347 -0.01811377 0 0 Z " fill="#F7BD4D" transform="translate(53.29563903808594,365.51898193359375)"/>
<path d="M0 0 C0.76165466 -0.00058411 1.52330933 -0.00116821 2.30804443 -0.00177002 C4.80821414 0.00100133 7.30716929 0.0320465 9.80712891 0.06347656 C11.54732614 0.07094237 13.28753181 0.0766337 15.02774048 0.08062744 C19.59490408 0.09585709 24.16155411 0.13511556 28.72851562 0.17944336 C33.39397231 0.2204539 38.05951245 0.23865078 42.72509766 0.25878906 C51.86989017 0.30161284 61.01416762 0.37194052 70.15869141 0.45410156 C70.15869141 6.39410156 70.15869141 12.33410156 70.15869141 18.45410156 C69.82869141 18.45410156 69.49869141 18.45410156 69.15869141 18.45410156 C69.15869141 12.84410156 69.15869141 7.23410156 69.15869141 1.45410156 C54.30869141 1.45410156 39.45869141 1.45410156 24.15869141 1.45410156 C23.49869141 3.43410156 22.83869141 5.41410156 22.15869141 7.45410156 C21.82869141 8.11410156 21.49869141 8.77410156 21.15869141 9.45410156 C21.15869141 21.66410156 21.15869141 33.87410156 21.15869141 46.45410156 C101.84369141 46.94910156 101.84369141 46.94910156 184.15869141 47.45410156 C184.15869141 50.42410156 184.15869141 53.39410156 184.15869141 56.45410156 C159.11559607 56.59426024 134.07255951 56.70006719 109.02915096 56.76497459 C97.40105516 56.79591325 85.77320306 56.83809429 74.14526367 56.90673828 C64.01039787 56.96653959 53.87570855 57.00525063 43.74067122 57.01863253 C38.37409688 57.02645499 33.00802744 57.04484017 27.64161491 57.0884819 C22.58952997 57.12923419 17.53815747 57.14176519 12.48592377 57.13274765 C10.6327712 57.13439711 8.77959459 57.1463165 6.92658424 57.16933441 C4.39268504 57.19926397 1.86146266 57.19198728 -0.67250061 57.17562866 C-1.76834531 57.20184424 -1.76834531 57.20184424 -2.88632828 57.22858942 C-8.08493539 57.1380894 -10.71519058 55.49302378 -14.40193075 52.13186038 C-18.05566765 47.87301388 -18.161091 43.82876901 -18.17724609 38.39941406 C-18.18390289 37.62024628 -18.19055969 36.84107849 -18.19741821 36.03829956 C-18.20752601 34.39258173 -18.21223581 32.74682306 -18.21191406 31.10107422 C-18.21628201 28.59435833 -18.25260376 26.08941179 -18.29052734 23.58300781 C-18.29639715 21.98014922 -18.30036545 20.3772823 -18.30224609 18.77441406 C-18.31661713 18.03047394 -18.33098816 17.28653381 -18.34579468 16.52005005 C-18.30056029 11.31987282 -17.2217672 8.38753426 -13.84130859 4.45410156 C-9.25997823 0.75972307 -5.74522815 -0.11673405 0 0 Z " fill="#FDC14F" transform="translate(32.84130859375,294.5458984375)"/>
<path d="M0 0 C-1.52367187 0.81791016 -1.52367187 0.81791016 -3.078125 1.65234375 C-36.63034189 19.91857017 -61.2233969 48.11178448 -73.4375 84.5625 C-74.00315847 86.6969551 -74.51865979 88.84496412 -75 91 C-75.17611816 91.74411133 -75.35223633 92.48822266 -75.53369141 93.25488281 C-84.30899083 131.15057351 -77.28011694 168.93923408 -57.22802734 202.06005859 C-53.8785631 207.35127984 -50.02920397 212.21522508 -46 217 C-45.15824219 218.00675781 -44.31648438 219.01351562 -43.44921875 220.05078125 C-31.78306975 233.57102245 -17.07034422 244.26390377 -1 252 C-1 252.66 -1 253.32 -1 254 C-7.7276955 252.15096543 -14.0202472 249.88776585 -20.3125 246.875 C-21.13572754 246.48103027 -21.95895508 246.08706055 -22.80712891 245.68115234 C-53.02753139 230.84525302 -76.79893125 203.83632811 -88.22998047 172.26953125 C-100.15026643 137.13605684 -98.93954898 100.95198454 -82.86328125 67.453125 C-76.37225209 54.46820783 -67.95205324 43.56393355 -58 33 C-57.40058594 32.33613281 -56.80117188 31.67226563 -56.18359375 30.98828125 C-46.04501746 20.19277777 -15.85121789 -4.88224369 0 0 Z " fill="#FBBF4E" transform="translate(327,235)"/>
<path d="M0 0 C33.66 0 67.32 0 102 0 C99.31031678 2.01726241 97.28675521 3.47450354 94.3828125 4.91015625 C79.45785643 12.44929453 67.01940748 21.40924471 55 33 C54.20980469 33.72703125 53.41960937 34.4540625 52.60546875 35.203125 C49.22429757 38.40072997 46.24706012 41.36659627 44.04003906 45.48950195 C38.7764368 54.97052564 38.7764368 54.97052564 33.99761963 56.74246216 C28.45189905 57.74570224 22.96622735 57.27347381 17.375 56.875 C11.64125 56.58625 5.9075 56.2975 0 56 C0 37.52 0 19.04 0 0 Z " fill="#F0E54B" transform="translate(205,224)"/>
<path d="M0 0 C6.431482 4.2472051 8.62729171 9.36232303 11.25 16.3125 C12.91184881 24.48325664 12.88421207 31.40754045 8.64453125 38.77734375 C2.01214504 47.74130517 -8.72443481 48.99794151 -19 51 C-20.06476563 51.226875 -21.12953125 51.45375 -22.2265625 51.6875 C-31.58520705 53.58559129 -39.65654732 54.40497391 -48 49 C-54.75588297 43.19989117 -57.47015154 36.76863613 -58.4375 28.0625 C-58.11866223 21.40676165 -55.79859041 15.44062785 -50.88671875 10.921875 C-47.02995994 7.77970224 -43.02850847 6.03800459 -38.375 4.375 C-37.58955811 4.08359131 -36.80411621 3.79218262 -35.99487305 3.49194336 C-33.67021925 2.63987808 -31.33809223 1.81438022 -29 1 C-28.34499512 0.76974121 -27.68999023 0.53948242 -27.01513672 0.30224609 C-17.21654127 -3.09108248 -9.66086647 -4.37207096 0 0 Z " fill="#010100" transform="translate(422,131)"/>
<path d="M0 0 C6.10594045 3.60224939 11.10053858 8.86486382 14.875 14.8125 C16.59264086 21.68306346 17.23781608 29.33082047 14.25 35.9375 C9.88447733 43.19821306 2.89802336 48.26111837 -3.61328125 53.484375 C-5.60537655 55.09256119 -7.52654392 56.73659539 -9.4375 58.4375 C-15.10692868 62.81842217 -20.28292283 64.19573183 -27.34375 63.97265625 C-34.59312541 62.92707326 -40.58213101 59.24107179 -45.00390625 53.44140625 C-48.73576063 47.51724138 -50.21401782 41.53327216 -49.1875 34.5625 C-47.39194901 27.76334691 -43.38571934 23.19446081 -38.6171875 18.18359375 C-36.11367572 15.48285998 -33.88165072 12.6586588 -31.625 9.75 C-23.90241216 0.18805673 -12.1687869 -5.3974458 0 0 Z " fill="#010100" transform="translate(372.1875,49.4375)"/>
<path d="M0 0 C4.51657777 3.27947895 7.45856349 8.71529441 9.01171875 13.97265625 C10.15163149 22.45225191 7.53034322 29.79866208 4.76171875 37.72265625 C4.36597656 38.91503906 3.97023438 40.10742188 3.5625 41.3359375 C0.40689097 50.59583942 -2.85803702 57.23156274 -10.98828125 62.97265625 C-17.76204812 66.21228388 -24.59470697 65.64851055 -31.61328125 63.47265625 C-38.56609319 60.707112 -42.8471844 55.95357807 -45.98828125 49.22265625 C-48.6942938 40.25488223 -45.53537663 29.51693135 -43.67578125 20.59765625 C-43.47533203 19.55738281 -43.27488281 18.51710938 -43.06835938 17.4453125 C-41.15623696 8.17477474 -37.80736552 2.49402716 -29.98828125 -3.02734375 C-20.36972532 -7.62752267 -9.08563254 -4.69454098 0 0 Z " fill="#010100" transform="translate(298.98828125,7.02734375)"/>
<path d="M0 0 C4.54154478 -0.08735463 9.08287232 -0.14051247 13.625 -0.1875 C15.55279297 -0.22520508 15.55279297 -0.22520508 17.51953125 -0.26367188 C19.38544922 -0.27817383 19.38544922 -0.27817383 21.2890625 -0.29296875 C23.00150146 -0.31653442 23.00150146 -0.31653442 24.74853516 -0.34057617 C29.74261606 0.18253112 32.96315102 1.85105924 36.3125 5.5625 C39.18393944 9.71013475 39.19012393 12.90104347 39.23828125 17.82421875 C39.246353 18.60384476 39.25442474 19.38347076 39.26274109 20.1867218 C39.2765838 21.84019751 39.28730512 23.49370183 39.29516602 25.1472168 C39.31231615 27.66055633 39.35619048 30.17255852 39.40039062 32.68554688 C39.41052345 34.29426119 39.41903771 35.90298666 39.42578125 37.51171875 C39.44328934 38.2567717 39.46079742 39.00182465 39.47883606 39.76945496 C39.45731173 45.02083631 38.52534449 48.98659455 35 53 C27.57670744 58.664903 18.49681373 57.50630564 9.59375 57.390625 C7.90125195 57.38315504 6.20874518 57.37746568 4.51623535 57.37347412 C0.08389981 57.35827712 -4.34790281 57.31904745 -8.7800293 57.2746582 C-13.31161289 57.23357662 -17.84328345 57.21543571 -22.375 57.1953125 C-31.25023282 57.15254664 -40.12507191 57.08436825 -49 57 C-49 54.69 -49 52.38 -49 50 C-47.81664062 49.96261719 -46.63328125 49.92523438 -45.4140625 49.88671875 C-33.38677221 49.42466918 -23.89660058 48.59062329 -13.91015625 41.3046875 C-12 40 -12 40 -9 39 C-7.91288264 37.14404793 -7.91288264 37.14404793 -7 35 C-6.19801943 33.76394413 -5.38512882 32.53491105 -4.5625 31.3125 C0.98627564 22.36550969 2.92581021 12.24888707 0.48730469 1.80395508 C0.24608887 0.91099731 0.24608887 0.91099731 0 0 Z " fill="#EFE44B" transform="translate(254,152)"/>
<path d="M0 0 C1.05096863 0.00604248 1.05096863 0.00604248 2.12316895 0.01220703 C4.70868599 0.03293486 7.29382598 0.08877887 9.87890625 0.140625 C15.67453125 0.223125 21.47015625 0.305625 27.44140625 0.390625 C27.44140625 19.200625 27.44140625 38.010625 27.44140625 57.390625 C21.46015625 57.473125 15.47890625 57.555625 9.31640625 57.640625 C6.50085205 57.69524902 6.50085205 57.69524902 3.62841797 57.75097656 C2.12598817 57.76266862 0.62354561 57.77285923 -0.87890625 57.78125 C-1.64710693 57.80171387 -2.41530762 57.82217773 -3.20678711 57.84326172 C-8.45806367 57.84664418 -11.45608663 56.95229665 -15.55859375 53.390625 C-19.67246312 48.61112538 -20.15414174 44.95340993 -20.08984375 38.921875 C-20.09367065 38.12334106 -20.09749756 37.32480713 -20.10144043 36.5020752 C-20.10415086 34.82119478 -20.09685063 33.14027157 -20.08007812 31.45947266 C-20.05865375 28.89779954 -20.07990696 26.33893044 -20.10546875 23.77734375 C-20.10282532 22.13801469 -20.09770001 20.49868737 -20.08984375 18.859375 C-20.09794067 18.09983521 -20.1060376 17.34029541 -20.11437988 16.55773926 C-20.02448046 11.41738812 -19.07701137 8.37206752 -15.55859375 4.390625 C-10.28305547 0.53362124 -6.42927439 -0.17743638 0 0 Z " fill="#F9BE4E" transform="translate(75.55859375,222.609375)"/>
<path d="M0 0 C0.70189453 0.00451172 1.40378906 0.00902344 2.12695312 0.01367188 C3.85550538 0.02543073 5.58401365 0.04336546 7.3125 0.0625 C7.29678955 0.64741211 7.2810791 1.23232422 7.26489258 1.83496094 C7.20239733 4.49404164 7.16346431 7.15296764 7.125 9.8125 C7.09986328 10.73289063 7.07472656 11.65328125 7.04882812 12.6015625 C7.03916016 13.49101562 7.02949219 14.38046875 7.01953125 15.296875 C7.0038208 16.11381836 6.98811035 16.93076172 6.97192383 17.77246094 C7.3996301 20.64836406 8.28166966 22.00149866 10.3125 24.0625 C11.42625 24.145 12.54 24.2275 13.6875 24.3125 C17.3125 25.0625 17.3125 25.0625 18.703125 26.71875 C19.53689471 28.13299228 20.34114664 29.56499357 21.1171875 31.01171875 C22.33853283 33.33404454 22.33853283 33.33404454 25.0625 35.625 C27.3125 38.0625 27.3125 38.0625 27.5625 41.625 C27.90687146 45.05683805 27.90687146 45.05683805 29.9831543 46.24682617 C36.02248359 48.92749795 41.30147961 49.70639769 47.875 49.8125 C48.78830078 49.84214844 49.70160156 49.87179688 50.64257812 49.90234375 C52.86596923 49.9721885 55.08836468 50.02529745 57.3125 50.0625 C57.3125 52.3725 57.3125 54.6825 57.3125 57.0625 C48.95850479 57.15539648 40.60472729 57.22636382 32.25034237 57.26974869 C28.37056604 57.2905769 24.49114446 57.31880607 20.61157227 57.36425781 C16.86383669 57.40788759 13.1164412 57.43167293 9.36847115 57.44200897 C7.94237481 57.44936982 6.51629597 57.46374386 5.09034538 57.48542023 C-9.2764819 57.69502515 -9.2764819 57.69502515 -14.6875 53.0625 C-18.54109536 48.43477644 -19.27763081 43.88212283 -19.18359375 37.93359375 C-19.1857766 36.8045034 -19.1857766 36.8045034 -19.18800354 35.65260315 C-19.18635367 34.07182925 -19.17489524 32.49103774 -19.15405273 30.91040039 C-19.12503277 28.50271887 -19.13347464 26.09723554 -19.14648438 23.68945312 C-19.14024742 22.14582273 -19.13185681 20.60219922 -19.12109375 19.05859375 C-19.12402939 18.34593857 -19.12696503 17.63328339 -19.12998962 16.89903259 C-19.04262904 12.23160526 -18.13287143 9.03233496 -15.6875 5.0625 C-10.61780155 0.37302894 -6.68056847 -0.08109 0 0 Z " fill="#F9BD4E" transform="translate(45.6875,151.9375)"/>
<path d="M0 0 C1 2 1 2 -0.02539062 5.29589844 C-0.56092553 6.73675481 -1.10529074 8.17434587 -1.65625 9.609375 C-2.09660332 10.78199387 -2.09660332 10.78199387 -2.54585266 11.978302 C-3.52268457 14.57192353 -4.51104266 17.16098 -5.5 19.75 C-6.18483367 21.55862601 -6.86931819 23.36738427 -7.5534668 25.17626953 C-13.68756071 41.34960129 -20.0466042 57.43328661 -26.42683411 73.51066589 C-29.24124076 80.60389426 -32.04341785 87.70142694 -34.8125 94.8125 C-35.21509033 95.83134277 -35.61768066 96.85018555 -36.0324707 97.89990234 C-41.64790197 112.3903039 -42.90816351 125.09438717 -36.84375 139.8046875 C-35.09997767 142.33913433 -35.09997767 142.33913433 -31.64453125 142.70703125 C-30.37996094 142.74183594 -29.11539063 142.77664062 -27.8125 142.8125 C-26.54019531 142.86019531 -25.26789063 142.90789062 -23.95703125 142.95703125 C-22.98121094 142.97121094 -22.00539062 142.98539063 -21 143 C-21 143.33 -21 143.66 -21 144 C-25.16665169 144.02926019 -29.33327659 144.04688594 -33.5 144.0625 C-34.67304687 144.07087891 -35.84609375 144.07925781 -37.0546875 144.08789062 C-46.87190983 144.11546709 -46.87190983 144.11546709 -51.65625 143.40625 C-55.56024591 142.93193274 -56.95151 143.61836719 -60 146 C-63.97591855 143.12850327 -66.55289097 140.25978238 -69 136 C-69 135.01 -69 134.02 -69 133 C-68.505 132.59652344 -68.01 132.19304687 -67.5 131.77734375 C-65.52173901 129.43331055 -65.84135737 127.67675894 -65.94262695 124.71069336 C-66.25057311 113.18040287 -61.56242343 105.28774571 -55.65625 95.70263672 C-53.38414292 91.99505632 -51.21266206 88.23196202 -49.03393555 84.46899414 C-47.2788865 81.44202613 -45.50955237 78.42374969 -43.73828125 75.40625 C-39.77385724 68.63347375 -35.8840087 61.81902434 -32 55 C-21.4976111 36.57075456 -10.77417877 18.27141837 0 0 Z " fill="#76BFA1" transform="translate(132,43)"/>
<path d="M0 0 C5.45613619 0.65861052 8.73234327 1.39620098 13 5 C17.31924764 10.96720636 17.57707555 15.77292663 17.5300293 23.01245117 C17.54312637 24.64294655 17.54312637 24.64294655 17.55648804 26.30638123 C17.58080889 29.88541304 17.57745673 33.46386497 17.57421875 37.04296875 C17.58666592 39.53445925 17.6010007 42.02594097 17.61714172 44.51741028 C17.65127126 50.39856608 17.66855569 56.27957129 17.6769169 62.16081649 C17.69369606 73.32353498 17.75315871 84.4860946 17.80869484 95.64867592 C17.82405286 99.31585831 17.83123405 102.98298337 17.83683777 106.65019226 C17.8438529 108.89203927 17.85095374 111.133886 17.8581543 113.37573242 C17.85762558 114.39763672 17.85709686 115.41954102 17.85655212 116.47241211 C17.8605603 117.4101799 17.86456848 118.34794769 17.86869812 119.31413269 C17.8699554 120.1272803 17.87121267 120.94042791 17.87250805 121.77821636 C17.99847299 123.97338907 18.39262371 125.89165167 19 128 C8.06621887 128.5834231 8.06621887 128.5834231 3 125 C-1.1903347 120.169284 -0.39953153 114.45182769 -0.34057617 108.41674805 C-0.34101425 107.24558945 -0.34145233 106.07443085 -0.34190369 104.86778259 C-0.33981464 100.99892474 -0.31647717 97.13050086 -0.29296875 93.26171875 C-0.28737321 90.57842779 -0.28295534 87.89516084 -0.28010559 85.21186829 C-0.27078982 78.87250196 -0.24618249 72.53329126 -0.21605712 66.19399339 C-0.18249846 58.97517343 -0.16602344 51.75634594 -0.15097082 44.53746736 C-0.11963243 29.6915608 -0.06688113 14.84579068 0 0 Z " fill="#78C2A3" transform="translate(118,194)"/>
<path d="M0 0 C0.66 0 1.32 0 2 0 C1.75582562 4.15096454 1.43455006 6.45370849 -1.1875 9.75 C-6.51135604 14.00908483 -10.90224813 15.44631546 -17.65771484 15.34057617 C-18.39986237 15.34101425 -19.14200989 15.34145233 -19.90664673 15.34190369 C-22.34168486 15.33982596 -24.77602075 15.31654389 -27.2109375 15.29296875 C-28.90629704 15.28736916 -30.60166145 15.28310078 -32.29702759 15.28010559 C-36.74572295 15.26868535 -41.19412157 15.23924267 -45.6427002 15.20599365 C-50.18754056 15.17523177 -54.73242915 15.16158721 -59.27734375 15.14648438 C-68.18502576 15.11437008 -77.09248814 15.06320807 -86 15 C-86 12.69 -86 10.38 -86 8 C-84.81664062 7.96261719 -83.63328125 7.92523438 -82.4140625 7.88671875 C-73.88175604 7.5546311 -66.04618138 7.13001559 -58 4 C-57.01 3.67 -56.02 3.34 -55 3 C-55 3.66 -55 4.32 -55 5 C-48.75571971 4.93081024 -42.51208913 4.84269204 -36.26831055 4.73754883 C-34.14729053 4.70443565 -32.02618527 4.676362 -29.9050293 4.65356445 C-26.84387116 4.61976731 -23.78348462 4.56743951 -20.72265625 4.51171875 C-19.78478775 4.50532883 -18.84691925 4.4989389 -17.88063049 4.49235535 C-8.26867484 4.29312057 -8.26867484 4.29312057 0 0 Z " fill="#F3B94C" transform="translate(291,194)"/>
<path d="M0 0 C4.114276 0.23083397 7.13142323 1.2291751 10.625 3.5 C13.05120903 8.35241805 11.54936688 13.2109536 9.98046875 18.109375 C9.26914152 20.16021456 8.54616496 22.20704502 7.8125 24.25 C7.45607422 25.29027344 7.09964844 26.33054687 6.73242188 27.40234375 C3.69053316 36.0312611 3.69053316 36.0312611 0.625 38.5 C-2.44453098 39.17834939 -5.29104384 39.07893762 -8.375 38.5 C-10.9375 36.5 -10.9375 36.5 -12.375 33.5 C-12.72709207 27.22447664 -11.85285815 21.45637231 -10.625 15.3125 C-10.46773438 14.43658203 -10.31046875 13.56066406 -10.1484375 12.65820312 C-8.95373869 6.59740415 -7.46893383 -0.31448142 0 0 Z " fill="#F1EE8F" transform="translate(280.375,17.5)"/>
<path d="M0 0 C4.55080202 1.36524061 6.41801461 3.29744696 9.5625 6.7265625 C11.32651326 10.28940507 10.84128007 12.34685612 9.75 16.125 C7.93549365 18.26941659 6.37452399 19.86497609 4.25 21.625 C3.70899658 22.09204346 3.16799316 22.55908691 2.6105957 23.0402832 C1.51665098 23.97755785 0.41553965 24.90653818 -0.69287109 25.82666016 C-2.08453891 26.98703793 -3.44501388 28.18459117 -4.80078125 29.38671875 C-8.26657399 32.33773053 -10.48024827 33.97104965 -15 34.875 C-19.22612506 33.89974037 -20.7620961 32.66837828 -23.25 29.125 C-24.125 25.9375 -24.125 25.9375 -23.25 22.125 C-21.25905183 19.47337845 -19.0830666 17.14056387 -16.7734375 14.76171875 C-13.57426071 11.41892567 -10.79443507 7.82064397 -7.9765625 4.15625 C-5.44306244 1.17566169 -3.94664376 0.15179399 0 0 Z " fill="#F2EF90" transform="translate(362.25,62.875)"/>
<path d="M0 0 C2.36085129 1.73957464 3.59762093 3.0611155 4.75 5.75 C5.75720165 14.81481481 5.75720165 14.81481481 3.65234375 18.109375 C-0.45013843 21.03367747 -4.84171281 21.46209074 -9.75 22.25 C-10.71421875 22.42273438 -11.6784375 22.59546875 -12.671875 22.7734375 C-27.03836131 25.23291749 -27.03836131 25.23291749 -30.9453125 22.77734375 C-32.20970532 20.6466077 -32.60102093 19.0241604 -32.875 16.5625 C-32.97554688 15.80066406 -33.07609375 15.03882813 -33.1796875 14.25390625 C-32.94207924 11.27347224 -31.99850088 10.20515851 -30 8 C-27.65917969 6.81152344 -27.65917969 6.81152344 -24.921875 5.859375 C-23.92542969 5.51132813 -22.92898438 5.16328125 -21.90234375 4.8046875 C-20.86207031 4.45664063 -19.82179688 4.10859375 -18.75 3.75 C-17.72519531 3.38648438 -16.70039063 3.02296875 -15.64453125 2.6484375 C-10.27813052 0.8112913 -5.68297624 -0.67037789 0 0 Z " fill="#F2EF90" transform="translate(413,144)"/>
<path d="M0 0 C14.017991 4.2053973 14.017991 4.2053973 18.1953125 10.921875 C20.10878174 15.86345574 18.41500841 20.979771 16.5 25.6875 C13.75759623 29.99699164 9.50250221 32.73735976 5 35 C2.525 35.495 2.525 35.495 0 36 C0 24.12 0 12.24 0 0 Z " fill="#FABE4E" transform="translate(371,367)"/>
<path d="M0 0 C13.86 0 27.72 0 42 0 C38 7 38 7 36 10 C33.23371085 10.2667616 30.69380369 10.34804189 27.9296875 10.29296875 C27.13345978 10.28872391 26.33723206 10.28447906 25.51687622 10.28010559 C22.96924271 10.26328834 20.42239511 10.22563179 17.875 10.1875 C16.14975099 10.17245705 14.42448961 10.15876796 12.69921875 10.14648438 C8.46584218 10.11337501 4.23305441 10.06157285 0 10 C0 6.7 0 3.4 0 0 Z " fill="#FEC24F" transform="translate(205,270)"/>
<path d="M0 0 C1.32 0 2.64 0 4 0 C4 15.18 4 30.36 4 46 C1.36 46 -1.28 46 -4 46 C-4.09943082 40.73475555 -4.17173199 35.47006657 -4.21972656 30.20410156 C-4.23974959 28.41559316 -4.26697654 26.62714946 -4.30175781 24.83886719 C-4.35068955 22.25699838 -4.37306165 19.6760005 -4.390625 17.09375 C-4.41127014 16.30383667 -4.43191528 15.51392334 -4.45318604 14.70007324 C-4.45552645 8.81127551 -2.93690216 5.10147018 0 0 Z " fill="#F1E54C" transform="translate(98,224)"/>
<path d="M0 0 C0 8.91 0 17.82 0 27 C-6.79297597 24.73567468 -6.79297597 24.73567468 -9.8125 22.5 C-10.39644531 22.0771875 -10.98039062 21.654375 -11.58203125 21.21875 C-14.1229646 19.03480728 -14.02679584 17.67844994 -14.3125 14.25 C-14.24019921 9.81555162 -12.93219923 7.39517806 -10 4 C-6.25109423 1.03211627 -4.84230383 0 0 0 Z " fill="#F0B74B" transform="translate(356,319)"/>
<path d="M0 0 C1.14926266 0.95421808 2.29430541 1.91352045 3.4375 2.875 C4.07558594 3.40867188 4.71367188 3.94234375 5.37109375 4.4921875 C8.56965193 7.45296318 8.40504071 10.83528494 9 15 C9.33 15.66 9.66 16.32 10 17 C8.52093108 17.02689216 7.04172517 17.04634621 5.5625 17.0625 C4.32693359 17.07990234 4.32693359 17.07990234 3.06640625 17.09765625 C1 17 1 17 0 16 C-0.07319621 13.30345146 -0.09242537 10.63308542 -0.0625 7.9375 C-0.05798828 7.17888672 -0.05347656 6.42027344 -0.04882812 5.63867188 C-0.0370068 3.75908129 -0.01907078 1.87953101 0 0 Z " fill="#EFE24D" transform="translate(65,182)"/>
<path d="M0 0 C1 2 1 2 0.58203125 3.875 C-1.51579094 9.66797093 -1.51579094 9.66797093 -4.1875 11.5 C-4.785625 11.665 -5.38375 11.83 -6 12 C-4.43358249 7.69235185 -2.31663844 3.93828536 0 0 Z " fill="#6DAF94" transform="translate(132,43)"/>
</svg>
