<?xml version="1.0" encoding="UTF-8"?>
<svg version="1.1" xmlns="http://www.w3.org/2000/svg" width="512" height="512">
<path d="M0 0 C1.71799805 -0.04930664 1.71799805 -0.04930664 3.47070312 -0.09960938 C11.87362062 -0.15369486 11.87362062 -0.15369486 15.20703125 2.70703125 C15.65433594 3.60808594 16.10164063 4.50914063 16.5625 5.4375 C17.18898438 6.49324219 17.18898438 6.49324219 17.828125 7.5703125 C18.15296875 8.22773437 18.4778125 8.88515625 18.8125 9.5625 C19.14765625 10.22507812 19.4828125 10.88765625 19.828125 11.5703125 C20.5625 13.4375 20.5625 13.4375 20.5625 16.4375 C21.305 16.581875 22.0475 16.72625 22.8125 16.875 C25.5625 17.4375 25.5625 17.4375 27.40234375 18.09765625 C30.38461607 18.56683833 32.12206755 17.62122202 34.875 16.4375 C39.60694534 14.64889997 42.62689963 13.66813383 47.5625 15.4375 C50.53899232 17.4883758 53.02767319 19.86913106 55.5625 22.4375 C56.31660156 23.1696875 57.07070313 23.901875 57.84765625 24.65625 C63.34691784 30.32039245 63.34691784 30.32039245 64.25 35 C63.57024286 38.39878571 62.53848815 41.3258959 61.2421875 44.5234375 C59.88331163 48.3501569 60.01818478 51.25969846 61.70703125 54.9140625 C64.00516811 58.03952864 66.11082739 59.03230695 69.625 60.625 C75.40554933 63.28054933 75.40554933 63.28054933 77.5625 65.4375 C78.04921964 69.70999863 77.93290423 74.01545573 77.9375 78.3125 C77.96199219 79.51003906 77.98648437 80.70757812 78.01171875 81.94140625 C78.01558594 83.09253906 78.01945312 84.24367188 78.0234375 85.4296875 C78.03165527 86.48526855 78.03987305 87.54084961 78.04833984 88.62841797 C77.44285925 92.12925197 76.30837156 93.25596881 73.5625 95.4375 C71.73653055 96.2537534 69.87909094 97.00233487 68 97.6875 C64.31906527 99.3108613 61.87508435 100.4079405 60.125 104.125 C58.9239329 108.67189687 60.65773506 111.93113288 62.54296875 116.0546875 C64.00669793 119.47566375 64.25293289 121.77820566 63.5625 125.4375 C62.2156657 126.987701 62.2156657 126.987701 60.57090569 128.60313511 C56.97289546 132.67401103 56.71094193 135.80635445 56.80300903 141.09983826 C56.79379893 141.94703102 56.78458883 142.79422378 56.77509964 143.66708905 C56.75159142 146.49281035 56.7705982 149.31660285 56.78955078 152.14233398 C56.78137724 154.17290928 56.77057326 156.20347543 56.75733948 158.23402405 C56.72891187 163.7377557 56.73725288 169.2408888 56.75220728 174.7446506 C56.76158741 180.49959478 56.73713647 186.2543929 56.71627808 192.0092926 C56.68193239 202.90306655 56.67800124 213.79663059 56.68500316 224.69044787 C56.69149434 237.09430742 56.66407034 249.49801949 56.63380075 261.90183532 C56.57230254 287.41373855 56.55338465 312.92553119 56.5625 338.4375 C57.67109375 338.41429687 58.7796875 338.39109375 59.921875 338.3671875 C61.38540992 338.34842423 62.84895214 338.33022463 64.3125 338.3125 C65.04210937 338.29574219 65.77171875 338.27898437 66.5234375 338.26171875 C73.46253453 338.19863605 73.46253453 338.19863605 76.5625 340.4375 C79.2190543 345.75060861 77.87675918 354.3300798 77.91259766 360.24584961 C77.92903697 362.2290429 77.95616452 364.21217997 77.99462891 366.19506836 C78.33081453 383.63140882 76.2578561 396.0327276 64 409.1875 C54.509497 417.94796431 44.10409214 422.68020987 31.08636951 422.69476891 C30.37529331 422.69827498 29.66421711 422.70178105 28.93159315 422.70539337 C26.56066469 422.71466056 24.18998439 422.70979627 21.81904602 422.70492554 C20.09723801 422.70866416 18.37543169 422.71326653 16.65362805 422.71865618 C11.93092345 422.7308754 7.20828974 422.73062698 2.48557293 422.72826743 C-2.61138998 422.72785899 -7.70833025 422.73890105 -12.80528259 422.74838257 C-22.78820702 422.76498785 -32.77110783 422.77049191 -42.75404491 422.77160732 C-50.87016536 422.77255806 -58.98627803 422.77666964 -67.10239601 422.78300858 C-90.12036803 422.80062002 -113.13832141 422.80984765 -136.15630021 422.80834763 C-137.39692573 422.80826772 -138.63755125 422.8081878 -139.91577148 422.80810547 C-141.15791441 422.80802371 -142.40005734 422.80794195 -143.67984096 422.80785771 C-163.80734556 422.80704493 -183.93477531 422.82618084 -204.06225827 422.8543822 C-224.73615651 422.88312024 -245.41001826 422.89692197 -266.08393699 422.89519465 C-277.68786869 422.89453105 -289.29172192 422.9000103 -300.8956356 422.92155075 C-310.77614537 422.93977466 -320.6565411 422.94409993 -330.5370604 422.9305319 C-335.57564434 422.9240083 -340.61400958 422.92386319 -345.65257263 422.9412384 C-350.27110611 422.95700097 -354.88924807 422.954073 -359.50777218 422.93667014 C-361.17262724 422.93360725 -362.83751175 422.93720567 -364.50233205 422.94839029 C-379.77218748 423.04412756 -392.52850379 420.51775238 -404.125 410 C-404.888125 409.154375 -405.65125 408.30875 -406.4375 407.4375 C-406.91832031 406.94894531 -407.39914062 406.46039063 -407.89453125 405.95703125 C-414.15223583 399.28742713 -418.51409793 390.31917638 -418.59863281 381.08374023 C-418.60824036 380.2328331 -418.6178479 379.38192596 -418.62774658 378.50523376 C-418.63199646 377.59471756 -418.63624634 376.68420135 -418.640625 375.74609375 C-418.64632507 374.80443863 -418.65202515 373.86278351 -418.65789795 372.89259338 C-418.66733138 370.90472533 -418.67387534 368.91684176 -418.67773438 366.92895508 C-418.68747537 363.88270122 -418.7185285 360.83711224 -418.75 357.79101562 C-418.75652692 355.85937901 -418.76177861 353.92773757 -418.765625 351.99609375 C-418.7779718 351.08355331 -418.7903186 350.17101288 -418.80303955 349.2308197 C-418.7985379 347.95918724 -418.7985379 347.95918724 -418.79394531 346.66186523 C-418.79759094 345.91670151 -418.80123657 345.17153778 -418.80499268 344.40379333 C-418.33433215 341.88549372 -417.40217361 341.02921931 -415.4375 339.4375 C-412.12755287 337.78252644 -408.44627 338.33665665 -404.8125 338.375 C-404.01070313 338.37951172 -403.20890625 338.38402344 -402.3828125 338.38867188 C-400.40100994 338.40046832 -398.41924567 338.41840395 -396.4375 338.4375 C-396.44210896 337.20651203 -396.44671793 335.97552406 -396.45146656 334.70723343 C-396.55987367 305.45297636 -396.6422614 276.19876511 -396.69282665 246.94435681 C-396.6990798 243.33969456 -396.70555145 239.73503272 -396.7121582 236.13037109 C-396.71346976 235.41278066 -396.71478131 234.69519022 -396.7161326 233.95585462 C-396.73785932 222.35324708 -396.77726564 210.75076404 -396.82326398 199.14823022 C-396.87010497 187.2333293 -396.89781149 175.31849335 -396.90794247 163.40350413 C-396.91417348 156.71503304 -396.92972213 150.02686121 -396.96615028 143.33847809 C-397.00018611 137.0380608 -397.01053738 130.73804055 -397.00303841 124.43754005 C-397.00440953 122.13015139 -397.01429619 119.82274891 -397.03352737 117.51543999 C-397.1553505 102.14017688 -396.62071334 89.2052904 -385.4375 77.4375 C-377.28448968 69.80189226 -367.65422501 65.3207409 -356.39810085 65.30721474 C-355.40132806 65.30359039 -354.40455527 65.29996604 -353.37757725 65.29623187 C-351.7459723 65.29783424 -351.7459723 65.29783424 -350.08140564 65.29946899 C-348.92022691 65.29664771 -347.75904818 65.29382643 -346.56268221 65.29091966 C-343.34364622 65.28402868 -340.12464117 65.281548 -336.905599 65.28086853 C-333.43249705 65.2790264 -329.95940751 65.27141833 -326.48631287 65.26438904 C-320.46936638 65.25287108 -314.45242269 65.24462292 -308.43546867 65.23826981 C-298.92795338 65.22794066 -289.42047298 65.20737751 -279.91297913 65.18515015 C-276.6601516 65.17767086 -273.40732392 65.17025711 -270.15449619 65.16286278 C-269.34163581 65.16101221 -268.52877543 65.15916165 -267.69128291 65.157255 C-258.44157155 65.13633425 -249.19185635 65.11750158 -239.94213867 65.09960938 C-239.09668083 65.09797119 -238.25122298 65.09633301 -237.3801452 65.09464519 C-223.66766848 65.06833861 -209.95518907 65.04970597 -196.24269777 65.03301747 C-182.16705393 65.01561008 -168.09146309 64.98678181 -154.01586157 64.9481281 C-145.33165394 64.92470753 -136.64753267 64.91073169 -127.9632932 64.90880047 C-122.01606019 64.90669458 -116.06891322 64.89379477 -110.12171882 64.87232114 C-106.6883115 64.86026886 -103.25507503 64.8531562 -99.82164764 64.85903358 C-96.10311296 64.86290471 -92.38508804 64.84854976 -88.66661072 64.82949829 C-87.57664337 64.83502799 -86.48667601 64.84055768 -85.36367935 64.84625494 C-83.87243178 64.83299518 -83.87243178 64.83299518 -82.35105801 64.81946754 C-81.49256266 64.81811102 -80.63406731 64.81675449 -79.74955696 64.81535685 C-76.92884082 64.35437041 -75.59889472 63.26120764 -73.4375 61.4375 C-71.91840803 60.66240017 -70.37552232 59.93218867 -68.8125 59.25 C-67.64847656 58.73373047 -67.64847656 58.73373047 -66.4609375 58.20703125 C-64.4375 57.4375 -64.4375 57.4375 -62.4375 57.4375 C-60.4288662 51.94090075 -60.15161844 48.29886474 -62.375 42.8125 C-62.77589844 41.95398438 -63.17679687 41.09546875 -63.58984375 40.2109375 C-64.75910791 36.3852345 -64.57095545 34.2953702 -63.4375 30.4375 C-61.350106 27.50137727 -58.89889615 25.06005048 -56.3125 22.5625 C-55.66023438 21.88703125 -55.00796875 21.2115625 -54.3359375 20.515625 C-51.18332469 17.40054329 -49.09313579 15.63012804 -44.78125 14.36328125 C-41.28384943 14.44091047 -39.20937673 15.03051252 -36.0625 16.5 C-31.3286082 18.3739682 -28.07548128 18.88605103 -23.171875 17.390625 C-21.15633349 16.49693686 -21.15633349 16.49693686 -20.125 13.8125 C-19.7846875 12.141875 -19.7846875 12.141875 -19.4375 10.4375 C-18.83451365 9.00207233 -18.18609931 7.5851097 -17.5 6.1875 C-17.18160156 5.52234375 -16.86320312 4.8571875 -16.53515625 4.171875 C-12.96961164 -1.46193926 -5.83241846 0.02944014 0 0 Z " fill="#020202" transform="translate(426.4375,44.5625)"/>
<path d="M0 0 C96.03 0 192.06 0 291 0 C290 6 290 6 289 8 C288.4402711 11.49830564 288.32075398 13.94385527 290.28125 16.9921875 C292.09597444 19.11211559 293.99110191 21.06311901 296 23 C296.68320312 23.66902344 297.36640625 24.33804688 298.0703125 25.02734375 C302.80855468 29.48222169 302.80855468 29.48222169 309 31 C311.73286489 30.22769868 311.73286489 30.22769868 314.4375 29 C318.74307546 27.32978348 321.48922261 26.38900808 326 28 C330.79949215 30.25722504 332.36938169 32.92625233 334.6875 37.625 C336.54999335 42.06938569 336.54999335 42.06938569 340 45 C347.59 45.33 355.18 45.66 363 46 C363 106.39 363 166.78 363 229 C345.51 229 328.02 229 310 229 C309.67 225.37 309.34 221.74 309 218 C306.50607111 213.74039694 301.95242168 212.65284874 297.53369141 210.90576172 C283.6178286 205.25490441 283.6178286 205.25490441 279.97973633 197.97363281 C276.0740717 188.38406037 277.18772338 181.20639721 281.0625 171.9375 C281.34416016 171.26912109 281.62582031 170.60074219 281.91601562 169.91210938 C282.18220703 169.24888672 282.44839844 168.58566406 282.72265625 167.90234375 C283.09015991 167.02823853 283.09015991 167.02823853 283.46508789 166.13647461 C284.27670506 162.89482156 284.35892702 160.33472161 284 157 C282.3941558 154.68130751 281.01030549 153.00178265 279.03125 151.06640625 C278.51751831 150.5436058 278.00378662 150.02080536 277.4744873 149.48216248 C276.38686521 148.38542617 275.29031169 147.29748367 274.18554688 146.21801758 C272.50592521 144.56831965 270.87012398 142.88253205 269.234375 141.18945312 C268.1690767 140.12518632 267.1014399 139.0632541 266.03125 138.00390625 C265.54756958 137.50089493 265.06388916 136.99788361 264.56555176 136.47962952 C261.77925832 133.82100903 259.70051255 132.6778012 255.91845703 132.58935547 C252.6629968 132.93051959 250.25559821 133.31830185 247.2734375 134.56640625 C246.4690625 134.88673828 245.6646875 135.20707031 244.8359375 135.53710938 C243.18726877 136.22405468 241.53883333 136.91156014 239.890625 137.59960938 C235.12517506 139.49582941 232.09980577 140.47015091 227 139 C225.92363281 138.80148437 224.84726562 138.60296875 223.73828125 138.3984375 C216.59954914 136.26577181 213.26142498 134.06810994 209.71484375 127.5546875 C207.25632591 122.54462469 205.06400243 117.43327644 203.01464844 112.24316406 C202.09586663 109.8606372 202.09586663 109.8606372 200 108 C197.10776497 107.53603307 197.10776497 107.53603307 193.875 107.375 C192.77929688 107.30023438 191.68359375 107.22546875 190.5546875 107.1484375 C189.29011719 107.07496094 189.29011719 107.07496094 188 107 C187.77144831 100.13216267 187.61405552 93.26530757 187.50561523 86.39453125 C187.46040576 84.05854654 187.39902395 81.72281581 187.32104492 79.38769531 C187.21161284 76.02605605 187.16078127 72.66778514 187.12109375 69.3046875 C187.07464218 68.26384003 187.02819061 67.22299255 186.98033142 66.15060425 C186.97826844 63.1748123 187.07270853 60.83069423 188 58 C190.13421559 55.92416981 192.18513105 54.60445268 194.81800842 53.22634888 C198.92334907 50.91901646 200.53535648 47.39393055 202 43 C202.69518154 35.74031844 202.92497383 29.57587303 198.4140625 23.578125 C193.45038246 18.03854838 187.88832053 15.57604749 180.625 14.5 C174.24960275 15.37936514 168.25195654 18.11865705 164 23.0625 C159.4874983 29.69023688 159.25484675 35.02303894 160 43 C161.73609943 49.8015541 166.2218421 53.3855246 172 57 C172.66 57.33 173.32 57.66 174 58 C174 74.17 174 90.34 174 107 C170.37 107.33 166.74 107.66 163 108 C157.58160353 111.22293599 155.72255314 119.20184539 153.44335938 124.82226562 C149.97697624 132.97457397 149.97697624 132.97457397 145 135 C144.05382812 135.46921875 143.10765625 135.9384375 142.1328125 136.421875 C141.14023438 136.86015625 140.14765625 137.2984375 139.125 137.75 C138.13757813 138.19859375 137.15015625 138.6471875 136.1328125 139.109375 C128.97501435 141.14426026 122.56202622 137.84467067 116.04882812 135.08398438 C115.38431641 134.81779297 114.71980469 134.55160156 114.03515625 134.27734375 C113.15935913 133.90984009 113.15935913 133.90984009 112.26586914 133.53491211 C108.79307255 132.71507617 105.512443 132.40582993 102 133 C98.87552108 134.93719355 98.87552108 134.93719355 96.22265625 137.78515625 C95.72583847 138.27906357 95.22902069 138.77297089 94.71714783 139.28184509 C93.67662556 140.32567162 92.64591017 141.37935728 91.62475586 142.44213867 C90.06624996 144.05861057 88.47371683 145.63437355 86.87304688 147.20898438 C80.04382348 153.88766489 80.04382348 153.88766489 78 163 C78.64156025 165.58447468 78.64156025 165.58447468 79.86328125 167.93359375 C87.16359238 184.31919852 87.16359238 184.31919852 84.61401367 192.05883789 C81.64342237 199.16257176 78.29837077 204.24278826 71.0859375 207.47265625 C70.16039062 207.89740234 69.23484375 208.32214844 68.28125 208.75976562 C67.3221875 209.18966797 66.363125 209.61957031 65.375 210.0625 C63.46260167 210.92052938 61.55355893 211.78608867 59.6484375 212.66015625 C58.80458496 213.03793213 57.96073242 213.41570801 57.09130859 213.80493164 C54.7009375 214.96412454 54.7009375 214.96412454 53 218 C52.67 221.63 52.34 225.26 52 229 C34.84 229 17.68 229 0 229 C0 153.43 0 77.86 0 0 Z " fill="#D7EBFD" transform="translate(75,155)"/>
<path d="M0 0 C58.74 0 117.48 0 178 0 C178.33 6.27 178.66 12.54 179 19 C182.95523553 22.11441446 182.95523553 22.11441446 187.33314514 22.36749268 C188.62225548 22.37584641 188.62225548 22.37584641 189.93740845 22.3843689 C191.33943008 22.37054672 191.33943008 22.37054672 192.76977539 22.35644531 C193.76040482 22.35848969 194.75103424 22.36053406 195.77168274 22.36264038 C199.04719481 22.36564927 202.32220398 22.34716825 205.59765625 22.328125 C207.87161637 22.32506758 210.14557835 22.32319133 212.41954041 22.32244873 C217.18512133 22.31784503 221.95053333 22.30341575 226.71606445 22.28125 C232.8318705 22.25295163 238.94754355 22.24203689 245.06340885 22.2375679 C249.75847205 22.23341579 254.45350823 22.22360029 259.14855766 22.21169281 C261.40406515 22.20598657 263.65957524 22.20122903 265.91508675 22.19742584 C269.06331087 22.19056869 272.21142883 22.17693909 275.35961914 22.16113281 C276.29632446 22.16001495 277.23302979 22.15889709 278.19812012 22.15774536 C279.05470718 22.15203522 279.91129425 22.14632507 280.7938385 22.14044189 C281.53806092 22.13746723 282.28228334 22.13449257 283.04905796 22.13142776 C285.21668422 22.06763186 285.21668422 22.06763186 288 21 C291.22552671 15.20547875 291.22552671 15.20547875 291 0 C349.41 0 407.82 0 468 0 C468 35.68932039 468 35.68932039 458 46 C447.3779062 55.04553071 435.61850092 55.44035401 422.29956055 55.38095093 C420.60688571 55.38441124 418.91421312 55.38917831 417.22154522 55.39513266 C412.58873778 55.40762099 407.95611646 55.40148214 403.32330847 55.39217401 C398.31982526 55.38537498 393.31637363 55.39586898 388.31289673 55.40411377 C378.51839501 55.41744416 368.72396231 55.41457644 358.9294579 55.40587585 C350.96829618 55.39909699 343.00715378 55.39818346 335.04598999 55.4014473 C333.91233401 55.401907 332.77867803 55.40236669 331.61066884 55.40284032 C329.30757148 55.40379951 327.00447414 55.40477215 324.7013768 55.4057581 C303.11206848 55.41430996 281.5227984 55.40448104 259.93349636 55.388357 C241.41430395 55.37495401 222.89516795 55.37728216 204.37597656 55.39111328 C182.863206 55.40717267 161.35046893 55.41348601 139.83769321 55.40427649 C137.54313215 55.40332086 135.24857108 55.40237774 132.95401001 55.4014473 C131.8250818 55.40098447 130.69615359 55.40052164 129.53301543 55.40004479 C121.58266087 55.39745599 113.63232758 55.40182355 105.68197632 55.40888596 C95.9913796 55.41730513 86.30085578 55.41501199 76.6102674 55.39904372 C71.66726785 55.39116668 66.72438976 55.38805981 61.78139114 55.39799118 C57.25381387 55.40695022 52.72647033 55.40198526 48.19891417 55.38605852 C46.56378587 55.38271585 44.9286377 55.3843932 43.29352224 55.39168589 C30.75376639 55.44331027 19.90938528 54.43860454 10 46 C-2.91255423 32.68627903 0 19.15970511 0 0 Z " fill="#B2D1E4" transform="translate(22,398)"/>
<path d="M0 0 C7.92 0 15.84 0 24 0 C28.6875 10.3125 28.6875 10.3125 30.1315918 13.55200195 C30.52515869 14.39722412 30.91872559 15.24244629 31.32421875 16.11328125 C31.71697998 16.97735596 32.10974121 17.84143066 32.5144043 18.73168945 C35.89206242 23.88893212 42.82787737 25.82719158 48.3125 28.1875 C49.53743164 28.73954102 49.53743164 28.73954102 50.78710938 29.30273438 C57.59980515 32.22866507 62.91833686 33.24759158 70.10546875 30.6875 C71.47161862 30.13842541 72.83238185 29.57576312 74.1875 29 C83.43368527 25.13799976 83.43368527 25.13799976 87 26 C89.72767117 27.93159759 92.02677611 30.19266669 94.375 32.5625 C95.02855469 33.17158203 95.68210937 33.78066406 96.35546875 34.40820312 C100.96829461 38.99675096 100.96829461 38.99675096 101.109375 43.4609375 C99.64470216 48.13345014 97.91327853 52.6236991 95.99609375 57.12695312 C92.61812988 65.53953779 95.87914641 71.98414039 99.0625 80.0625 C99.42021484 81.04283203 99.77792969 82.02316406 100.14648438 83.03320312 C102.81545869 89.77659793 105.41949774 92.97870569 112 96 C112.67554932 96.33862061 113.35109863 96.67724121 114.04711914 97.02612305 C116.015081 97.99615779 117.99953005 98.91169196 120 99.8125 C120.67933594 100.12380859 121.35867188 100.43511719 122.05859375 100.75585938 C123.70349469 101.50880699 125.35142315 102.2551352 127 103 C127 104.65 127 106.3 127 108 C107.53 108 88.06 108 68 108 C67.01 104.04 66.02 100.08 65 96 C59.04811595 80.51456716 48.88948334 70.36969693 34.1328125 63.32421875 C19.56835626 57.16792116 4.55885855 57.40004609 -10.0625 63.21875 C-23.74836848 69.50307736 -33.71293539 80.20122992 -39.859375 93.8359375 C-41.52754509 98.46339563 -42.7057362 103.25436607 -44 108 C-63.47 108 -82.94 108 -103 108 C-103 106.35 -103 104.7 -103 103 C-99.54466686 101.32705993 -96.08526007 99.66272237 -92.625 98 C-91.64015625 97.52304687 -90.6553125 97.04609375 -89.640625 96.5546875 C-88.22910156 95.87792969 -88.22910156 95.87792969 -86.7890625 95.1875 C-85.91975098 94.76855469 -85.05043945 94.34960938 -84.15478516 93.91796875 C-82 93 -82 93 -80 93 C-79.649375 91.865625 -79.29875 90.73125 -78.9375 89.5625 C-77.8609125 86.25396281 -76.61694645 83.07564981 -75.20703125 79.8984375 C-74.88677979 79.1655249 -74.56652832 78.4326123 -74.23657227 77.67749023 C-73.58984822 76.20911777 -72.92803327 74.74727941 -72.24975586 73.29321289 C-69.29881149 66.53848168 -69.89697347 61.65002612 -72.48046875 54.859375 C-73.32885559 52.77894853 -74.2037514 50.71223216 -75.09179688 48.6484375 C-77.18281928 43.48761624 -77.18281928 43.48761624 -76.2421875 40.97875977 C-74.1605978 37.66286265 -71.52556899 34.99233006 -68.8125 32.1875 C-68.26013672 31.57712891 -67.70777344 30.96675781 -67.13867188 30.33789062 C-65.4965271 28.64615728 -64.00265809 27.24579222 -62 26 C-55.95863221 25.91962704 -50.84006957 28.57601895 -45.37890625 30.94140625 C-35.04098257 34.18022396 -25.18756645 29.9735155 -15.7265625 25.6875 C-5.65415094 20.14913624 -3.51038938 10.4057971 0 0 Z " fill="#FDCE63" transform="translate(244,276)"/>
<path d="M0 0 C3.3 0 6.6 0 10 0 C10.33128906 0.86882813 10.66257812 1.73765625 11.00390625 2.6328125 C14.22903885 9.85904945 16.95308206 13.96169843 24.5 16.875 C25.12849854 17.11879395 25.75699707 17.36258789 26.40454102 17.61376953 C30.93140747 19.12959551 34.37885555 18.96746767 39 18 C39.87527344 17.82339844 40.75054687 17.64679688 41.65234375 17.46484375 C44.82617188 16.73242188 44.82617188 16.73242188 48 16 C49.98 18.31 51.96 20.62 54 23 C53.505 24.155 53.01 25.31 52.5 26.5 C49.37034986 35.17835354 51.18032955 41.46574188 54.8671875 49.765625 C58.35619779 55.0566516 63.14025687 57.00882515 69 59 C69 62.3 69 65.6 69 69 C67.80503906 69.40605469 67.80503906 69.40605469 66.5859375 69.8203125 C59.76962375 72.58995823 56.28586822 75.04063001 53.25 81.875 C50.85910146 88.55545181 49.78028888 93.34086663 52.0625 100.1875 C53.13259129 103.39777387 53.16342051 104.84214433 52 108 C50.375 110.375 50.375 110.375 48 112 C44.37542227 111.80923275 41.43470709 111.14490236 38 110 C30.85314592 109.07355595 26.11783361 111.50011123 19.7578125 114.6875 C17 116 17 116 15 116 C14.70996094 116.92232422 14.70996094 116.92232422 14.4140625 117.86328125 C14.15367187 118.67152344 13.89328125 119.47976562 13.625 120.3125 C13.24214844 121.51326172 13.24214844 121.51326172 12.8515625 122.73828125 C12 125 12 125 10 128 C7.6171875 128.29296875 7.6171875 128.29296875 4.875 128.1875 C3.96492188 128.16042969 3.05484375 128.13335937 2.1171875 128.10546875 C1.41851562 128.07066406 0.71984375 128.03585938 0 128 C-0.27070313 127.20335937 -0.54140625 126.40671875 -0.8203125 125.5859375 C-3.58995823 118.76962375 -6.04063001 115.28586822 -12.875 112.25 C-22.023562 108.99568466 -28.02251577 109.50875613 -37 113 C-39.24252006 111.1669836 -41.26302234 109.32659393 -43 107 C-43 103.55714083 -42.0779684 101.20791573 -40.875 98 C-38.95230175 91.40789172 -42.12651526 84.33371625 -44.90234375 78.3046875 C-48.32169267 72.91778027 -53.1104859 71.0012912 -59 69 C-59 65.7 -59 62.4 -59 59 C-58.20335937 58.71769531 -57.40671875 58.43539062 -56.5859375 58.14453125 C-50.02000987 55.42070969 -46.38539569 53.11599745 -43.3125 46.5625 C-41.28396578 41.58989842 -39.18170111 36.11168921 -40.59375 30.7421875 C-40.8928125 30.12601563 -41.191875 29.50984375 -41.5 28.875 C-42.56876071 26.32376475 -43.00166049 25.07306155 -42.9375 22.25 C-41.71621995 19.31892788 -40.60972415 17.83386021 -38 16 C-34.68700897 16.14404309 -32.15234903 16.94165356 -29.0625 18.125 C-21.54224012 20.27364568 -13.61766174 16.58940425 -7 13 C-4.57368754 10.36461754 -3.21086481 7.52892437 -1.8125 4.25 C-1.214375 2.8475 -0.61625 1.445 0 0 Z " fill="#EFB645" transform="translate(421,59)"/>
<path d="M0 0 C1.73275206 -0.00384491 1.73275206 -0.00384491 3.5005092 -0.0077675 C6.68415591 -0.01183499 9.86743058 -0.00253437 13.05103338 0.01256669 C16.49262454 0.02557962 19.93419985 0.02113389 23.37580872 0.01885986 C29.33107626 0.01729044 35.28624484 0.02666494 41.2414875 0.04357338 C49.85164335 0.06800382 58.46175158 0.07577278 67.07193833 0.07953735 C81.04297601 0.08609551 95.013961 0.10603937 108.98497009 0.13444519 C122.55267575 0.16200225 136.12036708 0.18322776 149.68809509 0.19596863 C150.52507634 0.1967568 151.36205758 0.19754497 152.2244019 0.19835702 C156.42349012 0.20227227 160.62257845 0.20606336 164.82166684 0.20979273 C199.631103 0.24086882 234.44047797 0.29368725 269.24986267 0.36076355 C269.29377136 1.04783386 269.33768005 1.73490417 269.38291931 2.4427948 C269.45373718 3.34384949 269.52455505 4.24490417 269.59751892 5.17326355 C269.66205261 6.06658386 269.7265863 6.95990417 269.79307556 7.8802948 C270.46787428 11.54462135 272.38345768 13.12356941 275.24986267 15.36076355 C275.90986267 16.02076355 276.56986267 16.68076355 277.24986267 17.36076355 C276.64447798 17.36174036 276.03909329 17.36271717 275.41536361 17.36372358 C239.54982158 17.42197258 203.68434434 17.49575187 167.81887775 17.58974983 C163.51421611 17.60101824 159.20955415 17.61215665 154.90489197 17.62321472 C153.61939964 17.62652025 153.61939964 17.62652025 152.30793776 17.62989255 C138.42445948 17.66528249 124.54098125 17.69013704 110.65747456 17.71111057 C96.41586797 17.73285911 82.17432001 17.7659005 67.93276328 17.80946511 C59.14218168 17.83599817 50.35167315 17.85368134 41.56105348 17.86010959 C35.53620171 17.86535842 29.51144196 17.88155836 23.48663948 17.90642921 C20.00859251 17.92046161 16.53071034 17.92960858 13.05263329 17.92577171 C9.28381614 17.92412829 5.51551213 17.94073949 1.74676514 17.96203613 C0.64462718 17.95718856 -0.45751077 17.95234098 -1.59304684 17.94734651 C-8.70539282 17.91573522 -8.70539282 17.91573522 -14.75013733 21.36076355 C-16.78154748 24.40787878 -17.00096208 24.99487218 -17.01185036 28.4156065 C-17.0230486 29.65768825 -17.0230486 29.65768825 -17.03447306 30.92486256 C-17.03253833 31.83438784 -17.03060359 32.74391311 -17.02861023 33.68099976 C-17.03440263 34.64728139 -17.04019503 35.61356302 -17.04616296 36.60912591 C-17.06322795 39.86125139 -17.06604506 43.11323552 -17.06898499 46.36540222 C-17.07827867 48.69094188 -17.0884465 51.01647819 -17.09942627 53.3420105 C-17.12680338 59.66807025 -17.1418985 65.99410765 -17.1548543 72.32021117 C-17.16887201 78.25774554 -17.1920117 84.19523829 -17.21512465 90.13274316 C-17.26061042 101.89419659 -17.29721783 113.65566027 -17.32826233 125.41716003 C-17.35844057 136.84328512 -17.39278749 148.26938512 -17.43275452 159.69548035 C-17.43644684 160.75169453 -17.43644684 160.75169453 -17.44021375 161.82924636 C-17.45258822 165.36167552 -17.46504478 168.89410438 -17.47754216 172.4265331 C-17.58113667 201.73790696 -17.67018352 231.0493157 -17.75013733 260.36076355 C-23.36013733 260.36076355 -28.97013733 260.36076355 -34.75013733 260.36076355 C-34.86428253 230.08384566 -34.95272807 199.80693882 -35.00546398 169.52985425 C-35.01171726 165.95265699 -35.01818889 162.37546017 -35.02479553 158.79826355 C-35.02610708 158.08612972 -35.02741864 157.3739959 -35.02876993 156.64028226 C-35.05050668 145.12038805 -35.08991858 133.60061903 -35.13590131 122.080799 C-35.18271429 110.25404874 -35.21044293 98.42736389 -35.2205798 86.60052478 C-35.22681549 79.96020671 -35.24239504 73.3201212 -35.27878761 66.67988968 C-35.31277853 60.42708281 -35.32318374 54.17467584 -35.31567574 47.92178535 C-35.31704887 45.62968204 -35.3269624 43.33756506 -35.3461647 41.04554176 C-35.37115049 37.90876534 -35.36502157 34.77348618 -35.35140991 31.63667297 C-35.36597412 30.73586475 -35.38053833 29.83505652 -35.39554387 28.90695107 C-35.30394077 21.06321043 -32.56084395 14.80234045 -27.60951233 8.7396698 C-26.91341858 8.14025574 -26.21732483 7.54084167 -25.50013733 6.92326355 C-24.47146545 5.99707214 -24.47146545 5.99707214 -23.42201233 5.0521698 C-16.0352867 0.37607009 -8.55066131 -0.07001902 0 0 Z " fill="#99C1D5" transform="translate(78.75013732910156,123.63923645019531)"/>
<path d="M0 0 C9.06565916 5.31320683 15.53670861 12.17757939 19.1328125 22.25 C21.5358844 32.82351634 20.20859513 42.68798101 14.4453125 51.9375 C8.66976464 59.98912584 1.4028626 65.52234854 -8.31640625 67.83203125 C-18.86869609 69.56112009 -28.27428337 67.67926799 -37.1171875 61.5625 C-45.48242105 54.72602576 -50.12725922 47.07531971 -51.28515625 36.39453125 C-52.01856597 24.82708179 -49.52230168 16.08128288 -42.0078125 7.00390625 C-40.06399806 5.13639858 -38.14049095 3.69554642 -35.8671875 2.25 C-35.08988281 1.74726562 -34.31257813 1.24453125 -33.51171875 0.7265625 C-23.62923222 -4.68563133 -10.1664979 -4.96262949 0 0 Z " fill="#030201" transform="translate(441.8671875,90.75)"/>
<path d="M0 0 C2.64 0.99 5.28 1.98 8 3 C8 68.34 8 133.68 8 201 C2.39 201 -3.22 201 -9 201 C-9 134.67 -9 68.34 -9 0 C-5.84447122 -1.57776439 -3.41611258 -0.66118308 0 0 Z " fill="#98BFD3" transform="translate(460,183)"/>
<path d="M0 0 C4.79890123 3.67575413 7.5511107 7.9303042 9.0859375 13.78125 C9.37240793 17.14845166 9.33903898 20.41359416 9.0859375 23.78125 C9.78501221 24.04172119 10.48408691 24.30219238 11.2043457 24.57055664 C16.18569903 26.66345939 20.78789417 29.48027764 25.46166992 32.17602539 C27.27430491 33.21924922 29.09297228 34.25136953 30.91210938 35.28320312 C32.05615234 35.94126953 33.20019531 36.59933594 34.37890625 37.27734375 C35.4258667 37.87732178 36.47282715 38.4772998 37.55151367 39.09545898 C40.0859375 40.78125 40.0859375 40.78125 42.0859375 43.78125 C42.55253362 47.91199803 42.45627764 52.06448851 42.4609375 56.21875 C42.48542969 57.36408203 42.50992188 58.50941406 42.53515625 59.68945312 C42.53902344 60.79095703 42.54289062 61.89246094 42.546875 63.02734375 C42.55509277 64.03466553 42.56331055 65.0419873 42.57177734 66.07983398 C41.9558562 69.50454124 40.80344582 70.67196934 38.0859375 72.78125 C35.0859375 73.34375 35.0859375 73.34375 32.0859375 72.78125 C29.6953108 70.63140585 28.25897649 68.9215292 27.76757812 65.68334961 C27.69255004 63.26648212 27.73678534 60.88463042 27.8359375 58.46875 C27.85398438 57.63279297 27.87203125 56.79683594 27.890625 55.93554688 C27.93752624 53.88361772 28.00926339 51.83228244 28.0859375 49.78125 C27.35995361 49.51231934 26.63396973 49.24338867 25.88598633 48.96630859 C23.12890778 47.79943622 20.79771242 46.44087718 18.28515625 44.8203125 C16.94227539 43.99080078 16.94227539 43.99080078 15.57226562 43.14453125 C13.70420091 41.98432358 11.84980849 40.80181151 10.00976562 39.59765625 C5.20472824 36.45366267 5.20472824 36.45366267 -0.25927734 36.28808594 C-2.28809267 37.31339622 -4.05690377 38.47751315 -5.9140625 39.78125 C-11.54653607 41.65874119 -17.62014722 41.71148685 -23.1015625 39.28125 C-28.55777899 36.1602499 -32.5592415 31.490892 -35.3515625 25.90625 C-36.58735134 19.04075645 -36.85359397 12.87378209 -33.31640625 6.66796875 C-24.75278636 -4.85355885 -12.23377995 -7.78967213 0 0 Z " fill="#020303" transform="translate(174.9140625,206.21875)"/>
<path d="M0 0 C4.7601272 3.47334484 9.66147555 8.52047963 10.921875 14.40234375 C11.62005742 21.83669356 11.00620341 28.23975419 6.48046875 34.34765625 C1.37677954 40.00789625 -4.52792918 42.3595132 -12.078125 42.83984375 C-16.87127574 42.66659734 -20.88296669 40.56955209 -25.078125 38.40234375 C-26.068125 37.90734375 -26.068125 37.90734375 -27.078125 37.40234375 C-29.61588086 38.59860914 -29.61588086 38.59860914 -32.453125 40.3671875 C-34.05414063 41.31948242 -34.05414063 41.31948242 -35.6875 42.29101562 C-36.80640625 42.96712891 -37.9253125 43.64324219 -39.078125 44.33984375 C-41.2841809 45.66525637 -43.4924062 46.98706706 -45.703125 48.3046875 C-46.68539063 48.89757568 -47.66765625 49.49046387 -48.6796875 50.10131836 C-51.078125 51.40234375 -51.078125 51.40234375 -53.078125 51.40234375 C-53.03171875 52.64371094 -52.9853125 53.88507813 -52.9375 55.1640625 C-52.89997079 56.80596546 -52.86357186 58.44789452 -52.828125 60.08984375 C-52.77785156 61.31477539 -52.77785156 61.31477539 -52.7265625 62.56445312 C-52.66004874 66.6716781 -52.74693217 68.8503557 -54.90625 72.44921875 C-57.078125 74.40234375 -57.078125 74.40234375 -60.078125 74.96484375 C-63.76708789 74.27316321 -64.76245226 73.30970774 -67.078125 70.40234375 C-67.8986509 66.29595899 -67.68092393 62.14407978 -67.640625 57.96484375 C-67.66447266 56.83240234 -67.68832031 55.69996094 -67.71289062 54.53320312 C-67.69839148 46.33152248 -67.69839148 46.33152248 -65.09375 42.4296875 C-61.25657142 39.85002988 -57.3522868 37.56209895 -53.265625 35.40234375 C-51.71628245 34.57117927 -50.16809621 33.73785563 -48.62109375 32.90234375 C-47.86747559 32.49628906 -47.11385742 32.09023437 -46.33740234 31.671875 C-43.37772781 30.00877714 -40.53540817 28.18660409 -37.70043945 26.3203125 C-36.078125 25.40234375 -36.078125 25.40234375 -34.078125 25.40234375 C-34.12453125 24.78488281 -34.1709375 24.16742188 -34.21875 23.53125 C-34.54103669 15.96902303 -33.37227909 10.14667508 -28.27734375 4.35546875 C-20.41626339 -3.03242037 -9.66209366 -5.43009664 0 0 Z " fill="#020303" transform="translate(362.078125,204.59765625)"/>
<path d="M0 0 C8.29216732 6.03202785 13.49706606 12.47843891 17.1875 22.1875 C17.6825 25.6525 17.6825 25.6525 18.1875 29.1875 C-9.5325 29.1875 -37.2525 29.1875 -65.8125 29.1875 C-62.92229541 16.18157935 -57.69984644 6.91001657 -46.5 -0.625 C-31.6267039 -9.47622784 -14.74298262 -9.2890752 0 0 Z " fill="#D5E9FB" transform="translate(279.8125,354.8125)"/>
<path d="M0 0 C5.00157172 3.73669548 8.22816768 7.95492502 10 14 C10.99857401 21.77762571 9.11155853 27.77055755 4.875 34.25 C-0.05459842 38.96526806 -5.22771919 41.18454858 -12.0625 41.5 C-18.47676842 41.21115872 -22.86118815 38.74993697 -27.75 34.75 C-32.14672356 29.37622676 -34.75700299 24.37094313 -34.37890625 17.296875 C-33.25407095 10.47828573 -30.32976438 5.42076797 -24.85546875 1.21875 C-16.67263179 -4.15608186 -8.64146433 -4.32073217 0 0 Z " fill="#D5E9FB" transform="translate(438,104)"/>
<path d="M0 0 C28.38 0 56.76 0 86 0 C86 2.97 86 5.94 86 9 C57.62 9 29.24 9 0 9 C0 6.03 0 3.06 0 0 Z " fill="#9AC1D5" transform="translate(213,398)"/>
<path d="M0 0 C1.9453125 0.66796875 1.9453125 0.66796875 4.5078125 3.35546875 C6.16978601 7.18523378 6.30812181 8.74989199 4.9453125 12.66796875 C3.3828125 15.04296875 3.3828125 15.04296875 0.9453125 16.66796875 C-1.83603695 17.22766535 -4.27333805 17.22766535 -7.0546875 16.66796875 C-10.11927288 14.62491183 -10.87621878 13.22717073 -11.9921875 9.73046875 C-12.0675203 6.03916143 -11.30043676 4.55536065 -9.0546875 1.66796875 C-5.683541 -0.57946225 -3.95191683 -0.61976555 0 0 Z " fill="#EAB243" transform="translate(259.0546875,183.33203125)"/>
<path d="M0 0 C4.45850936 0.79616239 5.90783917 1.93313458 8.5 5.625 C9.125 9.125 9.125 9.125 8.5 12.625 C5.90783917 16.31686542 4.45850936 17.45383761 0 18.25 C-4.45850936 17.45383761 -5.90783917 16.31686542 -8.5 12.625 C-9.125 9.125 -9.125 9.125 -8.5 5.625 C-5.90783917 1.93313458 -4.45850936 0.79616239 0 0 Z " fill="#F9CB61" transform="translate(350.5,215.375)"/>
<path d="M0 0 C4.45850936 0.79616239 5.90783917 1.93313458 8.5 5.625 C9.125 9.125 9.125 9.125 8.5 12.625 C5.90783917 16.31686542 4.45850936 17.45383761 0 18.25 C-4.45850936 17.45383761 -5.90783917 16.31686542 -8.5 12.625 C-9.125 9.125 -9.125 9.125 -8.5 5.625 C-5.90783917 1.93313458 -4.45850936 0.79616239 0 0 Z " fill="#F9CB61" transform="translate(161.5,215.375)"/>
</svg>
