<?xml version="1.0" encoding="UTF-8"?>
<svg version="1.1" xmlns="http://www.w3.org/2000/svg" width="512" height="512">
<path d="M0 0 C5.98859216 4.16597715 11.45681657 8.95594494 16.96875 13.72045898 C21.1676521 17.3469398 25.38751324 20.94069155 29.6953125 24.4375 C30.23325439 24.89036377 30.77119629 25.34322754 31.32543945 25.80981445 C38.18266654 31.30121765 46.04731002 32.76121582 54.625 33.4375 C55.89852829 33.55363647 55.89852829 33.55363647 57.19778442 33.67211914 C59.88367115 33.91662992 62.57043841 34.14746157 65.2578125 34.375 C98.94549694 37.23866643 98.94549694 37.23866643 110.3828125 48.375 C122.03838726 62.55285176 122.58020219 77.97855719 124.08911133 95.5715332 C124.35625934 98.62372924 124.64780976 101.67290724 124.94140625 104.72265625 C125.0124205 105.64272964 125.08343475 106.56280304 125.15660095 107.51075745 C126.12271219 117.35594709 130.38732795 124.93438777 137.0078125 132.125 C138.06745512 133.31953324 139.12468486 134.51621054 140.1796875 135.71484375 C140.71142578 136.3166748 141.24316406 136.91850586 141.79101562 137.53857422 C153.83481413 151.4332755 164.87291006 164.65761565 164.65625 183.83203125 C163.48122889 199.05694769 154.65772988 209.08095867 145.1640625 220.12890625 C130.77203512 236.73178405 130.77203512 236.73178405 125.19921875 257.453125 C124.99166483 259.43881551 124.78397835 261.42449216 124.57617188 263.41015625 C124.25946655 266.51450525 123.94589878 269.61913536 123.63549805 272.72412109 C123.33162531 275.7388648 123.01592448 278.75220629 122.69921875 281.765625 C122.61160782 282.67950989 122.52399689 283.59339478 122.43373108 284.53497314 C120.97395141 298.29827281 116.33454386 309.0370237 105.39453125 317.9140625 C95.36697473 325.19621034 83.46926238 326.43097666 71.40234375 326.95703125 C70.0950531 327.01969177 70.0950531 327.01969177 68.76135254 327.08361816 C66.63536757 327.18492496 64.50911331 327.28055415 62.3828125 327.375 C71.7504855 349.87717104 81.11969493 372.37871358 90.52963257 394.86325073 C91.63161333 397.49713383 92.73246997 400.13148485 93.83325195 402.76586914 C97.15277521 410.704137 100.48651767 418.63566507 103.8687439 426.54745483 C105.37361666 430.06786219 106.87308932 433.59056055 108.37268066 437.11322021 C109.41648316 439.5574904 110.46929682 441.9977407 111.52246094 444.43798828 C112.15475645 445.92200479 112.7866172 447.40620665 113.41796875 448.890625 C113.8493792 449.87822311 113.8493792 449.87822311 114.289505 450.88577271 C116.53720641 456.21428573 118.19548543 461.02727819 116.2578125 466.625 C114.10453592 469.78313899 112.97497961 471.04745998 109.3828125 472.375 C102.83886962 472.30855736 96.61033945 470.50169389 90.38671875 468.65234375 C89.47196274 468.38740616 88.55720673 468.12246857 87.61473083 467.84950256 C84.72284935 467.01077764 81.83398765 466.16219546 78.9453125 465.3125 C76.03118777 464.46091545 73.11647332 463.61144048 70.20091248 462.76478577 C68.39370227 462.23941357 66.58740298 461.71089577 64.78211975 461.17893982 C63.97044846 460.94191849 63.15877716 460.70489716 62.32250977 460.46069336 C61.60797134 460.25053085 60.89343292 460.04036835 60.15724182 459.82383728 C58.36470958 459.29325866 58.36470958 459.29325866 56.3828125 459.375 C56.01631592 460.06311768 55.64981934 460.75123535 55.2722168 461.46020508 C49.030273 473.16226755 42.78174379 484.86209535 36.1953125 496.375 C35.75082764 497.16237549 35.30634277 497.94975098 34.84838867 498.76098633 C34.22540894 499.8383606 34.22540894 499.8383606 33.58984375 500.9375 C33.2338208 501.55753906 32.87779785 502.17757813 32.51098633 502.81640625 C30.7705285 505.22088208 28.97366745 506.2708493 26.078125 506.78125 C25.22992188 506.8121875 24.38171875 506.843125 23.5078125 506.875 C22.66476562 506.9265625 21.82171875 506.978125 20.953125 507.03125 C17.18438063 506.0690174 15.50654917 503.45717025 13.3828125 500.375 C11.93218855 497.67602774 10.75838109 494.8925013 9.59765625 492.05859375 C9.25939316 491.25703857 8.92113007 490.4554834 8.57261658 489.62963867 C7.47790045 487.02822641 6.39848633 484.42080701 5.3203125 481.8125 C4.56919911 480.01216858 3.81740335 478.21212171 3.06494141 476.41235352 C1.92763858 473.68963479 0.79195182 470.96629877 -0.33874512 468.24082947 C-2.36820374 463.34972225 -4.42396966 458.47221947 -6.53068542 453.61387634 C-7.67982115 450.96330787 -8.81661554 448.30755032 -9.95162964 445.65090942 C-10.72440647 443.85384904 -11.51254546 442.06341945 -12.30102539 440.27319336 C-16.46293206 430.43602604 -16.46293206 430.43602604 -14.6171875 424.375 C-14.2871875 423.715 -13.9571875 423.055 -13.6171875 422.375 C-12.9571875 422.375 -12.2971875 422.375 -11.6171875 422.375 C-12.266875 420.80298828 -12.266875 420.80298828 -12.9296875 419.19921875 C-13.49246085 417.82042404 -14.05494585 416.44151161 -14.6171875 415.0625 C-14.90335938 414.37220703 -15.18953125 413.68191406 -15.484375 412.97070312 C-16.70629494 409.95954326 -17.6171875 407.65613016 -17.6171875 404.375 C-18.2771875 404.375 -18.9371875 404.375 -19.6171875 404.375 C-19.79454941 404.9279776 -19.97191132 405.4809552 -20.15464783 406.0506897 C-21.890529 411.37209386 -23.83290961 416.55008328 -25.99609375 421.7109375 C-26.32050949 422.49216476 -26.64492523 423.27339203 -26.97917175 424.07829285 C-28.04271417 426.63691528 -29.11092483 429.19355414 -30.1796875 431.75 C-30.92951889 433.54803028 -31.67919044 435.34612721 -32.42871094 437.14428711 C-33.60386069 439.96273986 -34.7795509 442.7809618 -35.95675659 445.59855652 C-38.42894616 451.51685025 -40.88701384 457.44076831 -43.33360291 463.36968994 C-44.94934098 467.28291465 -46.57096118 471.19368618 -48.193573 475.10406494 C-48.9703151 476.97933856 -49.74470453 478.85558854 -50.51663208 480.73284912 C-51.60075271 483.36769707 -52.69388515 485.99863842 -53.7890625 488.62890625 C-54.10304489 489.39808884 -54.41702728 490.16727142 -54.74052429 490.95976257 C-60.29609112 504.21445181 -60.29609112 504.21445181 -64.6171875 506.375 C-66.60546875 506.61328125 -66.60546875 506.61328125 -68.9296875 506.6875 C-70.06857422 506.74357422 -70.06857422 506.74357422 -71.23046875 506.80078125 C-74.59086236 506.20130023 -76.10800743 504.67027259 -78.6171875 502.375 C-80.43481445 499.57275391 -80.43481445 499.57275391 -82.10546875 496.3515625 C-82.41014069 495.77283386 -82.71481262 495.19410522 -83.02871704 494.59783936 C-84.0059627 492.73705098 -84.96779503 490.86876314 -85.9296875 489 C-86.92798494 487.08962241 -87.93015939 485.18131674 -88.93281555 483.27322388 C-89.58906914 482.02409545 -90.24410071 480.77432419 -90.89787292 479.52389526 C-93.89834362 473.79684256 -97.09677786 468.20770754 -100.39453125 462.6484375 C-101.6171875 460.375 -101.6171875 460.375 -101.6171875 458.375 C-102.7928125 458.75978516 -102.7928125 458.75978516 -103.9921875 459.15234375 C-113.26953974 462.12149635 -122.60408481 464.91032252 -131.95996094 467.62112427 C-133.39057418 468.03817733 -134.8196478 468.46055088 -136.24707031 468.88839722 C-150.94901822 473.28481547 -150.94901822 473.28481547 -157.6171875 471.375 C-160.96766009 468.44333648 -162.47082308 466.70366601 -162.96240234 462.24121094 C-162.52818934 457.37827099 -161.00957565 453.5956598 -159.09375 449.140625 C-158.72115051 448.24685654 -158.34855103 447.35308807 -157.96466064 446.43223572 C-156.73543135 443.4914747 -155.4888735 440.55839799 -154.2421875 437.625 C-153.37400553 435.5568819 -152.50699791 433.48827046 -151.64111328 431.41918945 C-149.85403627 427.15436901 -148.06000954 422.89257982 -146.25976562 418.63330078 C-143.8083917 412.83264523 -141.37325486 407.02534024 -138.9453125 401.21484375 C-138.197611 399.42585433 -137.44988981 397.63687315 -136.70214844 395.84790039 C-136.33665894 394.97344269 -135.97116943 394.09898499 -135.59460449 393.19802856 C-134.49455751 390.56816594 -133.39265524 387.93908913 -132.29003906 385.31030273 C-124.34028516 366.35627096 -116.47529194 347.36717466 -108.6171875 328.375 C-109.34719971 328.30506836 -110.07721191 328.23513672 -110.8293457 328.16308594 C-114.19776758 327.83186178 -117.56354006 327.47856394 -120.9296875 327.125 C-122.65155273 326.96064453 -122.65155273 326.96064453 -124.40820312 326.79296875 C-136.99077763 325.43847064 -148.57054665 321.9368791 -157.43359375 312.42578125 C-165.17166693 302.55440469 -167.54218841 292.34310807 -168.58203125 280.0625 C-168.74387486 278.30987127 -168.90599256 276.55726783 -169.06835938 274.8046875 C-169.31351788 272.08659386 -169.55527221 269.36827731 -169.79174805 266.64941406 C-170.02497583 263.99450044 -170.27151833 261.34106767 -170.51953125 258.6875 C-170.5852684 257.88723389 -170.65100555 257.08696777 -170.71873474 256.26245117 C-171.48543719 248.20799918 -173.30779021 241.1745661 -178.7421875 235 C-179.54269531 234.06929687 -180.34320313 233.13859375 -181.16796875 232.1796875 C-181.97621094 231.25414062 -182.78445312 230.32859375 -183.6171875 229.375 C-185.81275362 226.72449676 -187.98516079 224.05656019 -190.15234375 221.3828125 C-191.96983395 219.164956 -193.80894226 216.98006143 -195.67578125 214.8046875 C-206.51870668 202.00887405 -211.30124154 190.50779644 -209.90380859 173.55908203 C-208.68681157 164.28544029 -203.53575012 157.28396725 -197.6171875 150.375 C-196.19889871 148.62631439 -194.78232702 146.87623516 -193.3671875 145.125 C-190.87653743 142.0799244 -188.35945097 139.06571945 -185.7734375 136.1015625 C-185.29036133 135.5437207 -184.80728516 134.98587891 -184.30957031 134.41113281 C-183.38348212 133.34459522 -182.45104202 132.28352159 -181.51074219 131.22949219 C-174.79953244 123.48195607 -171.89435813 116.30597265 -170.9296875 106.125 C-170.81359131 105.08303467 -170.69749512 104.04106934 -170.57788086 102.9675293 C-170.01981245 97.85028635 -169.55434563 92.72778523 -169.1328125 87.59765625 C-167.80127776 71.48737584 -165.54992874 57.8338735 -153.4921875 46.125 C-143.76485393 38.0000059 -132.82047601 36.47619732 -120.6171875 35.375 C-116.93920917 35.03071676 -113.26208613 34.67970067 -109.58569336 34.31884766 C-107.02767404 34.06910541 -104.46857973 33.83008641 -101.90844727 33.60302734 C-90.87516975 32.54220661 -83.11671332 30.54012927 -74.6171875 23.375 C-73.61429688 22.53195313 -72.61140625 21.68890625 -71.578125 20.8203125 C-69.33397744 18.9258979 -67.09568833 17.02474576 -64.859375 15.12109375 C-46.07625775 -0.82964867 -24.08986189 -14.95728738 0 0 Z " fill="#FDD581" transform="translate(278.6171875,5.625)"/>
<path d="M0 0 C5.98859216 4.16597715 11.45681657 8.95594494 16.96875 13.72045898 C21.1676521 17.3469398 25.38751324 20.94069155 29.6953125 24.4375 C30.23325439 24.89036377 30.77119629 25.34322754 31.32543945 25.80981445 C38.18266654 31.30121765 46.04731002 32.76121582 54.625 33.4375 C55.89852829 33.55363647 55.89852829 33.55363647 57.19778442 33.67211914 C59.88367115 33.91662992 62.57043841 34.14746157 65.2578125 34.375 C98.94549694 37.23866643 98.94549694 37.23866643 110.3828125 48.375 C122.03838726 62.55285176 122.58020219 77.97855719 124.08911133 95.5715332 C124.35625934 98.62372924 124.64780976 101.67290724 124.94140625 104.72265625 C125.0124205 105.64272964 125.08343475 106.56280304 125.15660095 107.51075745 C126.12271219 117.35594709 130.38732795 124.93438777 137.0078125 132.125 C138.06745512 133.31953324 139.12468486 134.51621054 140.1796875 135.71484375 C140.71142578 136.3166748 141.24316406 136.91850586 141.79101562 137.53857422 C153.83481413 151.4332755 164.87291006 164.65761565 164.65625 183.83203125 C163.48122889 199.05694769 154.65772988 209.08095867 145.1640625 220.12890625 C130.77203512 236.73178405 130.77203512 236.73178405 125.19921875 257.453125 C124.99166483 259.43881551 124.78397835 261.42449216 124.57617188 263.41015625 C124.25946655 266.51450525 123.94589878 269.61913536 123.63549805 272.72412109 C123.33162531 275.7388648 123.01592448 278.75220629 122.69921875 281.765625 C122.61160782 282.67950989 122.52399689 283.59339478 122.43373108 284.53497314 C120.97395141 298.29827281 116.33454386 309.0370237 105.39453125 317.9140625 C95.36697473 325.19621034 83.46926238 326.43097666 71.40234375 326.95703125 C70.0950531 327.01969177 70.0950531 327.01969177 68.76135254 327.08361816 C66.63536757 327.18492496 64.50911331 327.28055415 62.3828125 327.375 C71.7504855 349.87717104 81.11969493 372.37871358 90.52963257 394.86325073 C91.63161333 397.49713383 92.73246997 400.13148485 93.83325195 402.76586914 C97.15277521 410.704137 100.48651767 418.63566507 103.8687439 426.54745483 C105.37361666 430.06786219 106.87308932 433.59056055 108.37268066 437.11322021 C109.41648316 439.5574904 110.46929682 441.9977407 111.52246094 444.43798828 C112.15475645 445.92200479 112.7866172 447.40620665 113.41796875 448.890625 C113.8493792 449.87822311 113.8493792 449.87822311 114.289505 450.88577271 C116.53720641 456.21428573 118.19548543 461.02727819 116.2578125 466.625 C114.10453592 469.78313899 112.97497961 471.04745998 109.3828125 472.375 C102.83886962 472.30855736 96.61033945 470.50169389 90.38671875 468.65234375 C89.47196274 468.38740616 88.55720673 468.12246857 87.61473083 467.84950256 C84.72284935 467.01077764 81.83398765 466.16219546 78.9453125 465.3125 C76.03118777 464.46091545 73.11647332 463.61144048 70.20091248 462.76478577 C68.39370227 462.23941357 66.58740298 461.71089577 64.78211975 461.17893982 C63.97044846 460.94191849 63.15877716 460.70489716 62.32250977 460.46069336 C61.60797134 460.25053085 60.89343292 460.04036835 60.15724182 459.82383728 C58.36470958 459.29325866 58.36470958 459.29325866 56.3828125 459.375 C56.01631592 460.06311768 55.64981934 460.75123535 55.2722168 461.46020508 C49.030273 473.16226755 42.78174379 484.86209535 36.1953125 496.375 C35.75082764 497.16237549 35.30634277 497.94975098 34.84838867 498.76098633 C34.22540894 499.8383606 34.22540894 499.8383606 33.58984375 500.9375 C33.2338208 501.55753906 32.87779785 502.17757813 32.51098633 502.81640625 C30.7705285 505.22088208 28.97366745 506.2708493 26.078125 506.78125 C25.22992188 506.8121875 24.38171875 506.843125 23.5078125 506.875 C22.66476562 506.9265625 21.82171875 506.978125 20.953125 507.03125 C17.18438063 506.0690174 15.50654917 503.45717025 13.3828125 500.375 C11.93218855 497.67602774 10.75838109 494.8925013 9.59765625 492.05859375 C9.25939316 491.25703857 8.92113007 490.4554834 8.57261658 489.62963867 C7.47790045 487.02822641 6.39848633 484.42080701 5.3203125 481.8125 C4.56919911 480.01216858 3.81740335 478.21212171 3.06494141 476.41235352 C1.92763858 473.68963479 0.79195182 470.96629877 -0.33874512 468.24082947 C-2.36820374 463.34972225 -4.42396966 458.47221947 -6.53068542 453.61387634 C-7.67982115 450.96330787 -8.81661554 448.30755032 -9.95162964 445.65090942 C-10.72440647 443.85384904 -11.51254546 442.06341945 -12.30102539 440.27319336 C-16.46293206 430.43602604 -16.46293206 430.43602604 -14.6171875 424.375 C-14.2871875 423.715 -13.9571875 423.055 -13.6171875 422.375 C-12.9571875 422.375 -12.2971875 422.375 -11.6171875 422.375 C-12.266875 420.80298828 -12.266875 420.80298828 -12.9296875 419.19921875 C-13.49246085 417.82042404 -14.05494585 416.44151161 -14.6171875 415.0625 C-14.90335938 414.37220703 -15.18953125 413.68191406 -15.484375 412.97070312 C-16.70629494 409.95954326 -17.6171875 407.65613016 -17.6171875 404.375 C-18.2771875 404.375 -18.9371875 404.375 -19.6171875 404.375 C-19.79454941 404.9279776 -19.97191132 405.4809552 -20.15464783 406.0506897 C-21.890529 411.37209386 -23.83290961 416.55008328 -25.99609375 421.7109375 C-26.32050949 422.49216476 -26.64492523 423.27339203 -26.97917175 424.07829285 C-28.04271417 426.63691528 -29.11092483 429.19355414 -30.1796875 431.75 C-30.92951889 433.54803028 -31.67919044 435.34612721 -32.42871094 437.14428711 C-33.60386069 439.96273986 -34.7795509 442.7809618 -35.95675659 445.59855652 C-38.42894616 451.51685025 -40.88701384 457.44076831 -43.33360291 463.36968994 C-44.94934098 467.28291465 -46.57096118 471.19368618 -48.193573 475.10406494 C-48.9703151 476.97933856 -49.74470453 478.85558854 -50.51663208 480.73284912 C-51.60075271 483.36769707 -52.69388515 485.99863842 -53.7890625 488.62890625 C-54.10304489 489.39808884 -54.41702728 490.16727142 -54.74052429 490.95976257 C-60.29609112 504.21445181 -60.29609112 504.21445181 -64.6171875 506.375 C-66.60546875 506.61328125 -66.60546875 506.61328125 -68.9296875 506.6875 C-70.06857422 506.74357422 -70.06857422 506.74357422 -71.23046875 506.80078125 C-74.59086236 506.20130023 -76.10800743 504.67027259 -78.6171875 502.375 C-80.43481445 499.57275391 -80.43481445 499.57275391 -82.10546875 496.3515625 C-82.41014069 495.77283386 -82.71481262 495.19410522 -83.02871704 494.59783936 C-84.0059627 492.73705098 -84.96779503 490.86876314 -85.9296875 489 C-86.92798494 487.08962241 -87.93015939 485.18131674 -88.93281555 483.27322388 C-89.58906914 482.02409545 -90.24410071 480.77432419 -90.89787292 479.52389526 C-93.89834362 473.79684256 -97.09677786 468.20770754 -100.39453125 462.6484375 C-101.6171875 460.375 -101.6171875 460.375 -101.6171875 458.375 C-102.7928125 458.75978516 -102.7928125 458.75978516 -103.9921875 459.15234375 C-113.26953974 462.12149635 -122.60408481 464.91032252 -131.95996094 467.62112427 C-133.39057418 468.03817733 -134.8196478 468.46055088 -136.24707031 468.88839722 C-150.94901822 473.28481547 -150.94901822 473.28481547 -157.6171875 471.375 C-160.96766009 468.44333648 -162.47082308 466.70366601 -162.96240234 462.24121094 C-162.52818934 457.37827099 -161.00957565 453.5956598 -159.09375 449.140625 C-158.72115051 448.24685654 -158.34855103 447.35308807 -157.96466064 446.43223572 C-156.73543135 443.4914747 -155.4888735 440.55839799 -154.2421875 437.625 C-153.37400553 435.5568819 -152.50699791 433.48827046 -151.64111328 431.41918945 C-149.85403627 427.15436901 -148.06000954 422.89257982 -146.25976562 418.63330078 C-143.8083917 412.83264523 -141.37325486 407.02534024 -138.9453125 401.21484375 C-138.197611 399.42585433 -137.44988981 397.63687315 -136.70214844 395.84790039 C-136.33665894 394.97344269 -135.97116943 394.09898499 -135.59460449 393.19802856 C-134.49455751 390.56816594 -133.39265524 387.93908913 -132.29003906 385.31030273 C-124.34028516 366.35627096 -116.47529194 347.36717466 -108.6171875 328.375 C-109.34719971 328.30506836 -110.07721191 328.23513672 -110.8293457 328.16308594 C-114.19776758 327.83186178 -117.56354006 327.47856394 -120.9296875 327.125 C-122.65155273 326.96064453 -122.65155273 326.96064453 -124.40820312 326.79296875 C-136.99077763 325.43847064 -148.57054665 321.9368791 -157.43359375 312.42578125 C-165.17166693 302.55440469 -167.54218841 292.34310807 -168.58203125 280.0625 C-168.74387486 278.30987127 -168.90599256 276.55726783 -169.06835938 274.8046875 C-169.31351788 272.08659386 -169.55527221 269.36827731 -169.79174805 266.64941406 C-170.02497583 263.99450044 -170.27151833 261.34106767 -170.51953125 258.6875 C-170.5852684 257.88723389 -170.65100555 257.08696777 -170.71873474 256.26245117 C-171.48543719 248.20799918 -173.30779021 241.1745661 -178.7421875 235 C-179.54269531 234.06929687 -180.34320313 233.13859375 -181.16796875 232.1796875 C-181.97621094 231.25414062 -182.78445312 230.32859375 -183.6171875 229.375 C-185.81275362 226.72449676 -187.98516079 224.05656019 -190.15234375 221.3828125 C-191.96983395 219.164956 -193.80894226 216.98006143 -195.67578125 214.8046875 C-206.51870668 202.00887405 -211.30124154 190.50779644 -209.90380859 173.55908203 C-208.68681157 164.28544029 -203.53575012 157.28396725 -197.6171875 150.375 C-196.19889871 148.62631439 -194.78232702 146.87623516 -193.3671875 145.125 C-190.87653743 142.0799244 -188.35945097 139.06571945 -185.7734375 136.1015625 C-185.29036133 135.5437207 -184.80728516 134.98587891 -184.30957031 134.41113281 C-183.38348212 133.34459522 -182.45104202 132.28352159 -181.51074219 131.22949219 C-174.79953244 123.48195607 -171.89435813 116.30597265 -170.9296875 106.125 C-170.81359131 105.08303467 -170.69749512 104.04106934 -170.57788086 102.9675293 C-170.01981245 97.85028635 -169.55434563 92.72778523 -169.1328125 87.59765625 C-167.80127776 71.48737584 -165.54992874 57.8338735 -153.4921875 46.125 C-143.76485393 38.0000059 -132.82047601 36.47619732 -120.6171875 35.375 C-116.93920917 35.03071676 -113.26208613 34.67970067 -109.58569336 34.31884766 C-107.02767404 34.06910541 -104.46857973 33.83008641 -101.90844727 33.60302734 C-90.87516975 32.54220661 -83.11671332 30.54012927 -74.6171875 23.375 C-73.61429688 22.53195313 -72.61140625 21.68890625 -71.578125 20.8203125 C-69.33397744 18.9258979 -67.09568833 17.02474576 -64.859375 15.12109375 C-46.07625775 -0.82964867 -24.08986189 -14.95728738 0 0 Z M-50.03417969 23.98925781 C-54.1279906 27.57292079 -58.37361885 30.97168213 -62.6171875 34.375 C-63.58398438 35.17292969 -64.55078125 35.97085938 -65.546875 36.79296875 C-66.53945312 37.58316406 -67.53203125 38.37335937 -68.5546875 39.1875 C-69.42996094 39.89519531 -70.30523437 40.60289063 -71.20703125 41.33203125 C-79.83588753 46.50143771 -89.24265704 48.05124707 -99.1171875 49 C-100.23851074 49.12060791 -101.35983398 49.24121582 -102.51513672 49.36547852 C-107.82819264 49.92953324 -113.1436495 50.42822402 -118.46875 50.86328125 C-119.36400391 50.94046387 -120.25925781 51.01764648 -121.18164062 51.09716797 C-122.8275317 51.23558101 -124.47473858 51.35952389 -126.12304688 51.46533203 C-133.6349748 52.08915432 -140.1833771 55.08804934 -145.6171875 60.375 C-154.4008259 70.89493901 -153.30665522 86.77857174 -154.38476562 99.79882812 C-155.87127711 116.39683753 -158.89385526 129.6696691 -170.48828125 142.078125 C-174.42230687 146.32254164 -178.00348049 150.85786624 -181.6171875 155.375 C-182.05417969 155.91769531 -182.49117187 156.46039063 -182.94140625 157.01953125 C-184.30100638 158.71416179 -185.64806913 160.41807333 -186.9921875 162.125 C-187.80429688 163.15109375 -188.61640625 164.1771875 -189.453125 165.234375 C-194.17743948 172.09060035 -195.88742665 178.18901436 -194.6171875 186.375 C-191.4937071 196.10128073 -184.78088306 203.2803699 -178.09375 210.71728516 C-167.92136979 222.13766571 -157.9848275 233.40302992 -156.1171875 248.9375 C-155.9939209 249.87625977 -155.8706543 250.81501953 -155.74365234 251.78222656 C-155.01765089 257.48507407 -154.43965506 263.19121782 -153.9375 268.91796875 C-153.82083984 270.19663818 -153.70417969 271.47530762 -153.58398438 272.79272461 C-153.36096481 275.29325188 -153.15570104 277.79544488 -152.97070312 280.29907227 C-152.02002872 290.96832576 -149.16623848 298.79192165 -140.97265625 305.90234375 C-134.72470028 309.80861141 -128.45111658 310.88874091 -121.25390625 311.4375 C-120.3812764 311.51492432 -119.50864655 311.59234863 -118.60957336 311.67211914 C-115.84207923 311.9171502 -113.07369328 312.14773505 -110.3046875 312.375 C-89.88750866 314.06044376 -75.87703481 316.6851632 -60.09375 330.39453125 C-54.93307847 334.8613433 -49.5340692 339.02564293 -44.13427734 343.19726562 C-42.80377226 344.2301521 -41.4848775 345.27795853 -40.16796875 346.328125 C-39.49121094 346.85921875 -38.81445312 347.3903125 -38.1171875 347.9375 C-37.570625 348.37191406 -37.0240625 348.80632812 -36.4609375 349.25390625 C-29.69961152 353.36513624 -21.02890719 353.65466657 -13.453125 351.86328125 C-6.90920037 349.00901625 -1.56205774 343.43332304 3.76757812 338.77685547 C26.11979869 319.37745243 41.09834278 314.04656547 70.13232422 311.84863281 C81.01207836 311.01316135 92.62957889 309.86663681 100.3828125 301.375 C103.86678746 295.53673133 106.25218003 290.03419499 106.80004883 283.23999023 C106.86714554 282.43492538 106.93424225 281.62986053 107.00337219 280.80039978 C107.07315781 279.93685379 107.14294342 279.0733078 107.21484375 278.18359375 C107.3749335 276.33262009 107.53576506 274.48171047 107.69726562 272.63085938 C107.94770537 269.73088932 108.19383731 266.83085671 108.42700195 263.92944336 C110.12952885 242.91842774 115.66438866 230.61146651 129.4140625 214.8046875 C135.58756226 207.70045018 141.46823446 200.41988253 146.3828125 192.375 C146.76050781 191.75882813 147.13820313 191.14265625 147.52734375 190.5078125 C149.77819136 184.89611025 149.20657606 176.98600701 147.4453125 171.25 C144.90116835 165.58188349 140.41630184 161.01594255 136.3828125 156.375 C120.64363903 138.05825175 111.21205215 124.67590542 108.8203125 100.0625 C108.63178711 98.19948242 108.63178711 98.19948242 108.43945312 96.29882812 C107.76050057 89.5199667 107.15741759 82.74581969 106.7097168 75.94750977 C105.74121546 68.32607692 101.33953979 61.16293743 95.3828125 56.375 C88.9851856 52.83728195 82.97691067 51.61075825 75.7578125 50.99609375 C74.77087402 50.89788834 73.78393555 50.79968292 72.76708984 50.69850159 C69.64019728 50.38866513 66.51194206 50.09878926 63.3828125 49.8125 C60.25392646 49.52091836 57.12576611 49.22463666 53.99853516 48.91578674 C52.06171153 48.72494044 50.12388503 48.5439116 48.18505859 48.37461853 C33.78500035 46.96945103 23.59956685 40.62669116 13.1328125 30.84765625 C8.28547131 26.48918044 3.09124359 22.56052983 -2.06933594 18.58251953 C-3.48969601 17.47445945 -4.88492261 16.33437749 -6.27734375 15.19140625 C-12.23234956 10.56857202 -18.32511977 8.58946907 -25.87109375 8.9453125 C-35.74245529 10.48990677 -42.81407932 17.61858101 -50.03417969 23.98925781 Z " fill="#010100" transform="translate(278.6171875,5.625)"/>
<path d="M0 0 C1.64127026 1.39016147 3.2560513 2.80453236 4.86108398 4.23632812 C5.38250977 4.6973291 5.90393555 5.15833008 6.44116211 5.63330078 C26.02170914 23.2472159 41.92261992 51.26910361 43.74389648 77.90527344 C44.57147687 94.36722657 44.91992256 110.4091703 39.86108398 126.23632812 C39.64677734 126.91550293 39.4324707 127.59467773 39.21166992 128.29443359 C34.29785068 143.40424894 26.9706183 156.95925546 16.86108398 169.23632812 C16.10182617 170.16058594 15.34256836 171.08484375 14.56030273 172.03710938 C-3.5780228 193.02531912 -32.04004822 208.89928909 -59.91772461 211.10742188 C-95.83566127 213.19190974 -127.42260327 205.05865131 -154.70092773 180.85009766 C-172.71018321 164.42010667 -183.88615551 143.62165241 -190.13891602 120.23632812 C-190.47922852 119.02976563 -190.81954102 117.82320312 -191.17016602 116.58007812 C-198.71331876 85.56933907 -189.92756163 54.29024596 -173.88891602 27.61132812 C-161.86620558 9.42663627 -143.86216713 -7.97297597 -123.13891602 -15.76367188 C-119.82641602 -16.38867188 -119.82641602 -16.38867188 -117.13891602 -15.76367188 C-114.20141602 -13.70117188 -114.20141602 -13.70117188 -112.13891602 -10.76367188 C-111.82641602 -7.26367188 -111.82641602 -7.26367188 -113.13891602 -3.76367188 C-115.8011696 -1.74035915 -118.20142547 -0.31129026 -121.13891602 1.23632812 C-131.78353656 7.1256199 -140.58995887 13.56580742 -149.13891602 22.23632812 C-149.88786133 22.97496094 -150.63680664 23.71359375 -151.40844727 24.47460938 C-160.90865735 34.42453355 -167.47537983 47.42223479 -172.13891602 60.23632812 C-172.55270508 61.33976562 -172.96649414 62.44320312 -173.39282227 63.58007812 C-176.31455346 72.94590634 -176.50615338 82.23890567 -176.51391602 91.98632812 C-176.51568848 93.30109131 -176.51746094 94.61585449 -176.51928711 95.97045898 C-176.24385833 119.99178337 -167.99182038 142.08637028 -152.13891602 160.23632812 C-151.61040039 160.90792969 -151.08188477 161.57953125 -150.53735352 162.27148438 C-137.06322225 178.96480463 -114.7495512 189.90210059 -94.13891602 194.23632812 C-87.88009761 194.7439672 -83.95199893 193.78600152 -78.45141602 190.86132812 C-77.76080078 190.50264648 -77.07018555 190.14396484 -76.35864258 189.77441406 C-50.6932389 175.990923 -33.31474848 152.09337507 -24.17016602 124.78320312 C-21.3467329 115.07230437 -19.93740976 105.81918908 -20.06469727 95.72070312 C-20.07005493 94.89940918 -20.0754126 94.07811523 -20.08093262 93.23193359 C-20.09475104 91.23335275 -20.11604164 89.23482584 -20.13891602 87.23632812 C-20.93103485 88.03955002 -21.72315369 88.84277191 -22.53927612 89.67033386 C-30.02811985 97.26080405 -37.53033494 104.83783284 -45.04563713 112.4021101 C-48.90834946 116.29084797 -52.76630042 120.18406939 -56.61352539 124.08813477 C-60.33071532 127.85989387 -64.06020323 131.61908877 -67.79831314 135.37011147 C-69.21797 136.79896343 -70.63323998 138.23218871 -72.04388046 139.66994286 C-89.17611301 157.1180705 -89.17611301 157.1180705 -100.13891602 157.86132812 C-110.21062339 157.27042367 -117.3844106 150.72481609 -124.10375977 143.83007812 C-124.90374893 143.02775757 -125.7037381 142.22543701 -126.52796936 141.39880371 C-128.20345181 139.71364078 -129.87294041 138.02249889 -131.53662109 136.32568359 C-134.08129287 133.73135611 -136.64439046 131.15641147 -139.21118164 128.58398438 C-140.84314484 126.93794261 -142.47404233 125.29084341 -144.10375977 123.64257812 C-144.8662352 122.87473999 -145.62871063 122.10690186 -146.41429138 121.3157959 C-154.26869246 113.28410024 -156.58349313 107.74417643 -156.48266602 96.50195312 C-155.83669245 90.36520426 -152.71588311 86.48086265 -148.26391602 82.42382812 C-141.70318174 77.83131414 -136.03310402 76.13133912 -128.13891602 77.23632812 C-120.17078306 80.03226491 -114.72367643 85.01004783 -109.01391602 91.04882812 C-108.24821289 91.83708984 -107.48250977 92.62535156 -106.69360352 93.4375 C-104.82994367 95.35939922 -102.97910135 97.2919874 -101.13891602 99.23632812 C-97.2768357 97.66265126 -94.70043768 95.04832312 -91.83886719 92.11572266 C-91.06481789 91.33488312 -91.06481789 91.33488312 -90.27513123 90.53826904 C-89.15767456 89.40987401 -88.0425033 88.27921211 -86.92937279 87.14654922 C-85.16376526 85.35071088 -83.39150537 83.56168967 -81.61726379 81.77438354 C-76.57478135 76.69221279 -71.54502971 71.59750983 -66.51855469 66.49951172 C-63.44046885 63.37856451 -60.35498998 60.26507781 -57.265131 57.15578842 C-56.09289807 55.97302867 -54.92358645 54.78736582 -53.7573452 53.59869766 C-52.12081139 51.93075237 -50.47506608 50.27241115 -48.82714844 48.61572266 C-48.35365967 48.12830597 -47.8801709 47.64088928 -47.39233398 47.13870239 C-44.00596901 43.76145485 -39.18781031 39.23632812 -34.13891602 39.23632812 C-37.20415121 32.33954895 -41.26084319 26.96806369 -46.13891602 21.23632812 C-46.81954102 20.40875 -47.50016602 19.58117187 -48.20141602 18.72851562 C-56.24618258 9.29366072 -65.76491647 2.37059147 -76.45141602 -3.76367188 C-77.09667236 -4.13758057 -77.74192871 -4.51148926 -78.40673828 -4.89672852 C-81.71725774 -6.72630415 -84.76615929 -8.02064392 -88.45922852 -8.87695312 C-92.13891602 -9.76367188 -92.13891602 -9.76367188 -94.70141602 -11.95117188 C-96.62870875 -15.721962 -96.33010186 -17.74341965 -95.13891602 -21.76367188 C-92.45121492 -24.98891319 -89.48293331 -25.10602739 -85.45556641 -25.56298828 C-54.89953187 -28.20995428 -23.92000821 -19.52317502 0 0 Z " fill="#FD5E05" transform="translate(330.138916015625,93.763671875)"/>
<path d="M0 0 C0.763125 0.804375 1.52625 1.60875 2.3125 2.4375 C5.17581346 5.16763609 6.74815718 5.47079928 10.50390625 6.23046875 C20.35849367 9.26858099 29.33702526 16.35367199 37 23 C37.80824219 23.66386719 38.61648438 24.32773438 39.44921875 25.01171875 C47.8082726 32.11100938 55.89129612 41.22096288 61 51 C61 51.99 61 52.98 61 54 C59.26980591 55.16189575 59.26980591 55.16189575 56.81298828 56.39892578 C49.42068615 60.63058283 43.91265042 66.58837825 37.9921875 72.6171875 C36.77424814 73.84260277 35.55541106 75.06712638 34.33572388 76.290802 C31.15398285 79.48769302 27.98444818 82.69641632 24.81744385 85.90789795 C21.57318931 89.19333643 18.31734219 92.46724376 15.0625 95.7421875 C8.69704122 102.15032906 2.34443896 108.57105157 -4 115 C-7.03226393 113.55270435 -9.02763175 112.17021912 -11.3203125 109.69921875 C-11.93302002 109.053479 -12.54572754 108.40773926 -13.17700195 107.74243164 C-13.81984131 107.0643042 -14.46268066 106.38617676 -15.125 105.6875 C-21.92154014 98.74176551 -27.88658089 93.08058738 -38 92.375 C-44.30111924 92.73222881 -50.01198971 95.26390627 -54.66796875 99.52734375 C-59.84155911 105.48986871 -60.39723262 110.0946986 -60.2421875 117.8125 C-59.26775301 130.6373152 -45.75342088 140.5196443 -37.20385742 149.14624023 C-35.85957578 150.50712397 -34.52068792 151.87335688 -33.18725586 153.24487305 C-21.21197614 166.17156119 -21.21197614 166.17156119 -5 171.625 C8.23465434 170.51299923 16.4364002 160.20388083 25.16015625 151.29296875 C26.59960982 149.84163306 28.04025786 148.39148118 29.48204041 146.94245911 C33.25237635 143.14750265 37.00785827 139.33819265 40.7598877 135.52514648 C46.07366306 130.13052218 51.40778367 124.75599869 56.73936462 119.37898254 C59.57569284 116.51835721 62.40644468 113.65238245 65.23292542 110.7820282 C66.51472858 109.48382459 67.79654255 108.18563165 69.07836914 106.88745117 C69.66686142 106.28750839 70.2553537 105.68756561 70.86167908 105.06944275 C72.22221155 103.6939983 73.60829045 102.34389009 75 101 C75.33 101 75.66 101 76 101 C77.27156006 132.22386376 67.8414718 160.08355478 46.68798828 183.44921875 C36.36000585 194.63636853 20.95886017 208.93617502 5.1796875 210.33984375 C0.40290353 210.14255051 -4.0144841 208.90289479 -8.5625 207.5 C-9.43583984 207.23227783 -10.30917969 206.96455566 -11.20898438 206.6887207 C-24.35837823 202.46951596 -35.32932483 195.74423452 -46 187 C-46.86238281 186.30261719 -47.72476563 185.60523438 -48.61328125 184.88671875 C-66.9130323 169.31912338 -79.15799235 145.76592358 -82 122 C-83.61884468 97.71067469 -81.15586772 77.31933696 -69 56 C-68.44441406 55.00484375 -67.88882813 54.0096875 -67.31640625 52.984375 C-62.8301207 45.45344002 -57.12168147 39.20682308 -51 33 C-50.20722656 32.19433594 -49.41445312 31.38867188 -48.59765625 30.55859375 C-41.37449828 23.64791849 -32.87345859 18.53550044 -24.01220703 13.97753906 C-22.29288093 13.07180314 -20.63983414 12.04277696 -19 11 C-18.18129815 7.43793339 -18.18129815 7.43793339 -18 4 C-15.25686894 2.17124596 -13.22925051 1.27962972 -10.125 0.3125 C-9.28195313 0.04050781 -8.43890625 -0.23148437 -7.5703125 -0.51171875 C-4.65975006 -1.06463715 -2.81644328 -0.88990141 0 0 Z " fill="#FE7F00" transform="translate(235,79)"/>
<path d="M0 0 C1.64127026 1.39016147 3.2560513 2.80453236 4.86108398 4.23632812 C5.38250977 4.6973291 5.90393555 5.15833008 6.44116211 5.63330078 C26.02170914 23.2472159 41.92261992 51.26910361 43.74389648 77.90527344 C44.57147687 94.36722657 44.91992256 110.4091703 39.86108398 126.23632812 C39.64677734 126.91550293 39.4324707 127.59467773 39.21166992 128.29443359 C34.29785068 143.40424894 26.9706183 156.95925546 16.86108398 169.23632812 C16.10182617 170.16058594 15.34256836 171.08484375 14.56030273 172.03710938 C-3.5780228 193.02531912 -32.04004822 208.89928909 -59.91772461 211.10742188 C-95.83566127 213.19190974 -127.42260327 205.05865131 -154.70092773 180.85009766 C-172.71018321 164.42010667 -183.88615551 143.62165241 -190.13891602 120.23632812 C-190.47922852 119.02976563 -190.81954102 117.82320312 -191.17016602 116.58007812 C-198.71331876 85.56933907 -189.92756163 54.29024596 -173.88891602 27.61132812 C-161.86620558 9.42663627 -143.86216713 -7.97297597 -123.13891602 -15.76367188 C-119.82641602 -16.38867188 -119.82641602 -16.38867188 -117.13891602 -15.76367188 C-114.20141602 -13.70117188 -114.20141602 -13.70117188 -112.13891602 -10.76367188 C-111.82641602 -7.26367188 -111.82641602 -7.26367188 -113.13891602 -3.76367188 C-115.8011696 -1.74035915 -118.20142547 -0.31129026 -121.13891602 1.23632812 C-131.78353656 7.1256199 -140.58995887 13.56580742 -149.13891602 22.23632812 C-149.88786133 22.97496094 -150.63680664 23.71359375 -151.40844727 24.47460938 C-160.90865735 34.42453355 -167.47537983 47.42223479 -172.13891602 60.23632812 C-172.55270508 61.33976562 -172.96649414 62.44320312 -173.39282227 63.58007812 C-176.31455346 72.94590634 -176.50615338 82.23890567 -176.51391602 91.98632812 C-176.51568848 93.30109131 -176.51746094 94.61585449 -176.51928711 95.97045898 C-176.24385833 119.99178337 -167.99182038 142.08637028 -152.13891602 160.23632812 C-151.61040039 160.90792969 -151.08188477 161.57953125 -150.53735352 162.27148438 C-136.29815558 179.91265817 -112.74081761 190.73853466 -90.93969727 194.83789062 C-62.08671707 197.8625607 -33.26089774 192.15560261 -10.20141602 173.79882812 C-8.49098894 172.30382662 -6.80294662 170.78280555 -5.13891602 169.23632812 C-4.2662207 168.43195313 -3.39352539 167.62757813 -2.49438477 166.79882812 C16.98366474 148.10924539 27.58265394 122.31665128 28.14453125 95.53100586 C28.38778372 68.9919575 20.43234194 46.96463705 3.86108398 26.23632812 C3.23459961 25.44226563 2.60811523 24.64820313 1.96264648 23.83007812 C-13.8482045 4.88374192 -39.17510096 -6.82184924 -63.3840332 -9.57177734 C-70.05044536 -10.03613395 -76.78584861 -9.78954396 -83.45629883 -9.4777832 C-91.50209304 -9.23689479 -91.50209304 -9.23689479 -94.89672852 -12.04492188 C-96.59349216 -15.75859325 -96.28898602 -17.8821856 -95.13891602 -21.76367188 C-92.45121492 -24.98891319 -89.48293331 -25.10602739 -85.45556641 -25.56298828 C-54.89953187 -28.20995428 -23.92000821 -19.52317502 0 0 Z " fill="#040201" transform="translate(330.138916015625,93.763671875)"/>
<path d="M0 0 C5.40923637 0.43067169 8.74326666 0.9099643 13.125 4.3125 C14.05957031 5.034375 14.99414062 5.75625 15.95703125 6.5 C19.88489245 9.72699765 23.74464078 13.02667317 27.59179688 16.34912109 C46.23552871 32.60459627 46.23552871 32.60459627 70 38 C69.41682075 41.28659358 68.62712357 44.21558244 67.33618164 47.29150391 C66.99327591 48.11491776 66.65037018 48.9383316 66.29707336 49.78669739 C65.92189072 50.67435287 65.54670807 51.56200836 65.16015625 52.4765625 C64.76632248 53.41864059 64.37248871 54.36071869 63.96672058 55.3313446 C62.66966565 58.4310732 61.36610966 61.52802301 60.0625 64.625 C59.15875303 66.78131537 58.25543775 68.93781172 57.35253906 71.09448242 C55.49218737 75.53618483 53.62925322 79.97679039 51.76416016 84.41650391 C49.15298134 90.63315627 46.54969167 96.85308165 43.94921875 103.07421875 C36.98759381 119.72520953 30.00919954 136.36897455 23 153 C22.01 153 21.02 153 20 153 C19.36553955 151.79053711 19.36553955 151.79053711 18.71826172 150.55664062 C17.12467942 147.52696355 15.52486146 144.50074818 13.92089844 141.4765625 C13.2319025 140.17448241 12.54531643 138.87112383 11.86132812 137.56640625 C5.36125187 123.45578236 5.36125187 123.45578236 -6 114 C-12.52716482 113.56773743 -17.7918364 114.82398199 -24 116.75 C-25.84700552 117.30166256 -27.69467172 117.8511176 -29.54296875 118.3984375 C-30.4561084 118.67010742 -31.36924805 118.94177734 -32.31005859 119.22167969 C-36.28680322 120.3723297 -40.29215543 121.38926015 -44.3125 122.375 C-44.99376953 122.54225586 -45.67503906 122.70951172 -46.37695312 122.88183594 C-47.91722695 123.25761103 -49.45848744 123.62933927 -51 124 C-50.30230165 119.20206422 -48.48249077 115.04321073 -46.59765625 110.6171875 C-46.24857712 109.78695068 -45.89949799 108.95671387 -45.5398407 108.10131836 C-44.38502375 105.35737944 -43.22373905 102.61622651 -42.0625 99.875 C-41.24919131 97.94567887 -40.43637351 96.01615074 -39.62402344 94.08642578 C-37.93169448 90.06725323 -36.23723716 86.04898733 -34.54150391 82.03125 C-32.11398501 76.27555612 -29.70068901 70.51400012 -27.29296875 64.75 C-26.91418076 63.84326035 -26.53539276 62.93652069 -26.14512634 62.00230408 C-25.38820091 60.19025635 -24.63129866 58.37819893 -23.87442017 56.56613159 C-15.98411466 37.68186479 -8.01927923 18.82983176 0 0 Z " fill="#FD4949" transform="translate(187,335)"/>
<path d="M0 0 C4.44317384 8.42017449 8.06771328 17.14463725 11.6875 25.9375 C12.6772417 28.32982723 13.66833037 30.72159375 14.6594696 33.11334229 C15.35609805 34.79460939 16.05230885 36.4760496 16.74812317 38.15765381 C20.44311589 47.08384929 24.18166824 55.99166501 27.91940308 64.90002441 C36.02927192 84.23276352 44.04940571 103.60124906 52 123 C49.11881555 124.44059223 47.54739124 123.51923435 44.46875 122.671875 C42.78652344 122.21361328 42.78652344 122.21361328 41.0703125 121.74609375 C39.89210938 121.41738281 38.71390625 121.08867187 37.5 120.75 C36.35273438 120.43675781 35.20546875 120.12351562 34.0234375 119.80078125 C28.00814511 118.14965885 22.02094047 116.43364617 16.06689453 114.57324219 C11.27034262 113.24294407 7.59575398 113.39206158 3.23828125 115.734375 C-2.65058873 119.54482028 -5.13782621 125.6438527 -8.1875 131.75 C-9.36822041 134.03659734 -10.5492051 136.32305825 -11.73046875 138.609375 C-12.2826709 139.69541016 -12.83487305 140.78144531 -13.40380859 141.90039062 C-15.50853303 145.98750924 -17.72851223 150.00363569 -20 154 C-20.66 154 -21.32 154 -22 154 C-22.22470978 153.46732513 -22.44941956 152.93465027 -22.68093872 152.38583374 C-25.04951271 146.77134487 -27.41864674 141.15709254 -29.78808594 135.54296875 C-30.6687594 133.4561136 -31.54929666 131.36920096 -32.4296875 129.28222656 C-32.85507812 128.27385742 -33.28046875 127.26548828 -33.71875 126.2265625 C-34.14009216 125.22772034 -34.56143433 124.22887817 -34.99554443 123.19976807 C-36.23956323 120.2541486 -37.48737799 117.3101566 -38.73535156 114.36621094 C-40.12692185 111.08035345 -41.50145462 107.78884768 -42.85058594 104.48535156 C-43.12224579 103.82830231 -43.39390564 103.17125305 -43.67379761 102.49429321 C-44.36913148 100.81068634 -45.05583129 99.12352041 -45.74169922 97.43603516 C-46.89555951 94.71957565 -46.89555951 94.71957565 -50 93 C-51.134375 92.96132813 -52.26875 92.92265625 -53.4375 92.8828125 C-57 92 -57 92 -58.23828125 90.44433594 C-59.31903555 88.29221612 -60.17859706 86.13858967 -61 83.875 C-61.31066406 83.12734375 -61.62132812 82.3796875 -61.94140625 81.609375 C-64.97227999 73.80793318 -63.23905417 67.84129571 -60.015625 60.2734375 C-59.71815369 59.56273102 -59.42068237 58.85202454 -59.11419678 58.11978149 C-58.48628387 56.62722213 -57.85407219 55.13646462 -57.21777344 53.64746094 C-56.25231641 51.38043923 -55.30916715 49.10498509 -54.3671875 46.828125 C-53.75133222 45.37183173 -53.13418743 43.91608297 -52.515625 42.4609375 C-52.23833557 41.78686859 -51.96104614 41.11279968 -51.675354 40.41830444 C-48.84829493 33.90240352 -44.2932371 30.11693737 -38.875 25.75 C-37.91078125 24.97011719 -36.9465625 24.19023437 -35.953125 23.38671875 C-34.97859375 22.59910156 -34.0040625 21.81148438 -33 21 C-31.20794901 19.52129897 -29.4162779 18.04213744 -27.625 16.5625 C-23.47918566 13.17426613 -19.29236198 9.84478237 -15.0625 6.5625 C-14.51867676 6.13718994 -13.97485352 5.71187988 -13.41455078 5.27368164 C-8.67982732 1.62562812 -5.98231517 -0.11234106 0 0 Z " fill="#FD4949" transform="translate(324,335)"/>
<path d="M0 0 C4.80912893 3.20608595 8.99967411 7.98837964 11.109375 13.40625 C11.4453125 16.32421875 11.4453125 16.32421875 11.484375 19.59375 C11.51273438 20.65980469 11.54109375 21.72585937 11.5703125 22.82421875 C10.44911848 31.53722654 5.93837405 37.31495545 -0.16259766 43.32519531 C-0.8883902 44.05974945 -1.61418274 44.79430359 -2.36196899 45.55111694 C-4.74718235 47.95820462 -7.15006282 50.34669044 -9.5546875 52.734375 C-11.22968398 54.41274334 -12.90393794 56.09185301 -14.57748413 57.77166748 C-18.0815104 61.28304931 -21.59437849 64.78527016 -25.11376953 68.28125 C-29.60953495 72.7485522 -34.08250665 77.23789864 -38.54905128 81.73439407 C-42.00081753 85.2042868 -45.46447757 88.66211008 -48.93177414 92.11647797 C-50.58514144 93.76652497 -52.23484448 95.42025252 -53.88069534 97.07779694 C-56.18929081 99.39918539 -58.51348141 101.70379041 -60.84228516 104.00488281 C-61.51070435 104.68342316 -62.17912354 105.3619635 -62.86779785 106.06106567 C-68.76988097 111.83462111 -75.46521419 116.41096599 -83.890625 117.03125 C-93.96233237 116.44034555 -101.13611959 109.89473797 -107.85546875 103 C-108.65545792 102.19767944 -109.45544708 101.39535889 -110.27967834 100.56872559 C-111.95516079 98.88356265 -113.6246494 97.19242076 -115.28833008 95.49560547 C-117.83300185 92.90127799 -120.39609944 90.32633335 -122.96289062 87.75390625 C-124.59485382 86.10786448 -126.22575131 84.46076529 -127.85546875 82.8125 C-128.61794418 82.04466187 -129.38041962 81.27682373 -130.16600037 80.48571777 C-138.02040144 72.45402212 -140.33520211 66.9140983 -140.234375 55.671875 C-139.58840144 49.53512613 -136.46759209 45.65078453 -132.015625 41.59375 C-125.45489073 37.00123601 -119.78481301 35.301261 -111.890625 36.40625 C-103.92249205 39.20218679 -98.47538541 44.17996971 -92.765625 50.21875 C-91.99992187 51.00701172 -91.23421875 51.79527344 -90.4453125 52.60742188 C-88.58165265 54.5293211 -86.73081033 56.46190928 -84.890625 58.40625 C-80.98402149 56.81494681 -78.56700959 54.29247133 -75.63818359 51.30151367 C-75.1269696 50.78256027 -74.61575562 50.26360687 -74.08905029 49.72892761 C-72.9814828 48.60373619 -71.87613849 47.47635302 -70.77277756 46.34703636 C-69.01968079 44.5543999 -67.25906207 42.76948411 -65.4960022 40.98664856 C-60.48464 35.9173793 -55.48286666 30.8388161 -50.49658203 25.74487305 C-47.44244654 22.62589082 -44.37590266 19.51955996 -41.30147171 16.42058754 C-40.1382708 15.24322318 -38.97974437 14.06121981 -37.82624435 12.87434959 C-27.11369447 1.85644154 -15.71028544 -7.79943249 0 0 Z " fill="#060403" transform="translate(313.890625,134.59375)"/>
<path d="M0 0 C1.44767401 2.35709519 2.20252073 4.10420139 1.57855225 6.86416626 C0.71391564 9.16680115 -0.2491972 11.40111502 -1.2578125 13.64453125 C-1.81363762 14.93780334 -1.81363762 14.93780334 -2.38069153 16.25720215 C-3.61313248 19.11603495 -4.86917312 21.96387238 -6.125 24.8125 C-6.98837161 26.80473352 -7.84975078 28.79783156 -8.70922852 30.79174805 C-10.06023206 33.92574608 -11.41239369 37.05917938 -12.77070618 40.1900177 C-16.10882443 47.89078921 -19.36799161 55.62167416 -22.58203125 63.375 C-23.03302185 64.46286301 -23.48401245 65.55072601 -23.94866943 66.67155457 C-25.71207492 70.92940966 -27.47304639 75.18826662 -29.23272705 79.44766235 C-30.45335966 82.39977577 -31.67757081 85.35038369 -32.90234375 88.30078125 C-33.43720146 89.59961243 -33.43720146 89.59961243 -33.98286438 90.92468262 C-36.12047183 96.06805577 -38.45409831 101.04541797 -41 106 C-42.58515655 104.09781214 -43.86784779 102.33772232 -44.7734375 100.0234375 C-45.67275634 97.75451383 -46.47814615 95.91657099 -48 94 C-50.04874275 93.57952359 -50.04874275 93.57952359 -52.3125 93.5625 C-54.66796875 93.265625 -54.66796875 93.265625 -57 92 C-58.76844764 89.43081915 -59.95020088 86.69340379 -61.125 83.8125 C-61.43219971 83.0687915 -61.73939941 82.32508301 -62.0559082 81.55883789 C-64.9451707 73.77821693 -63.21475327 67.78424289 -60.015625 60.2734375 C-59.71815369 59.56273102 -59.42068237 58.85202454 -59.11419678 58.11978149 C-58.48628387 56.62722213 -57.85407219 55.13646462 -57.21777344 53.64746094 C-56.25231641 51.38043923 -55.30916715 49.10498509 -54.3671875 46.828125 C-53.75133222 45.37183173 -53.13418743 43.91608297 -52.515625 42.4609375 C-52.23833557 41.78686859 -51.96104614 41.11279968 -51.675354 40.41830444 C-48.84829493 33.90240352 -44.2932371 30.11693737 -38.875 25.75 C-37.91078125 24.97011719 -36.9465625 24.19023437 -35.953125 23.38671875 C-34.97859375 22.59910156 -34.0040625 21.81148438 -33 21 C-31.20794901 19.52129897 -29.4162779 18.04213744 -27.625 16.5625 C-23.47918566 13.17426613 -19.29236198 9.84478237 -15.0625 6.5625 C-14.51867676 6.13718994 -13.97485352 5.71187988 -13.41455078 5.27368164 C-8.8216418 1.73489465 -5.8703526 -0.3261307 0 0 Z " fill="#ED3434" transform="translate(324,335)"/>
<path d="M0 0 C2.82574463 0.44126892 2.82574463 0.44126892 5.70074463 2.50376892 C8.44091502 6.29165153 8.50612002 7.82939357 7.82574463 12.44126892 C5.9086979 15.39504768 3.48135785 17.75249897 0.97613525 20.21250916 C0.24771423 20.9548027 -0.48070679 21.69709625 -1.23120117 22.46188354 C-3.64266995 24.90924236 -6.07895358 27.33001439 -8.51800537 29.74986267 C-10.20373407 31.44284649 -11.88849484 33.13679459 -13.57232666 34.83166504 C-17.10528085 38.3794526 -20.65084644 41.91401208 -24.20550537 45.44004822 C-28.75971731 49.95998661 -33.27927074 54.51286262 -37.78969574 59.07644558 C-41.26189988 62.58145382 -44.75274043 66.06741478 -48.24940491 69.54800606 C-49.92356297 71.21934316 -51.5916613 72.89677311 -53.25352478 74.58033562 C-55.5800947 76.93194988 -57.93076013 79.25649453 -60.28948975 81.57579041 C-61.31233063 82.62527863 -61.31233063 82.62527863 -62.35583496 83.69596863 C-65.54773045 86.78425971 -67.84018516 88.85903897 -72.39801025 89.07569885 C-76.31995793 88.41679009 -77.71504303 87.9052969 -80.47894287 85.15586853 C-81.21910645 84.43769455 -81.95927002 83.71952057 -82.72186279 82.97958374 C-83.48990234 82.19221329 -84.25794189 81.40484283 -85.04925537 80.59361267 C-85.85918945 79.78896072 -86.66912354 78.98430878 -87.50360107 78.15527344 C-89.20746663 76.45246796 -90.90138736 74.73966076 -92.58587646 73.01768494 C-95.16738125 70.38577725 -97.78651659 67.79625637 -100.41253662 65.20884705 C-102.06468018 63.54782326 -103.71450196 61.88448618 -105.36175537 60.21861267 C-106.14598877 59.44541183 -106.93022217 58.672211 -107.73822021 57.87557983 C-113.03182958 52.39469725 -113.03182958 52.39469725 -113.75628662 47.54502869 C-113.17425537 44.44126892 -113.17425537 44.44126892 -111.67425537 42.00376892 C-108.23594681 39.85482607 -105.08077406 39.73161761 -101.17425537 40.44126892 C-98.77171173 42.14765774 -97.15530422 43.53340546 -95.21331787 45.65611267 C-94.69667572 46.18644608 -94.18003357 46.71677948 -93.6477356 47.26318359 C-92.01160818 48.95042933 -90.40539464 50.66299968 -88.79925537 52.37876892 C-87.16586447 54.08448266 -85.5268639 55.78463158 -83.88650513 57.48364258 C-82.87052202 58.54017008 -81.85976016 59.6017486 -80.85482788 60.66879272 C-77.27174831 64.4943162 -77.27174831 64.4943162 -72.33435059 65.73373413 C-68.46451382 65.3755827 -67.37738745 64.43610548 -64.61273193 61.76182556 C-63.31680115 60.52180283 -63.31680115 60.52180283 -61.99468994 59.25672913 C-61.06394653 58.32762726 -60.13320312 57.39852539 -59.17425537 56.44126892 C-58.68611862 55.95745129 -58.19798187 55.47363365 -57.6950531 54.97515488 C-54.41174348 51.71697137 -51.16522299 48.42398037 -47.92937469 45.11872673 C-44.85667417 41.98421673 -41.76774966 38.86572531 -38.68206787 35.7440033 C-34.78095322 31.79487673 -30.88472892 27.84120626 -27.00335693 23.87266541 C-23.84065907 20.63978474 -20.66356314 17.42169768 -17.47632599 14.2130146 C-16.27003219 12.99314519 -15.06916678 11.76788245 -13.87395477 10.53715324 C-12.20869181 8.8236913 -10.52569252 7.12974432 -8.83734131 5.43907166 C-8.35098206 4.9295697 -7.8646228 4.42006775 -7.36352539 3.89512634 C-4.90234789 1.46995606 -3.46123294 0.48116309 0 0 Z " fill="#FEFEFE" transform="translate(302.17425537109375,146.55873107910156)"/>
</svg>
