<?xml version="1.0" encoding="UTF-8"?>
<svg version="1.1" xmlns="http://www.w3.org/2000/svg" width="512" height="512">
<path d="M0 0 C0.83454208 -0.0049649 1.66908417 -0.00992981 2.52891541 -0.01504517 C5.29386213 -0.0296657 8.05875141 -0.03647015 10.82373047 -0.04199219 C12.74844362 -0.04774564 14.67315675 -0.05350335 16.59786987 -0.05926514 C20.6380032 -0.06977613 24.67811664 -0.07561753 28.71826172 -0.07910156 C33.87962325 -0.08457329 39.04071925 -0.1085726 44.20199776 -0.13707352 C48.18100738 -0.15576011 52.15995397 -0.16090879 56.13900375 -0.16243744 C58.04068318 -0.1654531 59.94236179 -0.17344472 61.84399796 -0.18662262 C64.51468906 -0.20380217 67.18474382 -0.20177356 69.85546875 -0.1953125 C70.63191238 -0.20452728 71.40835602 -0.21374207 72.20832825 -0.22323608 C82.55811852 -0.14535193 90.0939417 3.76952469 97.50732422 10.75488281 C104.45662301 18.13960133 106.41840681 26.29968992 106.28857422 36.25854492 C105.88201233 45.57521997 102.30606688 53.47040535 95.81591797 60.16113281 C90.761659 64.32613258 87.41267384 66.0616735 80.81591797 67.16113281 C81.14591797 75.41113281 81.47591797 83.66113281 81.81591797 92.16113281 C86.98248047 93.55332031 86.98248047 93.55332031 92.25341797 94.97363281 C123.59412599 103.89749502 151.91849132 120.06761323 175.33740234 142.73388672 C176.87436206 144.21755028 178.43093562 145.67885558 179.98779297 147.14160156 C212.92395983 178.56022329 236.60261934 227.53227856 237.99291992 273.32861328 C238.01905401 274.81175937 238.03922402 276.29501958 238.05419922 277.77832031 C238.06403839 278.58447784 238.07387756 279.39063538 238.08401489 280.22122192 C238.48372934 321.53346817 232.29232851 370.61666362 203.81591797 403.16113281 C201.50341797 404.53613281 201.50341797 404.53613281 198.81591797 405.16113281 C197.72923828 404.88140625 196.64255859 404.60167969 195.52294922 404.31347656 C192.0089732 403.80642446 192.0089732 403.80642446 190.20141602 405.23046875 C188.60298686 406.85602495 187.20760152 408.54325703 185.81591797 410.34863281 C185.06375 411.23518555 185.06375 411.23518555 184.29638672 412.13964844 C182.67350409 414.07469495 182.67350409 414.07469495 180.81591797 417.16113281 C181.11634216 419.23206382 181.11634216 419.23206382 181.81591797 421.16113281 C182.200018 424.22844594 182.31738912 427.10324892 181.81591797 430.16113281 C179.63432652 432.91682728 177.94414303 434.59702028 174.81591797 436.16113281 C170.44796778 436.40379671 167.62436044 436.28345869 163.81591797 434.16113281 C163.21263672 434.70382812 162.60935547 435.24652344 161.98779297 435.80566406 C161.18857422 436.52109375 160.38935547 437.23652344 159.56591797 437.97363281 C158.77701172 438.68132812 157.98810547 439.38902344 157.17529297 440.11816406 C154.81591797 442.16113281 154.81591797 442.16113281 152.51904297 443.61816406 C150.57088933 445.03975387 150.57088933 445.03975387 150.56591797 447.46582031 C150.7320828 449.17420253 150.89874645 450.88253631 151.06591797 452.59082031 C150.70325099 456.31949016 149.50047425 457.53309351 146.81591797 460.16113281 C143.73983376 462.30481904 140.52603807 464.14778081 137.25341797 465.97363281 C136.32029785 466.49844238 135.38717773 467.02325195 134.42578125 467.56396484 C116.7622609 477.31131253 97.84075895 484.16278346 78.12841797 488.41113281 C77.42974609 488.56227539 76.73107422 488.71341797 76.01123047 488.86914062 C62.91581393 491.51088449 49.83866924 492.57417699 36.50341797 492.53613281 C35.77490631 492.53558899 35.04639465 492.53504517 34.29580688 492.53448486 C-20.96115029 492.34696719 -71.77875688 469.55377819 -110.62451172 430.72119141 C-124.92726343 416.13318538 -153.18408203 383.965686 -153.18408203 362.16113281 C-154.5580439 362.17112556 -154.5580439 362.17112556 -155.95976257 362.18132019 C-164.5965537 362.2414585 -173.2332744 362.2871211 -181.87022686 362.31656933 C-186.31046679 362.33221799 -190.75053355 362.35344159 -195.19067383 362.38745117 C-199.47654228 362.42007325 -203.76224427 362.43799185 -208.04822731 362.44576454 C-209.68248934 362.45130294 -211.31674238 362.46211816 -212.95093346 362.47832298 C-215.24198389 362.50013553 -217.53234857 362.5030982 -219.82348633 362.50170898 C-221.12698532 362.50837082 -222.43048431 362.51503265 -223.77348328 362.52189636 C-227.44332277 362.13371106 -229.28087369 361.39552059 -232.18408203 359.16113281 C-234.86313933 355.14254687 -234.88018897 351.8847156 -234.18408203 347.16113281 C-232.39014535 344.29083413 -231.20144927 342.66981643 -228.18408203 341.16113281 C-226.02929273 341.06931199 -223.87158485 341.04362819 -221.71484375 341.04760742 C-220.71954147 341.04738838 -220.71954147 341.04738838 -219.70413208 341.04716492 C-217.5073115 341.0478625 -215.31057533 341.05564767 -213.11376953 341.06347656 C-211.59205166 341.06534129 -210.07033319 341.06676494 -208.5486145 341.06776428 C-204.54057156 341.07158515 -200.53256477 341.08141177 -196.52453613 341.09246826 C-192.43579599 341.10269163 -188.34705002 341.10726389 -184.25830078 341.11230469 C-176.2335446 341.12303441 -168.20881781 341.14010568 -160.18408203 341.16113281 C-160.38963211 340.35973373 -160.59518219 339.55833466 -160.80696106 338.73265076 C-161.07683334 337.66934036 -161.34670563 336.60602997 -161.62475586 335.51049805 C-161.89218094 334.46159897 -162.15960602 333.41269989 -162.43513489 332.33201599 C-163.5375768 327.66451101 -164.23386838 322.97337982 -164.87158203 318.22363281 C-165.00113281 317.31806641 -165.13068359 316.4125 -165.26416016 315.47949219 C-165.84138624 311.3228536 -166.20946365 307.36145127 -166.18408203 303.16113281 C-166.78685471 303.17223587 -167.38962738 303.18333893 -168.01066589 303.19477844 C-174.28845389 303.30545838 -180.56596446 303.38083585 -186.84448242 303.43579102 C-189.18704487 303.46092407 -191.52952899 303.49503589 -193.87182617 303.53833008 C-197.24043102 303.59903209 -200.60799852 303.62735532 -203.97705078 303.64941406 C-205.54606392 303.6881237 -205.54606392 303.6881237 -207.14677429 303.72761536 C-214.42665345 303.73041892 -214.42665345 303.73041892 -218.34301758 300.78686523 C-220.33214743 297.94996144 -220.86264025 296.58885878 -220.80908203 293.16113281 C-220.82197266 292.33613281 -220.83486328 291.51113281 -220.84814453 290.66113281 C-219.83386797 286.84267987 -218.35160408 285.54185404 -215.18408203 283.16113281 C-211.44427477 282.46436948 -207.76976701 282.57928021 -203.97705078 282.67285156 C-202.35625359 282.68346367 -202.35625359 282.68346367 -200.70271301 282.69429016 C-197.25829259 282.72223435 -193.81550948 282.78497648 -190.37158203 282.84863281 C-188.03371491 282.87371549 -185.69582227 282.8965287 -183.35791016 282.91699219 C-177.63274402 282.97206105 -171.90853001 283.05568862 -166.18408203 283.16113281 C-166.19128769 282.35973373 -166.19849335 281.55833466 -166.20591736 280.73265076 C-166.21152176 279.66934036 -166.21712616 278.60602997 -166.22290039 277.51049805 C-166.23010605 276.46159897 -166.23731171 275.41269989 -166.24473572 274.33201599 C-166.15347323 269.56095099 -165.48902648 264.93038531 -164.74658203 260.22363281 C-164.54452148 258.8652832 -164.54452148 258.8652832 -164.33837891 257.47949219 C-163.71614998 253.34849915 -163.01094538 249.25630118 -162.18408203 245.16113281 C-163.50095505 245.17001526 -164.81782806 245.17889771 -166.17460632 245.18804932 C-178.57871141 245.26910021 -190.98276285 245.3290816 -203.38707256 245.3683815 C-209.76442683 245.38926515 -216.1415675 245.41759764 -222.51879883 245.46289062 C-228.67202164 245.50631965 -234.82503886 245.53026406 -240.97840309 245.54064178 C-243.32718963 245.54803837 -245.67596479 245.56248195 -248.02466393 245.58405304 C-251.31201966 245.613047 -254.59852351 245.61709037 -257.88598633 245.61523438 C-258.85918823 245.62961548 -259.83239014 245.64399658 -260.83508301 245.65881348 C-265.15108413 245.63240837 -267.52515861 245.56818547 -271.26521301 243.25775146 C-274.48159185 239.74343141 -274.57324425 237.04731658 -274.54345703 232.42285156 C-273.97351337 228.83592352 -271.98182155 227.29274387 -269.18408203 225.16113281 C-266.79944424 223.96881392 -265.35287371 224.0379015 -262.69161987 224.0408783 C-261.74648529 224.03950363 -260.80135071 224.03812897 -259.82757568 224.03671265 C-258.26743744 224.04210556 -258.26743744 224.04210556 -256.67578125 224.04760742 C-255.58308929 224.0474614 -254.49039734 224.04731537 -253.36459351 224.04716492 C-249.73929891 224.04786368 -246.11405519 224.05565439 -242.48876953 224.06347656 C-239.98056059 224.06534087 -237.47235128 224.06676471 -234.96414185 224.06776428 C-229.02848404 224.0711972 -223.09284266 224.07908517 -217.1571933 224.08911377 C-209.73777406 224.10137776 -202.31835256 224.10675652 -194.89892578 224.11230469 C-181.66063519 224.12304022 -168.42235977 224.1399241 -155.18408203 224.16113281 C-154.95937729 222.74194298 -154.95937729 222.74194298 -154.73013306 221.29408264 C-154.26160771 218.60593383 -153.6828938 216.56233605 -152.58251953 214.09472656 C-152.25638672 213.36060547 -151.93025391 212.62648437 -151.59423828 211.87011719 C-151.25263672 211.12052734 -150.91103516 210.3709375 -150.55908203 209.59863281 C-150.24068359 208.87611328 -149.92228516 208.15359375 -149.59423828 207.40917969 C-146.47770683 200.4721898 -142.83840311 193.82531388 -139.18408203 187.16113281 C-140.25070824 187.17112556 -140.25070824 187.17112556 -141.33888245 187.18132019 C-148.06193695 187.24159694 -154.7849153 187.28719099 -161.50817966 187.31656933 C-164.96414849 187.33218118 -168.41989279 187.35333637 -171.87573242 187.38745117 C-175.85478975 187.42648221 -179.83375826 187.44087913 -183.81298828 187.45410156 C-185.66181358 187.47732735 -185.66181358 187.47732735 -187.54798889 187.50102234 C-193.82788506 187.50224833 -198.72602795 187.42736614 -204.18408203 184.16113281 C-206.86313933 180.14254687 -206.88018897 176.8847156 -206.18408203 172.16113281 C-204.39014535 169.29083413 -203.20144927 167.66981643 -200.18408203 166.16113281 C-197.83135014 166.09650562 -195.4766999 166.09889704 -193.12329102 166.13037109 C-191.61584377 166.14647918 -190.1083921 166.16217621 -188.60093689 166.17752075 C-187.79965803 166.18705906 -186.99837917 166.19659737 -186.17281914 166.20642471 C-181.03493496 166.25799765 -175.89672184 166.25220843 -170.75862026 166.25778389 C-166.24629608 166.26598674 -161.73570094 166.29362624 -157.22387695 166.36328125 C-152.85711321 166.42957415 -148.4931003 166.44170295 -144.12593269 166.41802597 C-142.46696896 166.41863402 -140.80788854 166.43858049 -139.14941216 166.4787941 C-129.59077909 166.85585856 -129.59077909 166.85585856 -121.25283813 162.78799438 C-118.9790704 160.01466942 -117.0929666 157.19189918 -115.18408203 154.16113281 C-87.34256419 122.63403739 -50.57633334 102.5849396 -10.18408203 92.16113281 C-10.18408203 84.24113281 -10.18408203 76.32113281 -10.18408203 68.16113281 C-11.99908203 67.35675781 -13.81408203 66.55238281 -15.68408203 65.72363281 C-24.79848591 61.13418652 -30.01183403 55.07331118 -33.49267578 45.52050781 C-36.17782494 36.35762594 -35.65568303 27.47092694 -31.55908203 18.78613281 C-24.69303754 6.43701487 -14.15329287 0.0200629 0 0 Z " fill="#5CDBF2" transform="translate(274.18408203125,9.8388671875)"/>
<path d="M0 0 C0.63663574 0.28246582 1.27327148 0.56493164 1.92919922 0.85595703 C34.33669131 15.50568463 59.12107212 43.05678388 72 76 C81.44710118 102.30806917 83.68629133 130.90494565 76 158 C75.67854004 159.15048828 75.67854004 159.15048828 75.35058594 160.32421875 C65.20650296 195.584874 41.41982267 225.39053334 9.41015625 243.3125 C-3.20939293 249.55722537 -16.22948673 254.1342853 -30 257 C-31.40958984 257.33644531 -31.40958984 257.33644531 -32.84765625 257.6796875 C-64.61366386 264.35283442 -101.06333353 255.42769867 -128 238 C-135.86192126 232.58164886 -143.05580031 226.54198029 -150 220 C-150.66386719 219.40058594 -151.32773438 218.80117188 -152.01171875 218.18359375 C-175.47986334 196.14353098 -188.99253938 162.25795554 -190.4453125 130.50390625 C-190.80433689 115.95928666 -190.02886902 102.01399809 -186 88 C-185.79632813 87.28134766 -185.59265625 86.56269531 -185.3828125 85.82226562 C-175.24288538 51.36529104 -151.35339619 22.16118011 -119.99658203 4.89697266 C-82.71304179 -14.98935375 -38.71305791 -17.26829185 0 0 Z " fill="#FDFDFD" transform="translate(365,176)"/>
</svg>